<svg width="31" height="33" viewBox="0 0 31 33" fill="none" xmlns="http://www.w3.org/2000/svg">
<circle cx="15.5" cy="15.5" r="15.5" fill="#5359C7"/>
<g filter="url(#filter0_i_973_584)">
<path d="M6.954 24H21.697L22.41 19.4L16.752 19.377L19.903 17.169C20.639 16.6323 21.283 16.019 21.835 15.329C22.387 14.6237 22.7167 13.8263 22.824 12.937C22.9773 11.9403 22.8087 11.0357 22.318 10.223C21.8427 9.395 21.1373 8.74333 20.202 8.268C19.2667 7.77733 18.1933 7.532 16.982 7.532C15.5253 7.51667 14.2527 7.81567 13.164 8.429C12.0907 9.027 11.2167 9.82433 10.542 10.821C9.88267 11.8177 9.45333 12.9063 9.254 14.087L14.13 14.11C14.222 13.7267 14.3677 13.3587 14.567 13.006C14.7663 12.638 15.0193 12.339 15.326 12.109C15.6327 11.879 15.9853 11.7717 16.384 11.787C16.7213 11.787 16.9897 11.8637 17.189 12.017C17.3883 12.155 17.5187 12.339 17.58 12.569C17.6567 12.7837 17.6797 13.0213 17.649 13.282C17.5877 13.7573 17.4037 14.1943 17.097 14.593C16.8057 14.9917 16.453 15.3827 16.039 15.766C15.625 16.1493 15.1957 16.5557 14.751 16.985L6.954 24Z" fill="white"/>
</g>
<defs>
<filter id="filter0_i_973_584" x="6.95312" y="7.50879" width="16.1016" height="17.4912" filterUnits="userSpaceOnUse" color-interpolation-filters="sRGB">
<feFlood flood-opacity="0" result="BackgroundImageFix"/>
<feBlend mode="normal" in="SourceGraphic" in2="BackgroundImageFix" result="shape"/>
<feColorMatrix in="SourceAlpha" type="matrix" values="0 0 0 0 0 0 0 0 0 0 0 0 0 0 0 0 0 0 127 0" result="hardAlpha"/>
<feOffset dy="1"/>
<feGaussianBlur stdDeviation="0.5"/>
<feComposite in2="hardAlpha" operator="arithmetic" k2="-1" k3="1"/>
<feColorMatrix type="matrix" values="0 0 0 0 1 0 0 0 0 1 0 0 0 0 1 0 0 0 0.25 0"/>
<feBlend mode="normal" in2="shape" result="effect1_innerShadow_973_584"/>
</filter>
</defs>
</svg>
