<svg width="154" height="155" viewBox="0 0 154 155" fill="none" xmlns="http://www.w3.org/2000/svg">
<mask id="mask0_951_259" style="mask-type:alpha" maskUnits="userSpaceOnUse" x="0" y="0" width="154" height="155">
<rect y="0.0117188" width="154" height="154" fill="#D9D9D9"/>
</mask>
<g mask="url(#mask0_951_259)">
<circle cx="75" cy="78.7334" r="75" fill="#28A76A" fill-opacity="0.1"/>
<path d="M74.911 14.3042C74.6527 8.50641 79.1628 3.5203 84.9399 4.0742C99.8438 5.50316 114.068 11.3726 125.707 21.0424C140.057 32.9635 149.449 49.8046 152.049 68.278C154.65 86.7513 150.272 105.531 139.77 120.95C131.252 133.457 119.201 143.025 105.271 148.513C99.8715 150.64 94.1602 147.093 92.8079 141.449C91.4557 135.805 95.0014 130.224 100.277 127.805C109.156 123.735 116.828 117.301 122.4 109.119C129.958 98.0211 133.109 84.5041 131.238 71.2074C129.366 57.9107 122.606 45.7888 112.277 37.2083C104.664 30.8831 95.5136 26.817 85.8562 25.3558C80.1179 24.4877 75.1693 20.1021 74.911 14.3042Z" fill="url(#paint0_linear_951_259)"/>
<path d="M51.6545 76.9195C53.3937 76.9195 54.9332 76.661 56.2728 76.1439C57.636 75.6269 58.7054 74.8865 59.481 73.9229C60.2565 72.9593 60.6443 71.8547 60.6443 70.609C60.6443 69.3869 60.3388 68.2822 59.7277 67.2951C59.1402 66.2845 58.2823 65.4736 57.1542 64.8626C56.026 64.2515 54.6629 63.946 53.0647 63.946C51.5605 63.946 50.2326 64.2515 49.081 64.8626C47.9293 65.4501 47.0245 66.261 46.3664 67.2951C45.7318 68.3292 45.4145 69.5279 45.4145 70.891H49.3277C49.3277 69.9039 49.6803 69.0931 50.3854 68.4585C51.1139 67.8004 52.0188 67.4714 53.0999 67.4714C53.8285 67.4714 54.4396 67.6124 54.9332 67.8944C55.4267 68.1765 55.8028 68.576 56.0613 69.0931C56.3198 69.5866 56.4491 70.1625 56.4491 70.8205C56.4491 71.3376 56.3316 71.8429 56.0965 72.3365C55.885 72.8065 55.5677 73.2178 55.1447 73.5704C54.7451 73.9229 54.2516 74.2049 53.664 74.4165C53.0764 74.6045 52.4066 74.6985 51.6545 74.6985V76.9195ZM52.8884 89.4348C54.5806 89.4348 56.0613 89.141 57.3304 88.5534C58.5996 87.9658 59.5867 87.1432 60.2918 86.0856C60.9969 85.028 61.3494 83.8058 61.3494 82.4192C61.3494 81.1735 61.1026 80.1159 60.6091 79.2463C60.1155 78.3532 59.4222 77.6364 58.5291 77.0958C57.6595 76.5317 56.6371 76.1204 55.462 75.8619C54.2868 75.5799 53.0177 75.4388 51.6545 75.4388V77.8009C52.4771 77.8009 53.2292 77.8949 53.9108 78.0829C54.5924 78.2709 55.1682 78.5412 55.6382 78.8938C56.1318 79.2463 56.5078 79.6811 56.7664 80.1982C57.0249 80.7152 57.1542 81.3028 57.1542 81.9609C57.1542 82.7835 56.9779 83.4886 56.6254 84.0761C56.2728 84.6402 55.7793 85.075 55.1447 85.3805C54.5336 85.6861 53.805 85.8388 52.9589 85.8388C52.1363 85.8388 51.3842 85.6861 50.7026 85.3805C50.0211 85.0515 49.4805 84.6049 49.081 84.0409C48.7049 83.4533 48.5169 82.76 48.5169 81.9609H44.3569C44.3569 82.9715 44.5567 83.9351 44.9562 84.8517C45.3558 85.7448 45.9198 86.5439 46.6484 87.249C47.377 87.9306 48.2701 88.4712 49.3277 88.8707C50.3854 89.2467 51.5723 89.4348 52.8884 89.4348ZM82.3318 80.9738C82.3318 79.3051 82.0027 77.8596 81.3446 76.6375C80.6866 75.4153 79.7935 74.4635 78.6653 73.7819C77.5372 73.1003 76.2915 72.7595 74.9284 72.7595C74.2468 72.7595 73.577 72.83 72.9189 72.971C72.2608 73.1121 71.6262 73.3353 71.0151 73.6409L72.5663 68.0002H82.085V64.3338H69.4287L66.0796 77.9066C66.9257 77.3896 67.7012 76.99 68.4063 76.708C69.1349 76.426 69.84 76.2379 70.5216 76.1439C71.2267 76.0264 71.9318 75.9677 72.6368 75.9677C73.6005 75.9677 74.4818 76.1557 75.2809 76.5317C76.08 76.9078 76.7146 77.4483 77.1846 78.1534C77.6547 78.8585 77.8897 79.7164 77.8897 80.727C77.8897 81.7141 77.6782 82.5719 77.2551 83.3005C76.8556 84.0291 76.268 84.5814 75.4924 84.9575C74.7168 85.3335 73.765 85.5215 72.6368 85.5215C71.8612 85.5215 71.0857 85.3688 70.3101 85.0632C69.5345 84.7342 68.8059 84.3112 68.1243 83.7941C67.4662 83.2535 66.8904 82.666 66.3968 82.0314L63.9643 85.028C64.5989 85.8036 65.3392 86.5322 66.1853 87.2138C67.0314 87.8718 68.0303 88.4006 69.1819 88.8002C70.3336 89.1997 71.6615 89.3995 73.1657 89.3995C74.3643 89.3995 75.5042 89.235 76.5853 88.906C77.6899 88.5534 78.6771 88.0364 79.5467 87.3548C80.4163 86.6497 81.0979 85.7683 81.5914 84.7107C82.085 83.6531 82.3318 82.4074 82.3318 80.9738ZM84.7891 69.8334C84.7891 70.938 85.0359 71.9487 85.5294 72.8653C86.0465 73.7584 86.7633 74.4752 87.6799 75.0158C88.5965 75.5564 89.6307 75.8266 90.7823 75.8266C91.981 75.8266 93.0268 75.5564 93.9199 75.0158C94.8365 74.4752 95.5416 73.7584 96.0352 72.8653C96.5523 71.9487 96.8108 70.938 96.8108 69.8334C96.8108 68.7288 96.5523 67.7299 96.0352 66.8368C95.5416 65.9202 94.8365 65.1916 93.9199 64.651C93.0268 64.1105 91.981 63.8402 90.7823 63.8402C89.6307 63.8402 88.5965 64.1105 87.6799 64.651C86.7633 65.1916 86.0465 65.9202 85.5294 66.8368C85.0359 67.7299 84.7891 68.7288 84.7891 69.8334ZM88.0325 69.8334C88.0325 69.2928 88.15 68.7993 88.385 68.3527C88.62 67.9062 88.9373 67.5536 89.3369 67.2951C89.7599 67.0366 90.2417 66.9073 90.7823 66.9073C91.3699 66.9073 91.8634 67.0366 92.263 67.2951C92.6625 67.5536 92.9798 67.9062 93.2149 68.3527C93.4499 68.7993 93.5674 69.2928 93.5674 69.8334C93.5674 70.3505 93.4499 70.844 93.2149 71.3141C92.9798 71.7606 92.6625 72.1249 92.263 72.407C91.8634 72.6655 91.3699 72.7948 90.7823 72.7948C90.2417 72.7948 89.7599 72.6655 89.3369 72.407C88.9373 72.1249 88.62 71.7606 88.385 71.3141C88.15 70.844 88.0325 70.3505 88.0325 69.8334ZM99.4901 83.5121C99.4901 84.5932 99.7486 85.5921 100.266 86.5087C100.783 87.4253 101.488 88.1539 102.381 88.6944C103.298 89.2115 104.343 89.47 105.519 89.47C106.694 89.47 107.728 89.2115 108.621 88.6944C109.538 88.1539 110.243 87.4253 110.736 86.5087C111.253 85.5921 111.512 84.5932 111.512 83.5121C111.512 82.3839 111.253 81.3733 110.736 80.4802C110.243 79.5636 109.538 78.8467 108.621 78.3297C107.728 77.7891 106.694 77.5188 105.519 77.5188C104.343 77.5188 103.298 77.7891 102.381 78.3297C101.488 78.8467 100.783 79.5636 100.266 80.4802C99.7486 81.3733 99.4901 82.3839 99.4901 83.5121ZM102.769 83.4768C102.769 82.9597 102.875 82.4779 103.086 82.0314C103.321 81.5848 103.638 81.2323 104.038 80.9738C104.461 80.6917 104.955 80.5507 105.519 80.5507C106.083 80.5507 106.564 80.6917 106.964 80.9738C107.387 81.2323 107.704 81.5848 107.916 82.0314C108.151 82.4779 108.268 82.9597 108.268 83.4768C108.268 84.0174 108.151 84.5109 107.916 84.9575C107.704 85.404 107.387 85.7683 106.964 86.0504C106.564 86.3089 106.083 86.4382 105.519 86.4382C104.955 86.4382 104.461 86.3089 104.038 86.0504C103.638 85.7683 103.321 85.404 103.086 84.9575C102.875 84.4874 102.769 83.9939 102.769 83.4768ZM104.813 64.3338L87.7152 89.0117H91.4874L108.586 64.3338H104.813Z" fill="#28A76A"/>
</g>
<defs>
<linearGradient id="paint0_linear_951_259" x1="83.969" y1="3.68032" x2="92.2652" y2="150.834" gradientUnits="userSpaceOnUse">
<stop stop-color="#28A76A"/>
<stop offset="1" stop-color="#8186DC" stop-opacity="0"/>
</linearGradient>
</defs>
</svg>
