<svg width="56" height="57" viewBox="0 0 56 57" fill="none" xmlns="http://www.w3.org/2000/svg">
<path d="M16.37 12.1637C18.1407 12.1637 19.7407 11.9504 21.17 11.5237C22.5993 11.0971 23.73 10.4571 24.562 9.60372C25.4153 8.75038 25.842 7.68372 25.842 6.40372C25.842 5.25172 25.5327 4.20638 24.914 3.26772C24.3167 2.32905 23.4313 1.58238 22.258 1.02772C21.0847 0.47305 19.6553 0.195717 17.97 0.195717C16.3913 0.195717 15.0047 0.505051 13.81 1.12372C12.6153 1.72105 11.6873 2.55305 11.026 3.61972C10.386 4.66505 10.066 5.84905 10.066 7.17172H15.026C15.026 6.38238 15.3033 5.74239 15.858 5.25172C16.4127 4.76105 17.1167 4.51572 17.97 4.51572C18.546 4.51572 19.0153 4.61172 19.378 4.80372C19.7407 4.97438 20.018 5.23038 20.21 5.57172C20.402 5.91305 20.498 6.29705 20.498 6.72372C20.498 7.12905 20.402 7.51305 20.21 7.87572C20.018 8.23838 19.73 8.55838 19.346 8.83572C18.9833 9.11305 18.546 9.33705 18.034 9.50772C17.5433 9.65705 16.9887 9.73172 16.37 9.73172V12.1637ZM17.714 23.5237C19.5487 23.5237 21.1167 23.2464 22.418 22.6917C23.7193 22.1157 24.722 21.3371 25.426 20.3557C26.13 19.3531 26.482 18.2011 26.482 16.8997C26.482 15.7691 26.2367 14.7984 25.746 13.9877C25.2553 13.1771 24.5513 12.5157 23.634 12.0037C22.7167 11.4704 21.6393 11.0864 20.402 10.8517C19.186 10.5957 17.842 10.4677 16.37 10.4677V13.2197C17.1807 13.2197 17.8847 13.2944 18.482 13.4437C19.0793 13.5931 19.57 13.8171 19.954 14.1157C20.3593 14.3931 20.658 14.7237 20.85 15.1077C21.042 15.4917 21.138 15.9184 21.138 16.3877C21.138 17.0064 20.9993 17.5291 20.722 17.9557C20.4447 18.3824 20.0607 18.6917 19.57 18.8837C19.1007 19.0757 18.546 19.1717 17.906 19.1717C17.3087 19.1717 16.7327 19.0544 16.178 18.8197C15.6447 18.5851 15.218 18.2224 14.898 17.7317C14.578 17.2411 14.418 16.6331 14.418 15.9077H9.106C9.106 16.8891 9.298 17.8384 9.682 18.7557C10.0873 19.6731 10.6527 20.4944 11.378 21.2197C12.1247 21.9451 13.0313 22.5104 14.098 22.9157C15.1647 23.3211 16.37 23.5237 17.714 23.5237ZM47.125 15.8437C47.125 14.2864 46.805 12.9637 46.165 11.8757C45.525 10.7877 44.6823 9.95572 43.637 9.37972C42.613 8.80372 41.5037 8.51572 40.309 8.51572C39.605 8.51572 38.9223 8.57972 38.261 8.70772C37.621 8.81438 37.0023 9.00638 36.405 9.28372L37.685 5.28372H46.645V0.611717H33.717L30.581 13.5397C31.349 13.1557 32.0957 12.8677 32.821 12.6757C33.5677 12.4624 34.2823 12.3237 34.965 12.2597C35.669 12.1744 36.309 12.1317 36.885 12.1317C37.6317 12.1317 38.325 12.2384 38.965 12.4517C39.6263 12.6651 40.1597 13.0064 40.565 13.4757C40.9917 13.9237 41.205 14.5211 41.205 15.2677C41.205 15.9717 41.0343 16.5691 40.693 17.0597C40.3517 17.5504 39.861 17.9131 39.221 18.1477C38.581 18.3824 37.8023 18.4997 36.885 18.4997C36.3517 18.4997 35.7543 18.4037 35.093 18.2117C34.4317 17.9984 33.7703 17.7211 33.109 17.3797C32.469 17.0171 31.8397 16.5797 31.221 16.0677L29.109 20.5157C29.813 21.0491 30.5917 21.5397 31.445 21.9877C32.2983 22.4144 33.2797 22.7557 34.389 23.0117C35.4983 23.2891 36.7357 23.4277 38.101 23.4277C39.189 23.4277 40.2557 23.2891 41.301 23.0117C42.3677 22.7131 43.3383 22.2544 44.213 21.6357C45.109 21.0171 45.813 20.2277 46.325 19.2677C46.8583 18.3077 47.125 17.1664 47.125 15.8437ZM19.9834 36.4117H3.88336V48.0037C3.88336 48.6011 3.81803 49.1517 3.68736 49.6557C3.55669 50.1597 3.36069 50.5891 3.09936 50.9437C2.85669 51.2797 2.54869 51.5411 2.17536 51.7277C1.82069 51.9144 1.41003 52.0077 0.943359 52.0077V56.0117C2.75403 56.0117 4.22869 55.7131 5.36736 55.1157C6.50603 54.4997 7.33669 53.5757 7.85936 52.3437C8.40069 51.0931 8.67136 49.5531 8.67136 47.7237V40.6397H15.1674V56.0117H19.9834V36.4117ZM27.6982 56.0117H37.5822V52.1197H27.6982V56.0117ZM27.6982 40.3037H37.5822V36.4117H27.6982V40.3037ZM27.6982 47.6117H37.0222V43.8037H27.6982V47.6117ZM24.5622 36.4117V56.0117H29.0982V36.4117H24.5622ZM39.7533 40.6397H45.1293V56.0117H49.8613V40.6397H55.2653V36.4117H39.7533V40.6397Z" fill="white"/>
</svg>
