<svg width="154" height="154" viewBox="0 0 154 154" fill="none" xmlns="http://www.w3.org/2000/svg">
<mask id="mask0_197_467" style="mask-type:alpha" maskUnits="userSpaceOnUse" x="0" y="0" width="154" height="154">
<rect width="154" height="154" fill="#D9D9D9"/>
</mask>
<g mask="url(#mask0_197_467)">
<circle cx="75" cy="78.7217" r="75" fill="#3F55C7" fill-opacity="0.1"/>
<path d="M74.9119 14.2925C74.6536 8.49469 79.1637 3.50859 84.9408 4.06248C99.8447 5.49144 114.069 11.3609 125.708 21.0307C140.058 32.9518 149.45 49.7929 152.05 68.2663C154.651 86.7396 150.273 105.519 139.771 120.938C131.253 133.445 119.202 143.013 105.272 148.501C99.8724 150.628 94.1612 147.081 92.8089 141.437C91.4567 135.793 95.0023 130.212 100.278 127.793C109.157 123.723 116.829 117.289 122.401 109.108C129.959 98.0094 133.11 84.4924 131.239 71.1957C129.367 57.899 122.607 45.7771 112.278 37.1966C104.665 30.8714 95.5146 26.8053 85.8571 25.3441C80.1189 24.476 75.1702 20.0904 74.9119 14.2925Z" fill="url(#paint0_linear_197_467)"/>
<path d="M50.6201 77.9078C52.3593 77.9078 53.8987 77.6493 55.2384 77.1322C56.6016 76.6151 57.6709 75.8748 58.4465 74.9112C59.2221 73.9476 59.6099 72.8429 59.6099 71.5973C59.6099 70.3751 59.3044 69.2705 58.6933 68.2834C58.1057 67.2728 57.2479 66.4619 56.1197 65.8508C54.9916 65.2398 53.6284 64.9342 52.0303 64.9342C50.5261 64.9342 49.1982 65.2398 48.0465 65.8508C46.8949 66.4384 45.99 67.2493 45.3319 68.2834C44.6974 69.3175 44.3801 70.5162 44.3801 71.8793H48.2933C48.2933 70.8922 48.6576 70.0814 49.3862 69.4468C50.1148 68.7887 51.0079 68.4597 52.0655 68.4597C52.8176 68.4597 53.4404 68.6007 53.934 68.8827C54.4275 69.1647 54.7918 69.5643 55.0269 70.0814C55.2854 70.5749 55.4147 71.1507 55.4147 71.8088C55.4147 72.3259 55.2971 72.8194 55.0621 73.2895C54.8506 73.7595 54.5333 74.1826 54.1103 74.5586C53.7107 74.9112 53.2171 75.1932 52.6296 75.4047C52.042 75.5928 51.3722 75.6868 50.6201 75.6868V77.9078ZM51.854 90.4231C53.5462 90.4231 55.0269 90.1293 56.296 89.5417C57.5652 88.9541 58.5523 88.1315 59.2574 87.0739C59.9625 86.0163 60.315 84.7824 60.315 83.3722C60.315 82.1501 60.0682 81.1042 59.5747 80.2346C59.0811 79.3415 58.3878 78.6129 57.4947 78.0488C56.6251 77.4847 55.6027 77.0734 54.4275 76.8149C53.2524 76.5564 51.9832 76.4271 50.6201 76.4271V78.7892C51.4662 78.7892 52.2183 78.8832 52.8764 79.0712C53.5579 79.2592 54.1338 79.5295 54.6038 79.882C55.0974 80.2346 55.4734 80.6694 55.7319 81.1864C55.9905 81.7035 56.1197 82.2911 56.1197 82.9492C56.1197 83.7718 55.9435 84.4768 55.5909 85.0644C55.2619 85.6285 54.7801 86.0633 54.1455 86.3688C53.5109 86.6744 52.7706 86.8271 51.9245 86.8271C51.1019 86.8271 50.3498 86.6744 49.6682 86.3688C49.0101 86.0398 48.4813 85.5815 48.0818 84.9939C47.7057 84.4063 47.5177 83.7247 47.5177 82.9492H43.3225C43.3225 83.9598 43.5222 84.9234 43.9218 85.84C44.3213 86.7331 44.8854 87.5322 45.614 88.2373C46.3661 88.9189 47.2592 89.4594 48.2933 89.859C49.3509 90.235 50.5378 90.4231 51.854 90.4231ZM81.3326 81.962C81.3326 80.2933 80.9918 78.8479 80.3102 77.6258C79.6521 76.4036 78.759 75.4518 77.6309 74.7702C76.5028 74.0886 75.2571 73.7478 73.8939 73.7478C73.2124 73.7478 72.5425 73.8183 71.8844 73.9593C71.2264 74.1003 70.5918 74.3236 69.9807 74.6292L71.5319 68.9885H81.0858V65.322H68.3943L65.0451 78.8949C65.8912 78.3779 66.6668 77.9783 67.3719 77.6963C68.1005 77.4142 68.8056 77.2262 69.4872 77.1322C70.1922 77.0147 70.9091 76.9559 71.6377 76.9559C72.5778 76.9559 73.4474 77.144 74.2465 77.52C75.0456 77.896 75.6802 78.4366 76.1502 79.1417C76.6203 79.8468 76.8553 80.7046 76.8553 81.7153C76.8553 82.7024 76.6438 83.5602 76.2207 84.2888C75.8212 84.9939 75.2336 85.5462 74.458 85.9458C73.6824 86.3218 72.7423 86.5098 71.6377 86.5098C70.8621 86.5098 70.0747 86.3571 69.2756 86.0515C68.5 85.7225 67.7832 85.2994 67.1251 84.7824C66.467 84.2418 65.8912 83.6425 65.3977 82.9844L62.9299 86.0163C63.5644 86.7919 64.3048 87.5205 65.1509 88.202C65.997 88.8601 66.9959 89.3889 68.1475 89.7885C69.3226 90.188 70.6623 90.3878 72.1665 90.3878C73.3651 90.3878 74.505 90.2233 75.5861 89.8942C76.6673 89.5417 77.6426 89.0246 78.5122 88.3431C79.3818 87.638 80.0634 86.7566 80.557 85.699C81.0741 84.6414 81.3326 83.3957 81.3326 81.962ZM83.7891 70.8217C83.7891 71.9263 84.0359 72.9369 84.5294 73.8536C85.0465 74.7467 85.7633 75.4635 86.6799 76.0041C87.5965 76.5446 88.6307 76.8149 89.7823 76.8149C90.981 76.8149 92.0268 76.5446 92.9199 76.0041C93.8365 75.4635 94.5416 74.7467 95.0352 73.8536C95.5523 72.9369 95.8108 71.9263 95.8108 70.8217C95.8108 69.7171 95.5523 68.7182 95.0352 67.8251C94.5416 66.9085 93.8365 66.1799 92.9199 65.6393C92.0268 65.0988 90.981 64.8285 89.7823 64.8285C88.6307 64.8285 87.5965 65.0988 86.6799 65.6393C85.7633 66.1799 85.0465 66.9085 84.5294 67.8251C84.0359 68.7182 83.7891 69.7171 83.7891 70.8217ZM87.0677 70.8217C87.0677 70.2811 87.1735 69.7876 87.385 69.341C87.62 68.8945 87.9373 68.5419 88.3369 68.2834C88.7599 68.0249 89.2417 67.8956 89.7823 67.8956C90.3699 67.8956 90.8634 68.0249 91.263 68.2834C91.6625 68.5419 91.9798 68.8945 92.2149 69.341C92.4499 69.7876 92.5674 70.2811 92.5674 70.8217C92.5674 71.3388 92.4499 71.8323 92.2149 72.3024C91.9798 72.7489 91.6625 73.1132 91.263 73.3953C90.8634 73.6538 90.3699 73.7831 89.7823 73.7831C89.2417 73.7831 88.7599 73.6538 88.3369 73.3953C87.9373 73.1132 87.62 72.7489 87.385 72.3024C87.1735 71.8323 87.0677 71.3388 87.0677 70.8217ZM98.5254 84.4651C98.5254 85.5697 98.7721 86.5803 99.2657 87.4969C99.7828 88.4136 100.5 89.1421 101.416 89.6827C102.333 90.1998 103.367 90.4583 104.519 90.4583C105.717 90.4583 106.763 90.1998 107.656 89.6827C108.549 89.1421 109.254 88.4136 109.771 87.4969C110.289 86.5803 110.547 85.5697 110.547 84.4651C110.547 83.3605 110.289 82.3616 109.771 81.4685C109.254 80.5519 108.549 79.8233 107.656 79.2827C106.763 78.7421 105.717 78.4719 104.519 78.4719C103.367 78.4719 102.333 78.7421 101.416 79.2827C100.5 79.8233 99.7828 80.5519 99.2657 81.4685C98.7721 82.3616 98.5254 83.3605 98.5254 84.4651ZM101.769 84.4651C101.769 83.9245 101.875 83.4427 102.086 83.0197C102.321 82.5731 102.638 82.2206 103.038 81.962C103.461 81.68 103.955 81.539 104.519 81.539C105.106 81.539 105.6 81.68 105.999 81.962C106.399 82.2206 106.704 82.5731 106.916 83.0197C107.151 83.4662 107.268 83.948 107.268 84.4651C107.268 84.9821 107.151 85.4757 106.916 85.9458C106.704 86.3923 106.399 86.7566 105.999 87.0386C105.6 87.2972 105.106 87.4264 104.519 87.4264C103.955 87.4264 103.461 87.2972 103.038 87.0386C102.638 86.7566 102.321 86.3923 102.086 85.9458C101.875 85.4757 101.769 84.9821 101.769 84.4651ZM103.813 65.322L86.7152 90H90.5226L107.621 65.322H103.813Z" fill="#3F55C7"/>
</g>
<defs>
<linearGradient id="paint0_linear_197_467" x1="83.97" y1="3.6686" x2="92.2661" y2="150.822" gradientUnits="userSpaceOnUse">
<stop stop-color="#3F55C7"/>
<stop offset="1" stop-color="#0BDCB2" stop-opacity="0"/>
</linearGradient>
</defs>
</svg>
