<svg width="92" height="60" viewBox="0 0 92 60" fill="none" xmlns="http://www.w3.org/2000/svg">
<path d="M30 0C13.4317 0 0 13.4317 0 30C0 46.5683 13.4317 60 30 60C46.5683 60 60 46.5683 60 30C60 13.4317 46.5683 0 30 0ZM5.17241 30C5.17241 16.3107 16.3107 5.17241 30 5.17241C36.0476 5.17241 41.5945 7.34793 45.9052 10.9541L10.9541 45.9052C7.34793 41.5945 5.17241 36.0466 5.17241 30ZM30 54.8276C24.2172 54.8276 18.8938 52.8341 14.669 49.5062L49.5062 14.6679C52.8341 18.8938 54.8276 24.2172 54.8276 30C54.8276 43.6893 43.6893 54.8276 30 54.8276Z" fill="#D34756"/>
<path d="M36.6837 25.4169L48.812 30.4853C49.5613 30.7984 50.1231 31.4145 50.3422 32.1636L53.7641 43.8573C55.0542 48.266 57.6163 51.3083 59.881 51.3083L60.8518 47.8172L55.9341 31.012C55.2774 28.7679 56.7319 27.4972 58.2338 29.3219L64.0792 36.4235L66.2545 43.8573C67.5447 48.266 70.0866 51.3083 72.3715 51.3083L73.3422 47.817L72.0692 43.4669C72.0692 43.4669 76.347 49.7308 79.4361 49.7308L80.4069 46.2395L80.1921 45.5059C80.1921 45.5059 80.5616 41.8262 82.0989 41.8262L83.6624 38.8088V26.0378C83.6624 24.6725 82.8129 23.436 81.497 22.8862L39.0762 5.15872C37.1722 4.363 35.1148 3.95215 33.0346 3.95215H31.4375L30.1875 15.9619C30.1875 20.058 32.7359 23.7671 36.6837 25.4169Z" fill="#FFCDBE"/>
<path d="M72.3716 51.3082L71.5088 54.4109C69.1683 54.0167 66.6836 50.7813 65.0047 45.0442L62.8293 37.6104L56.9839 30.5088C56.5799 30.018 55.7586 30.4115 55.9343 31.0117L55.6429 30.0162C54.9861 27.7721 57.9819 26.31 59.4839 28.1347L65.3293 35.2363L67.5047 42.6701C68.7947 47.0788 70.5608 50.0081 72.3716 51.3082ZM74.5693 41.0927L71.9326 32.0824L64.9452 23.5842C63.9973 22.4314 62.0537 22.9627 61.8962 24.4176L61.8127 25.1891L69.4327 34.4566L72.0695 43.4669C73.7483 49.204 76.233 52.4394 78.5736 52.8336L79.4364 49.7309C77.6255 48.4308 75.8595 45.5014 74.5693 41.0927ZM79.6625 27.9712C79.6625 27.0902 79.1142 26.2923 78.2651 25.9374C78.2651 25.9374 76.122 25.0418 74.9311 24.5441C71.1473 22.9628 68.1781 19.9304 67.2357 16.9263C67.2357 19.3067 68.0736 21.6187 69.6162 23.4949L76.033 31.299L80.1922 45.506L82.099 41.8263C81.2945 40.7486 79.6625 37.7082 79.6625 30.7768C79.6625 29.8409 79.6625 27.9712 79.6625 27.9712ZM28.9375 17.149C28.9375 21.2451 31.4859 24.9542 35.4337 26.6039L48.7458 32.167L52.5141 45.0443C54.193 50.7815 56.6776 54.0168 59.0183 54.411L59.881 51.3083C58.0703 50.0083 56.3043 47.0789 55.0141 42.6702L51.5922 30.9765C51.373 30.2274 50.8114 29.6113 50.062 29.2982L37.9337 24.2298C33.9859 22.5799 31.4375 18.8708 31.4375 14.7748V3.95215H29.875C29.3573 3.95215 28.9375 4.35078 28.9375 4.84247V17.149Z" fill="#EBAE9D"/>
<path d="M60.7786 47.8359C60.1708 48.002 59.6461 48.3088 59.2305 48.7078L60.128 54.5042C60.3365 55.2168 61.7946 54.9682 62.8615 54.6863L60.8512 47.8164C60.8268 47.8228 60.8026 47.8293 60.7786 47.8359Z" fill="#E2A5CF"/>
<path d="M60.7518 53.9099L59.2293 48.707C58.3512 49.55 57.9621 50.8062 58.3198 52.0288L59.0164 54.4096C59.4709 55.9629 61.1904 56.2188 62.5761 55.8527C62.8971 55.7678 63.0845 55.4512 62.9952 55.1465L62.8603 54.6855C61.7933 54.9674 60.9603 54.6225 60.7518 53.9099Z" fill="#D273B3"/>
<path d="M73.2708 47.8359C72.663 48.002 72.1383 48.3088 71.7227 48.7078L72.6202 54.5042C72.8287 55.2168 74.2868 54.9682 75.3537 54.6863L73.3434 47.8164C73.319 47.8228 73.2948 47.8293 73.2708 47.8359Z" fill="#E2A5CF"/>
<path d="M73.244 53.9099L71.7215 48.707C70.8434 49.55 70.4542 50.8062 70.812 52.0288L71.5086 54.4096C71.9631 55.9629 73.6826 56.2188 75.0683 55.8527C75.3893 55.7678 75.5766 55.4512 75.4874 55.1465L75.3525 54.6855C74.2856 54.9674 73.4525 54.6225 73.244 53.9099Z" fill="#D273B3"/>
<path d="M80.3333 46.2587C79.7255 46.4248 79.2008 46.7317 78.7852 47.1307L79.6827 52.927C79.8912 53.6396 81.3493 53.3911 82.4162 53.1091L80.4059 46.2393C80.3815 46.2457 80.3574 46.2521 80.3333 46.2587Z" fill="#E2A5CF"/>
<path d="M80.3085 52.3327L78.7859 47.1299C77.9078 47.9728 77.5187 49.229 77.8764 50.4516L78.5731 52.8325C79.0276 54.3858 80.7471 54.6416 82.1327 54.2755C82.4537 54.1906 82.6411 53.874 82.5518 53.5693L82.417 53.1084C81.3501 53.3903 80.517 53.0453 80.3085 52.3327Z" fill="#D273B3"/>
<path d="M83.585 38.808C82.9526 38.8134 82.3605 38.9756 81.8476 39.2544L81.0781 45.0673C81.0781 45.8069 82.553 45.9382 83.6605 45.9378V38.8076C83.6353 38.8077 83.61 38.8079 83.585 38.808Z" fill="#E2A5CF"/>
<path d="M81.85 44.6559V39.2559C80.7662 39.8448 80.0371 40.9561 80.0371 42.225V44.6961C80.0371 46.3083 81.6216 46.9921 83.0599 46.9916C83.393 46.9915 83.6629 46.7341 83.6629 46.4178V45.9394C82.5554 45.9396 81.85 45.3954 81.85 44.6559Z" fill="#D273B3"/>
<path d="M74.4727 11.6414C75.5082 11.6414 76.3477 10.8442 76.3477 9.86073C76.3477 8.8773 75.5082 8.08008 74.4727 8.08008C73.4371 8.08008 72.5977 8.8773 72.5977 9.86073C72.5977 10.8442 73.4371 11.6414 74.4727 11.6414Z" fill="#D3EFFD"/>
<path d="M41.4258 44.1658C42.4613 44.1658 43.3008 43.3686 43.3008 42.3851C43.3008 41.4017 42.4613 40.6045 41.4258 40.6045C40.3903 40.6045 39.5508 41.4017 39.5508 42.3851C39.5508 43.3686 40.3903 44.1658 41.4258 44.1658Z" fill="#D3EFFD"/>
<path d="M31.4375 43.2607C30.9196 43.2607 30.5 42.8622 30.5 42.3703V39.6994H28.9375C28.4196 39.6994 28 39.3009 28 38.809C28 38.3172 28.4196 37.9187 28.9375 37.9187H30.5V35.2477C30.5 34.7559 30.9196 34.3574 31.4375 34.3574C31.9554 34.3574 32.375 34.7559 32.375 35.2477V37.9187H33.9375C34.4554 37.9187 34.875 38.3172 34.875 38.809C34.875 39.3009 34.4554 39.6994 33.9375 39.6994H32.375V42.3703C32.375 42.8622 31.9554 43.2607 31.4375 43.2607Z" fill="#D3EFFD"/>
<path d="M43.3008 27.1982C42.7829 27.1982 42.3633 26.7997 42.3633 26.3078V23.6369H40.8008C40.2829 23.6369 39.8633 23.2384 39.8633 22.7465C39.8633 22.2547 40.2829 21.8562 40.8008 21.8562H42.3633V19.1852C42.3633 18.6934 42.7829 18.2949 43.3008 18.2949C43.8187 18.2949 44.2383 18.6934 44.2383 19.1852V21.8562H45.8008C46.3187 21.8562 46.7383 22.2547 46.7383 22.7465C46.7383 23.2384 46.3187 23.6369 45.8008 23.6369H44.2383V26.3078C44.2383 26.7995 43.8187 27.1982 43.3008 27.1982Z" fill="#FFEEE5"/>
<path d="M88.5625 11.9033C88.0446 11.9033 87.625 11.5047 87.625 11.0129V8.34195H86.0625C85.5446 8.34195 85.125 7.94344 85.125 7.45163C85.125 6.95981 85.5446 6.5613 86.0625 6.5613H87.625V3.89033C87.625 3.39851 88.0446 3 88.5625 3C89.0804 3 89.5 3.39851 89.5 3.89033V6.5613H91.0625C91.5804 6.5613 92 6.95981 92 7.45163C92 7.94344 91.5804 8.34195 91.0625 8.34195H89.5V11.0129C89.5 11.5046 89.0804 11.9033 88.5625 11.9033Z" fill="#D3EFFD"/>
</svg>
