<svg width="90" height="60" viewBox="0 0 90 60" fill="none" xmlns="http://www.w3.org/2000/svg">
<path d="M30 0C13.4317 0 0 13.4317 0 30C0 46.5683 13.4317 60 30 60C46.5683 60 60 46.5683 60 30C60 13.4317 46.5683 0 30 0ZM5.17241 30C5.17241 16.3107 16.3107 5.17241 30 5.17241C36.0476 5.17241 41.5945 7.34793 45.9052 10.9541L10.9541 45.9052C7.34793 41.5945 5.17241 36.0466 5.17241 30ZM30 54.8276C24.2172 54.8276 18.8938 52.8341 14.669 49.5062L49.5062 14.6679C52.8341 18.8938 54.8276 24.2172 54.8276 30C54.8276 43.6893 43.6893 54.8276 30 54.8276Z" fill="#D34756"/>
<path d="M86.6249 35.272C86.6249 36.3372 86.1858 37.3007 85.4759 37.9982C84.7648 38.6956 83.784 39.127 82.7009 39.127H37.299C35.1327 39.127 33.375 37.4015 33.375 35.272C33.375 34.7015 33.5006 34.1611 33.7263 33.6746C33.9227 33.2516 34.1936 32.8706 34.524 32.5458C35.2351 31.8484 36.2159 31.417 37.299 31.417H82.701C84.2879 31.417 85.6553 32.342 86.2737 33.6746C86.4993 34.1611 86.6249 34.7015 86.6249 35.272Z" fill="#884D00"/>
<path d="M86.2739 33.6745C86.0775 34.0963 85.8055 34.4785 85.4762 34.8022C84.7651 35.4996 83.7844 35.931 82.7012 35.931H37.2993C35.7136 35.931 34.3462 35.0059 33.7266 33.6746C33.923 33.2516 34.1937 32.8706 34.5243 32.5458C35.2354 31.8484 36.2161 31.417 37.2993 31.417H82.7012C84.288 31.4169 85.6554 32.342 86.2739 33.6745Z" fill="#AA6100"/>
<path d="M90 42.238C90 47.205 87.6593 50.8957 83.8755 53.3439C80.0906 55.7932 74.8628 57 69.0884 57H50.9115C39.3629 57 30 52.172 30 42.238C30 41.6844 30.1403 41.1595 30.394 40.6874C30.6087 40.2848 30.905 39.9217 31.2649 39.6125C32.0456 38.9403 33.1263 38.5244 34.318 38.5244H85.6821C87.4227 38.5244 88.923 39.4111 89.6061 40.6874C89.8597 41.1597 90 41.6845 90 42.238Z" fill="#FFA733"/>
<path d="M89.6066 40.6874C88.7918 43.9947 86.7499 46.571 83.8761 48.4308C80.0912 50.8801 74.8633 52.0868 69.0889 52.0868H50.9121C40.7514 52.0868 32.2839 48.3505 30.3945 40.6874C30.6092 40.2848 30.9056 39.9217 31.2655 39.6125C32.0462 38.9402 33.1269 38.5244 34.3186 38.5244H85.6827C87.4232 38.5244 88.9235 39.4112 89.6066 40.6874Z" fill="#FFB655"/>
<path d="M76.6866 29.7998L66.5357 39.7721C66.2808 40.0214 66.0087 40.2419 65.7209 40.4324C63.5717 41.8619 60.6272 41.6427 58.7232 39.7721L48.5723 29.7998H76.6866Z" fill="#EEBF00"/>
<path d="M76.6868 29.7998L66.5359 39.7721C66.281 40.0214 66.0089 40.2419 65.7211 40.4324C64.9466 40.1736 64.2195 39.7409 63.6023 39.1334L54.1016 29.7998H76.6868Z" fill="#FFD422"/>
<path d="M88.8606 31.1909C88.8606 31.7133 88.7729 32.2477 88.5826 32.769C87.8372 34.8122 85.8418 35.6054 84.2866 34.4766L82.4215 33.1237C81.12 32.1783 79.46 32.5654 78.5183 34.0345L78.4389 34.1579C77.535 35.5695 75.9591 35.9889 74.6723 35.162L70.4958 32.479C69.5322 31.8607 68.3771 31.9278 67.4648 32.6576L64.1178 35.3322C63.1566 36.1003 61.932 36.1327 60.9452 35.4148L57.1273 32.6348C56.1515 31.9242 54.9415 31.9469 53.984 32.6946L50.5077 35.4066C49.5746 36.1339 48.4012 36.1758 47.4364 35.518L42.9354 32.4455C42.0499 31.8416 40.9826 31.8248 40.0849 32.4012L35.8865 35.0986C33.0908 35.4521 31.7308 33.4354 31.7308 33.4354C31.0612 32.2922 30.994 30.9369 31.3564 29.7997C31.7869 28.4409 32.8299 27.3936 34.1862 27.3936H85.815C87.1445 27.3936 88.207 28.4253 88.6437 29.7937C88.785 30.2322 88.8606 30.7056 88.8606 31.1909Z" fill="#6DC82A"/>
<path d="M88.6446 29.7939C88.6264 29.8538 88.6056 29.9125 88.5837 29.9725C87.8384 32.0168 85.8429 32.8101 84.2877 31.6813L82.4227 30.3272C81.1212 29.3829 79.4611 29.77 78.5194 31.238L78.4401 31.3625C77.5362 32.7741 75.9603 33.1935 74.6734 32.3667L70.497 29.6836C69.5334 29.0641 68.3782 29.1324 67.4659 29.8622L64.1189 32.5368C63.1578 33.3049 61.9332 33.3361 60.9463 32.6183L57.1285 29.8383C56.1527 29.1277 54.9427 29.1516 53.9852 29.8981L50.5088 32.6111C49.5756 33.3373 48.4022 33.3803 47.4374 32.7225L42.9365 29.65C42.0509 29.0449 40.9837 29.0281 40.0859 29.6057L35.8875 32.3018C33.0918 32.6565 31.7318 30.6386 31.7318 30.6386C31.5745 30.369 31.4501 30.0874 31.3574 29.7998C31.788 28.441 32.8309 27.3936 34.1873 27.3936H85.8161C87.1455 27.3937 88.2079 28.4254 88.6446 29.7939Z" fill="#7ED63E"/>
<path d="M87.8198 24.9268C87.8284 25.3258 87.7747 25.7104 87.6698 26.0735C87.1978 27.6889 85.6828 28.8704 83.8874 28.8704C76.8371 28.8704 58.0589 28.7147 55.2267 28.8069C55.1633 28.8093 55.0999 28.8117 55.0377 28.8129C51.4613 28.9458 50.6465 29.509 50.6465 31.382V38.2351C50.6465 38.5874 50.5013 38.9073 50.266 39.1386C50.0306 39.3699 49.7061 39.5124 49.3475 39.5124C48.629 39.5124 48.0472 40.084 48.0472 40.7899V43.7749C48.0472 44.078 48.0106 44.3717 47.9399 44.6544C47.5386 46.2866 46.0394 47.498 44.2391 47.498H44.1427C42.096 47.498 40.4395 45.8648 40.4456 43.854L40.4627 38.4509C40.4639 38.0363 40.6359 37.6599 40.9128 37.3892C41.1909 37.1171 41.5727 36.9494 41.996 36.9494C42.8426 36.9494 43.5293 36.2747 43.5293 35.4431V31.382C43.5293 29.9944 42.3852 28.8704 40.9727 28.8704H36.1886C34.0358 28.8704 32.2244 27.2012 32.1805 25.0862C32.1365 22.9161 33.915 21.1426 36.1142 21.1426H83.8093C85.9633 21.1426 87.7772 22.8118 87.8198 24.9268Z" fill="#FF3501"/>
<path d="M87.8194 24.9268C87.828 25.3258 87.7743 25.7104 87.6694 26.0735C80.2057 26.0664 62.3715 25.9213 59.6174 26.01C55.8801 26.131 55.0373 26.6811 55.0373 28.5864V28.8129C51.4609 28.9458 50.6461 29.509 50.6461 31.382V38.2351C50.6461 38.5874 50.5009 38.9073 50.2656 39.1386C50.0302 39.3699 49.7057 39.5124 49.3471 39.5124C48.6286 39.5124 48.0468 40.084 48.0468 40.7899V43.7749C48.0468 44.078 48.0102 44.3717 47.9394 44.6544C46.1757 44.3752 44.8302 42.8689 44.8363 41.0571L44.8534 35.6551C44.8546 35.2393 45.0266 34.8642 45.3035 34.5934C45.5816 34.3214 45.9634 34.1537 46.3867 34.1537C47.2333 34.1537 47.92 33.479 47.92 32.6474V28.5863C47.92 27.1987 46.7759 26.0747 45.3634 26.0747H40.5794C38.4265 26.0747 36.6151 24.4055 36.5712 22.2905C36.5626 21.8915 36.6163 21.5068 36.7225 21.1426H83.8089C85.9629 21.1426 87.7767 22.8118 87.8194 24.9268Z" fill="#FF5023"/>
<path d="M65.3172 17.2139L56.6141 25.7674C55.742 26.6242 54.7137 27.2341 53.6184 27.5948C50.9178 28.4912 47.8148 27.8812 45.6655 25.7674L36.959 17.2139H65.3172Z" fill="#EEBF00"/>
<path d="M65.3168 17.2139L56.6137 25.7674C55.7416 26.6242 54.7133 27.2341 53.618 27.5948C52.5238 27.2341 51.4956 26.6242 50.6246 25.7674L41.918 17.2139H65.3168Z" fill="#FFD422"/>
<path d="M90 18.4175C90 18.4811 89.9975 18.5433 89.9939 18.6056C89.9463 19.4097 89.595 20.1346 89.051 20.6692C88.4643 21.2456 87.6544 21.6014 86.7591 21.6014H33.2409C31.4515 21.6013 30 20.1754 30 18.4175C30 14.6021 31.8004 11.7297 34.5192 9.56916C36.7257 7.81487 39.5385 6.52902 42.483 5.58603C50.7213 2.95102 60 3.00006 60 3.00006C60 3.00006 90 2.84073 90 18.4175Z" fill="#FFA733"/>
<path d="M89.9993 18.4175C89.9993 18.4811 89.9968 18.5433 89.9932 18.6056H39.8269C38.0375 18.6056 36.5859 17.1797 36.5859 15.4217C36.5859 11.6063 38.3863 8.73392 41.1052 6.57346C41.5418 6.2259 42.0016 5.89767 42.4822 5.58603C50.7206 2.95102 59.9993 3.00006 59.9993 3.00006C59.9993 3.00006 89.9993 2.84073 89.9993 18.4175Z" fill="#FFB655"/>
<path d="M76.1232 8.56933C76.6434 9.11019 76.6188 9.96293 76.0684 10.4741C75.5178 10.9851 74.6498 10.961 74.1296 10.4202C73.6095 9.87946 72.6519 8.00555 73.2025 7.49439C73.753 6.98323 75.603 8.02835 76.1232 8.56933Z" fill="#FFF5CC"/>
<path d="M68.8534 15.2292C69.125 15.9239 68.7719 16.7033 68.0648 16.97C67.3577 17.2368 66.5643 16.8899 66.2928 16.1952C66.0213 15.5006 65.8618 13.4097 66.5688 13.143C67.2759 12.8764 68.5819 14.5345 68.8534 15.2292Z" fill="#FFF5CC"/>
<path d="M61.3698 9.68763C61.3698 10.4318 60.7558 11.035 59.9984 11.035C59.2409 11.035 58.627 10.4317 58.627 9.68763C58.627 8.94346 59.241 6.93555 59.9984 6.93555C60.7559 6.93543 61.3698 8.94346 61.3698 9.68763Z" fill="#FFF5CC"/>
<path d="M53.8286 16.0746C53.6392 16.795 52.8911 17.2283 52.1578 17.0422C51.4244 16.8562 50.9834 16.1212 51.1728 15.4008C51.3622 14.6803 52.4678 12.887 53.2013 13.073C53.9347 13.2591 54.018 15.3542 53.8286 16.0746Z" fill="#FFF5CC"/>
<path d="M46.2838 10.2042C45.9536 10.8737 45.1334 11.1537 44.4516 10.8293C43.77 10.5049 43.485 9.6991 43.8152 9.0293C44.1455 8.35973 45.5891 6.81543 46.2709 7.13997C46.9526 7.46451 46.614 9.53459 46.2838 10.2042Z" fill="#FFF5CC"/>
</svg>
