<svg width="68" height="63" viewBox="0 0 68 63" fill="none" xmlns="http://www.w3.org/2000/svg">
<path opacity="0.4" fill-rule="evenodd" clip-rule="evenodd" d="M25.0935 25.6576C27.8834 22.7555 32.0304 22.4391 35.9508 21.525C40.6727 20.424 45.9125 17.0522 49.8465 19.8862C53.795 22.7307 51.941 28.8278 52.7495 33.6266C53.6306 38.856 57.3008 44.1712 54.7187 48.8033C51.9744 53.7265 45.835 56.2947 40.2008 56.1383C35.0844 55.9962 31.562 51.5673 27.837 48.057C24.6142 45.0199 21.0508 41.9803 20.5124 37.5848C19.9742 33.1902 22.0252 28.8494 25.0935 25.6576Z" fill="url(#paint0_linear_955_171)"/>
<path d="M23.2453 0.201683C22.0743 0.497047 21.2901 0.940094 19.8612 2.12154C18.3894 3.33464 18.1853 3.64056 18.3679 4.31567C18.4539 4.61103 18.6258 4.84311 19.0448 5.15957C19.3456 5.41273 19.7108 5.65536 19.8505 5.71865C20.0761 5.82413 20.0868 5.86633 20.0868 7.48028C20.0868 8.39801 20.1406 9.40014 20.1943 9.70605C20.3662 10.6132 20.9033 11.5521 21.6553 12.2905L22.3429 12.9551V13.9572V14.9698H21.4942C20.4091 14.9698 19.4422 15.2547 18.7762 15.7821C18.5076 16.0036 17.6374 16.8792 16.8639 17.7336L15.4458 19.2948H10.5254H5.60505L5.31498 18.7041C4.84229 17.7653 3.90763 17.2062 2.79034 17.1956C1.73751 17.1851 0.630965 17.8707 0.201238 18.8201C-0.0458544 19.337 -0.0673407 20.5185 0.147523 21.0248C0.362386 21.5206 1.02846 22.2168 1.54413 22.4911C2.16724 22.8181 3.41344 22.8075 4.03655 22.4911C4.63817 22.1746 5.14309 21.6577 5.39019 21.1197L5.59431 20.6661H9.89157H14.1888L12.4807 22.5333C11.5353 23.567 10.332 24.8856 9.80563 25.4658C9.26847 26.046 8.80651 26.6262 8.76354 26.7527C8.65611 27.0903 9.3007 27.7443 10.1172 28.1135C10.7188 28.3878 10.9122 28.4194 11.8683 28.4194C13.5013 28.4194 13.7484 28.2717 16.359 25.7506L18.4754 23.6831V24.4953C18.4754 25.392 18.658 25.7295 19.1522 25.7295C19.7001 25.7295 19.7645 25.4974 19.7645 23.5459C19.7645 21.9425 19.7431 21.7316 19.5712 21.5839C19.12 21.183 18.9695 21.2885 16.1119 24.0839C14.6078 25.5607 13.2005 26.8477 12.9963 26.9532C12.5344 27.1852 11.2774 27.2169 10.7725 27.0059C10.5791 26.9321 10.418 26.8371 10.418 26.7949C10.418 26.7633 12.4592 24.4953 14.9623 21.7738C18.2605 18.1661 19.6249 16.742 19.9794 16.5522C20.4091 16.3201 20.6133 16.2884 21.752 16.2568C22.4611 16.2462 23.1379 16.204 23.2668 16.1829C23.6106 16.1091 23.7395 15.6766 23.7395 14.569V13.5458H25.0824H26.4253V14.7167C26.4253 16.2462 26.3716 16.204 28.2516 16.2568C30.1532 16.3095 30.2176 16.3412 31.9903 18.2716C35.5892 22.1641 39.7468 26.7422 39.7468 26.8055C39.7468 26.8371 39.4997 26.9532 39.1989 27.0481C38.5221 27.2696 37.7056 27.2169 37.104 26.911C36.8677 26.7844 35.5033 25.5185 34.053 24.0945C32.6026 22.6598 31.3134 21.4467 31.1738 21.394C30.9159 21.2991 30.5399 21.4256 30.3788 21.6577C30.3358 21.721 30.2928 24.2421 30.3036 27.2591C30.3036 31.584 30.3788 34.6643 30.6581 41.8163C30.8622 46.8058 31.0556 50.9725 31.0986 51.078C31.1416 51.173 31.3779 51.3417 31.625 51.4472C32.087 51.6582 32.7638 52.3228 32.7638 52.5759C32.7638 52.7131 32.4522 52.7342 30.83 52.7342H28.8962V51.6687C28.8962 50.4556 26.6187 33.9469 26.3716 33.3562C25.9311 32.333 24.1907 32.3435 23.7395 33.3668C23.4709 33.9786 21.1612 50.4767 21.1612 51.7742V52.7342H19.2274C18.1638 52.7342 17.2936 52.7025 17.2936 52.6498C17.2936 52.6076 17.3903 52.4282 17.5085 52.2384C17.7126 51.9008 18.0027 51.6687 18.615 51.3734C18.8621 51.2468 18.9803 51.1097 19.034 50.8354C19.1307 50.3818 19.7645 33.4301 19.7645 31.4047C19.7645 29.8224 19.7001 29.6325 19.1307 29.6325C18.5613 29.6325 18.4754 29.8646 18.4646 31.4891C18.4646 32.2908 18.3035 36.8689 18.1208 41.6475C17.8308 49.0632 17.7556 50.3502 17.6159 50.3923C17.53 50.4134 17.1862 50.7088 16.8531 51.0358C16.4342 51.4578 16.1978 51.8059 16.0689 52.1751C15.8111 52.9346 15.8111 53.5148 16.0474 53.7785C16.2408 53.9895 16.359 54 19.1844 54H22.1173L22.3322 53.7257C22.5363 53.4726 22.5578 53.3038 22.5578 51.9536C22.547 50.635 22.6867 49.5274 23.6965 42.2382C24.3304 37.7128 24.889 33.968 24.9427 33.9153C24.9965 33.852 25.0609 33.852 25.1254 33.9153C25.1791 33.968 25.7592 37.8183 26.4146 42.4703C27.4244 49.6434 27.6071 51.1308 27.6071 52.2911C27.6071 53.4726 27.6285 53.673 27.8004 53.8207C27.9723 53.9789 28.3483 54 30.9159 54C33.6984 54 33.8488 53.9895 34.053 53.789C34.6223 53.2299 33.8703 51.3206 32.8175 50.6561L32.3555 50.3607L32.2911 49.4113C32.2588 48.8839 32.2051 47.7868 32.1729 46.964L32.1084 45.4556H35.0413H37.985L38.1246 45.8459C38.3287 46.3733 39.0593 47.1328 39.6287 47.386C40.6385 47.8185 41.9707 47.5758 42.7442 46.8163C44.3664 45.2235 43.5607 42.5441 41.3261 42.08C40.5955 41.9323 39.822 42.0905 39.1989 42.4914C38.737 42.7973 38.1783 43.5252 38.0709 43.9471L38.0064 44.1897H35.0628H32.1192L32.0762 43.9471C31.958 43.3458 31.582 30.7401 31.582 27.3751V23.5776L33.7629 25.6873C36.4272 28.2823 36.6528 28.4194 38.2965 28.4194C39.2312 28.4194 39.446 28.3878 39.9617 28.1452C40.2947 27.9975 40.7459 27.7127 40.9608 27.5228C41.7021 26.8899 41.8632 27.1008 36.5454 21.2885C33.6447 18.1134 31.5713 15.9298 31.2275 15.6872C30.5077 15.1914 29.702 14.9698 28.5954 14.9698H27.7145V13.9677V12.9656L28.4772 12.2272L29.2508 11.4888H32.5597H35.8578L35.933 11.7947C36.019 12.2166 36.771 13.0289 37.3189 13.3137C37.942 13.6407 39.1882 13.6407 39.8113 13.3137C42.583 11.8685 41.4657 7.79674 38.3717 8.02881C37.3081 8.10265 36.3842 8.73557 35.9652 9.66386L35.7611 10.1175H32.839H29.9168L29.9491 7.05833C29.992 3.72495 29.9383 3.303 29.3582 2.33252C28.2409 0.465401 25.6733 -0.431236 23.2453 0.201683ZM26.2749 1.52027C27.6285 1.91057 28.6814 3.2608 28.6814 4.61103C28.6814 4.91695 28.6491 4.95914 28.4987 4.89585C27.9723 4.67433 27.0054 4.71652 26.0923 5.00134C24.0081 5.6659 21.3545 5.35999 20.0546 4.30512L19.6571 3.97812L20.8066 3.03928C22.0314 2.03716 22.9015 1.55192 23.7932 1.37259C24.4593 1.24601 25.5551 1.3093 26.2749 1.52027ZM28.2624 6.39376L28.7029 6.78407L28.6599 8.21869C28.6277 9.59002 28.6169 9.67441 28.2731 10.3495C27.6608 11.5626 26.6402 12.2272 25.2436 12.3116C24.5882 12.3432 24.3196 12.3116 23.7932 12.1112C22.9338 11.7947 22.1388 11.0563 21.7413 10.1913C21.4727 9.59002 21.4405 9.41069 21.3975 7.96552L21.3438 6.39376L21.8702 6.4887C22.1603 6.54145 23.0949 6.58364 23.9544 6.57309C25.351 6.56254 25.5873 6.54145 26.2642 6.28828C27.3492 5.89798 27.7252 5.91908 28.2624 6.39376ZM39.1345 9.42124C39.7146 9.66386 39.9939 10.0436 40.0476 10.666C40.0799 11.1301 40.0476 11.2884 39.8328 11.5943C39.1774 12.5437 37.8668 12.5331 37.2759 11.5626C36.8247 10.8453 37.1255 9.85373 37.9205 9.46343C38.3717 9.23136 38.6725 9.23136 39.1345 9.42124ZM3.60682 18.7146C4.28364 19.1471 4.4985 20.1282 4.04729 20.7822C3.19858 22.0269 1.2863 21.4678 1.2863 19.9699C1.2863 18.8201 2.63994 18.0923 3.60682 18.7146ZM41.5839 43.5884C42.5508 44.2214 42.5293 45.4978 41.5409 46.0885C40.8856 46.4788 39.908 46.2678 39.489 45.6454C38.8444 44.675 39.5857 43.3458 40.7674 43.3458C41.0575 43.3458 41.3476 43.4302 41.5839 43.5884Z" fill="#5359C7"/>
<path d="M22.7305 8.02906C22.6338 8.15565 22.5586 8.33498 22.5586 8.42991C22.5586 8.52485 22.6338 8.70418 22.7305 8.83076C22.9453 9.13668 23.3106 9.09448 23.5147 8.73583C23.8478 8.15565 23.1172 7.49108 22.7305 8.02906Z" fill="#5359C7"/>
<path d="M26.6853 8.07118C26.4704 8.3771 26.5671 8.79904 26.8894 8.99947C27.1257 9.14715 27.4158 8.97837 27.5447 8.60917C27.6629 8.28216 27.3836 7.79692 27.072 7.79692C26.9538 7.79692 26.7819 7.9235 26.6853 8.07118Z" fill="#5359C7"/>
<path d="M7.57069 5.04336C6.61454 5.30707 5.80881 5.96109 5.41131 6.79444C5.09976 7.43791 5.06753 8.46113 5.33611 9.23119C5.5832 9.9485 6.43191 10.7607 7.17319 11.0034C7.9467 11.2565 8.88135 11.2354 9.54743 10.9506C10.2028 10.6764 10.944 9.9274 11.2341 9.25228L11.4382 8.74595H13.1679C14.7041 8.74595 14.919 8.72485 15.0694 8.55607C15.295 8.31345 15.3058 7.85986 15.0802 7.64888C14.9405 7.51175 14.6182 7.4801 13.1786 7.4801H11.4382L11.2448 6.96322C11.0192 6.31975 10.2565 5.53914 9.5904 5.24378C9.0425 5.01171 8.06487 4.90622 7.57069 5.04336ZM8.7202 6.31975C9.20365 6.45688 9.71932 6.86828 9.94493 7.30078C10.1598 7.70163 10.1598 8.53497 9.94493 8.94637C9.48297 9.81136 8.22602 10.17 7.35582 9.67423C6.00218 8.89363 6.2063 6.88938 7.6996 6.37249C8.20453 6.19316 8.22602 6.19316 8.7202 6.31975Z" fill="#5359C7"/>
<path d="M16.8636 7.58474C16.4231 8.01724 16.7561 8.85059 17.3685 8.85059C17.7015 8.85059 18.1527 8.39699 18.1527 8.05943C18.1527 7.70078 17.7982 7.37377 17.4007 7.37377C17.2181 7.37377 16.9817 7.46871 16.8636 7.58474Z" fill="#5359C7"/>
<path d="M22.2575 21.1514C21.9889 21.3308 21.9352 21.7843 22.1608 22.0692C22.3434 22.3012 23.1599 22.6282 23.9549 22.7865C25.2333 23.0291 27.3067 22.6915 27.9191 22.1325C28.2521 21.8265 28.1877 21.3097 27.8009 21.0987C27.5431 20.951 27.4786 20.951 27.1026 21.1303C25.8027 21.7527 24.5028 21.7527 23.0739 21.1514C22.5798 20.9405 22.5583 20.9405 22.2575 21.1514Z" fill="#5359C7"/>
<path d="M22.2575 24.9497C22.0212 25.1079 21.946 25.5509 22.1071 25.8041C22.2361 26.0045 23.3211 26.4581 23.955 26.5742C25.1475 26.7957 26.6837 26.6058 27.5432 26.1206C28.0696 25.8357 28.1985 25.6353 28.1018 25.2661C27.9729 24.7703 27.6291 24.7176 26.7912 25.0551C26.1681 25.3083 25.8995 25.3505 25.083 25.3505C24.2773 25.3505 23.9979 25.3083 23.4071 25.0657C22.5798 24.7281 22.5691 24.7281 22.2575 24.9497Z" fill="#5359C7"/>
<path d="M18.6792 27.0793C18.1636 27.5012 18.4966 28.3662 19.1734 28.3662C19.6032 28.3662 19.904 28.0498 19.904 27.6067C19.904 27.227 19.5602 26.8894 19.1734 26.8894C19.0338 26.8894 18.8189 26.9738 18.6792 27.0793Z" fill="#5359C7"/>
<path d="M46.333 27.2908C46.0322 27.3962 45.6025 27.6178 45.3876 27.776C44.9364 28.1135 44.41 28.8731 44.3133 29.3266L44.2381 29.6326H40.5102C37.0294 29.6326 36.7608 29.6431 36.5997 29.8224C36.3419 30.0967 36.3741 30.5397 36.6534 30.7296C36.8575 30.8773 37.4162 30.8984 40.5639 30.8984H44.2273L44.4207 31.3942C44.6571 31.9955 45.2157 32.6178 45.8496 32.9765C46.2041 33.1875 46.5156 33.2613 47.1065 33.3035C48.2023 33.3668 48.8684 33.1347 49.5774 32.4385C50.2328 31.795 50.4906 31.1621 50.4906 30.1705C50.4906 28.0714 48.342 26.584 46.333 27.2908ZM47.8263 28.4722C49.0295 28.7992 49.5667 30.1178 48.9328 31.1727C48.0089 32.7233 45.5487 32.0799 45.5487 30.2866C45.5487 29.4216 46.0644 28.7043 46.8379 28.4933C47.3429 28.3562 47.3643 28.3456 47.8263 28.4722Z" fill="#5359C7"/>
<path d="M33.7418 29.8014C33.4517 30.1706 33.4625 30.4238 33.7848 30.7403C34.2897 31.2466 35.0202 30.9407 35.0202 30.2339C35.0202 29.5377 34.1823 29.2529 33.7418 29.8014Z" fill="#5359C7"/>
<path d="M6.04608 34.3368C5.40149 34.5689 4.6817 35.244 4.32717 35.9297C4.09083 36.4254 4.03711 36.6681 4.03711 37.2799C4.0586 39.8749 7.0452 41.2884 9.1616 39.7061C9.53761 39.4213 9.75247 39.1365 10.0103 38.5985L10.3648 37.8601H11.7722C12.9969 37.8601 13.201 37.839 13.3514 37.6702C13.5985 37.4065 13.577 37.0584 13.3192 36.8052C13.1258 36.6153 12.9647 36.5942 11.7185 36.5942H10.3433L10.15 36.0984C9.88139 35.4128 9.0112 34.5689 8.33438 34.3473C7.68979 34.1258 6.65844 34.1258 6.04608 34.3368ZM8.10877 35.6765C9.19383 36.2778 9.33349 37.839 8.38809 38.6301C7.91539 39.0204 7.31377 39.1681 6.76587 39.0204C6.2502 38.8833 5.65933 38.398 5.47669 37.9656C5.28332 37.5014 5.39075 36.5942 5.68081 36.1828C6.20723 35.455 7.30303 35.2229 8.10877 35.6765Z" fill="#5359C7"/>
<path d="M15.2417 36.6799C14.9409 36.9225 14.9194 37.4499 15.1987 37.7558C15.4888 38.0723 16.0367 38.0407 16.3267 37.682C16.8854 36.9858 15.9507 36.1208 15.2417 36.6799Z" fill="#5359C7"/>
<defs>
<linearGradient id="paint0_linear_955_171" x1="25.9797" y1="24.3608" x2="55.7946" y2="47.6547" gradientUnits="userSpaceOnUse">
<stop stop-color="#8186DC"/>
<stop offset="1" stop-color="#08DBB1" stop-opacity="0"/>
</linearGradient>
</defs>
</svg>
