<svg width="92" height="100" viewBox="0 0 92 100" fill="none" xmlns="http://www.w3.org/2000/svg">
<path d="M42.2677 0.373489C40.1384 0.920456 38.7124 1.74091 36.1143 3.92879C33.438 6.17527 33.0669 6.74177 33.3989 7.99199C33.5552 8.53896 33.8678 8.96872 34.6296 9.55476C35.1766 10.0236 35.8408 10.4729 36.0947 10.5901C36.5049 10.7854 36.5245 10.8636 36.5245 13.8524C36.5245 15.5519 36.6222 17.4077 36.7198 17.9742C37.0324 19.6542 38.0091 21.3927 39.3765 22.7602L40.6267 23.9908V25.8466V27.7219H39.0835C37.1105 27.7219 35.3524 28.2494 34.1413 29.2261C33.6529 29.6363 32.0706 31.2577 30.6641 32.84L28.0855 35.7311H19.1387H10.1918L9.66439 34.6372C8.80487 32.8986 7.10536 31.8633 5.07376 31.8437C3.15937 31.8242 1.1473 33.094 0.365918 34.8521C-0.0833783 35.8093 -0.122448 37.9971 0.268245 38.9348C0.658937 39.8529 1.87008 41.1422 2.80774 41.6501C3.94075 42.2557 6.20677 42.2362 7.33977 41.6501C8.43371 41.0641 9.35184 40.1069 9.80113 39.1106L10.1723 38.2706H17.9861H25.8L22.694 41.7283C20.9749 43.6427 18.7871 46.0845 17.8299 47.1589C16.8531 48.2333 16.0131 49.3077 15.935 49.5421C15.7397 50.1672 16.9117 51.3784 18.3964 52.0621C19.4903 52.57 19.8419 52.6286 21.5805 52.6286C24.5498 52.6286 24.9991 52.3551 29.746 47.6863L33.5943 43.8575V45.3617C33.5943 47.0221 33.9264 47.6472 34.825 47.6472C35.8212 47.6472 35.9384 47.2175 35.9384 43.6036C35.9384 40.6343 35.8994 40.2436 35.5868 39.9701C34.7664 39.2278 34.4929 39.4232 29.2967 44.5998C26.5618 47.3347 24.0028 49.7179 23.6316 49.9133C22.7917 50.343 20.5061 50.4016 19.588 50.0109C19.2364 49.8742 18.9433 49.6984 18.9433 49.6202C18.9433 49.5616 22.6549 45.3617 27.2065 40.3218C33.2036 33.6409 35.6845 31.0038 36.3291 30.6521C37.1105 30.2224 37.4817 30.1638 39.5523 30.1052C40.8416 30.0856 42.0723 30.0075 42.3067 29.9684C42.9318 29.8317 43.1662 29.0308 43.1662 26.9796V25.0848H45.6081H48.0499V27.2531C48.0499 30.0856 47.9522 30.0075 51.3708 30.1052C54.8284 30.2028 54.9456 30.2614 58.1688 33.8363C64.7129 41.0445 72.2728 49.5226 72.2728 49.6398C72.2728 49.6984 71.8235 49.9133 71.2766 50.0891C70.0459 50.4993 68.5612 50.4016 67.4673 49.8351C67.0375 49.6007 64.5566 47.2566 61.9195 44.6194C59.2823 41.9627 56.9381 39.7162 56.6842 39.6185C56.2154 39.4427 55.5317 39.6771 55.2386 40.1069C55.1605 40.2241 55.0824 44.8929 55.1019 50.4798C55.1019 58.489 55.2386 64.1931 55.7465 77.4375C56.1177 86.6774 56.4693 94.3936 56.5475 94.5889C56.6256 94.7647 57.0554 95.0773 57.5047 95.2726C58.3446 95.6633 59.5753 96.894 59.5753 97.3628C59.5753 97.6168 59.0088 97.6558 56.0591 97.6558H52.5429V95.6829C52.5429 93.4364 48.4015 62.8647 47.9522 61.7708C47.1513 59.8759 43.9867 59.8954 43.1662 61.7903C42.6779 62.9233 38.4779 93.4754 38.4779 95.8782V97.6558H34.9617C33.0278 97.6558 31.4455 97.5972 31.4455 97.4996C31.4455 97.4214 31.6213 97.0893 31.8362 96.7377C32.2073 96.1126 32.7348 95.6829 33.8482 95.1359C34.2975 94.9015 34.5124 94.6475 34.6101 94.1396C34.7859 93.2996 35.9384 61.9075 35.9384 58.1569C35.9384 55.2267 35.8212 54.875 34.7859 54.875C33.7506 54.875 33.5943 55.3048 33.5748 58.3131C33.5748 59.7978 33.2817 68.2758 32.9496 77.125C32.4222 90.8578 32.2855 93.241 32.0315 93.3192C31.8752 93.3582 31.2501 93.9052 30.6446 94.5108C29.8827 95.2922 29.453 95.9368 29.2185 96.6205C28.7497 98.027 28.7497 99.1014 29.1795 99.5898C29.5311 99.9805 29.746 100 34.8836 100H40.2165L40.6072 99.4921C40.9784 99.0233 41.0174 98.7107 41.0174 96.2103C40.9979 93.7685 41.2519 91.7173 43.0881 78.2189C44.2407 69.8386 45.2565 62.9038 45.3541 62.8061C45.4518 62.6889 45.569 62.6889 45.6862 62.8061C45.7839 62.9038 46.8388 70.0339 48.0304 78.6487C49.8666 91.9322 50.1987 94.6866 50.1987 96.8354C50.1987 99.0233 50.2378 99.3944 50.5503 99.6679C50.8629 99.9609 51.5466 100 56.2154 100C61.2748 100 61.5483 99.9805 61.9195 99.6093C62.9548 98.574 61.5874 95.0382 59.673 93.8075L58.833 93.2606L58.7158 91.5024C58.6572 90.5257 58.5595 88.4941 58.5009 86.9704L58.3837 84.177H63.7167H69.0691L69.3231 84.8997C69.6942 85.8765 71.0226 87.283 72.0579 87.7518C73.8942 88.5527 76.3165 88.1034 77.723 86.6969C80.6727 83.7472 79.2076 78.7854 75.1444 77.9259C73.816 77.6524 72.4096 77.9454 71.2766 78.6877C70.4366 79.2542 69.4208 80.6021 69.2254 81.3835L69.1082 81.8328H63.7557H58.4032L58.3251 81.3835C58.1102 80.27 57.4265 56.9262 57.4265 50.6946V43.6622L61.392 47.5691C66.2366 52.3746 66.6469 52.6286 69.6356 52.6286C71.3352 52.6286 71.7258 52.57 72.6635 52.1207C73.2691 51.8472 74.0895 51.3198 74.4802 50.9681C75.8281 49.7961 76.1211 50.1867 66.4515 39.4232C61.1772 33.5433 57.407 29.4996 56.7819 29.0503C55.4731 28.1322 54.008 27.7219 51.9959 27.7219H50.3941V25.8662V24.0104L51.781 22.6429L53.1875 21.2755H59.2042H65.2013L65.338 21.842C65.4943 22.6234 66.8617 24.1276 67.858 24.655C68.991 25.2606 71.257 25.2606 72.39 24.655C77.43 21.9788 75.3984 14.4384 69.7724 14.8682C67.8385 15.0049 66.1585 16.177 65.3966 17.896L65.0255 18.736H59.7121H54.3986L54.4573 13.071C54.5354 6.89805 54.4377 6.11666 53.3828 4.31948C51.3512 0.861855 46.6825 -0.798592 42.2677 0.373489ZM47.7764 2.81532C50.2378 3.53809 52.1522 6.03853 52.1522 8.53896C52.1522 9.10546 52.0936 9.18359 51.8201 9.06639C50.8629 8.65617 49.1048 8.7343 47.4443 9.26173C43.6546 10.4924 38.8296 9.92591 36.4659 7.97245L35.7431 7.36687L37.8333 5.6283C40.0602 3.77251 41.6425 2.87392 43.2639 2.54183C44.4751 2.30741 46.4676 2.42462 47.7764 2.81532ZM51.3903 11.8403L52.1912 12.5631L52.1131 15.2198C52.0545 17.7593 52.035 17.9156 51.4099 19.1658C50.2964 21.4123 48.4406 22.6429 45.9011 22.7992C44.7095 22.8578 44.2211 22.7992 43.2639 22.4281C41.7012 21.842 40.2556 20.4746 39.5328 18.8728C39.0444 17.7593 38.9858 17.4272 38.9077 14.751L38.81 11.8403L39.7672 12.0161C40.2947 12.1138 41.9942 12.1919 43.5569 12.1724C46.0964 12.1529 46.5262 12.1138 47.7569 11.645C49.7299 10.9222 50.4136 10.9613 51.3903 11.8403ZM71.1593 17.4467C72.2142 17.896 72.7221 18.5993 72.8198 19.7518C72.8784 20.6113 72.8198 20.9044 72.4291 21.4709C71.2375 23.229 68.8543 23.2094 67.7799 21.4123C66.9594 20.0839 67.5064 18.2477 68.9519 17.5249C69.7724 17.0951 70.3194 17.0951 71.1593 17.4467ZM6.55839 34.6567C7.78907 35.4576 8.17976 37.2744 7.35931 38.4855C5.81607 40.7906 2.33891 39.7553 2.33891 36.9813C2.33891 34.8521 4.80027 33.5042 6.55839 34.6567ZM75.6132 80.7193C77.3714 81.8914 77.3323 84.2551 75.5351 85.349C74.3435 86.0718 72.5658 85.6811 71.804 84.5286C70.6319 82.7314 71.9798 80.27 74.1286 80.27C74.656 80.27 75.1835 80.4263 75.6132 80.7193Z" fill="#5359C7"/>
<path d="M41.3301 14.8683C41.1543 15.1027 41.0176 15.4348 41.0176 15.6106C41.0176 15.7864 41.1543 16.1185 41.3301 16.3529C41.7208 16.9194 42.385 16.8413 42.7562 16.1771C43.3617 15.1027 42.0334 13.872 41.3301 14.8683Z" fill="#5359C7"/>
<path d="M48.5195 14.946C48.1289 15.5125 48.3047 16.2939 48.8907 16.665C49.3205 16.9385 49.8479 16.626 50.0823 15.9423C50.2972 15.3367 49.7893 14.4381 49.2228 14.4381C49.0079 14.4381 48.6954 14.6725 48.5195 14.946Z" fill="#5359C7"/>
<path d="M13.7668 9.33955C12.0283 9.82791 10.5632 11.0391 9.84038 12.5823C9.27388 13.7739 9.21527 15.6688 9.70364 17.0948C10.1529 18.4231 11.6962 19.9273 13.0441 20.3766C14.4505 20.8454 16.1501 20.8064 17.3612 20.2789C18.5528 19.771 19.9007 18.3841 20.4281 17.1339L20.7993 16.1962H23.9444C26.7378 16.1962 27.1285 16.1571 27.402 15.8446C27.8122 15.3953 27.8318 14.5553 27.4215 14.1646C27.1676 13.9106 26.5815 13.852 23.9639 13.852H20.7993L20.4477 12.8948C20.0374 11.7032 18.6505 10.2577 17.4393 9.71071C16.4431 9.28094 14.6654 9.0856 13.7668 9.33955ZM15.857 11.7032C16.7361 11.9572 17.6738 12.719 18.084 13.52C18.4747 14.2623 18.4747 15.8055 18.084 16.5674C17.244 18.1692 14.9584 18.8334 13.3761 17.9152C10.9148 16.4697 11.2859 12.7581 14.0013 11.8009C14.9194 11.4688 14.9584 11.4688 15.857 11.7032Z" fill="#5359C7"/>
<path d="M30.6632 14.0474C29.8622 14.8484 30.4678 16.3916 31.5813 16.3916C32.1869 16.3916 33.0073 15.5516 33.0073 14.9265C33.0073 14.2623 32.3627 13.6568 31.6399 13.6568C31.3078 13.6568 30.878 13.8326 30.6632 14.0474Z" fill="#5359C7"/>
<path d="M40.4697 39.1692C39.9814 39.5013 39.8837 40.3413 40.2939 40.8687C40.626 41.2985 42.1106 41.904 43.5562 42.1971C45.8808 42.6464 49.651 42.0212 50.7645 40.9859C51.3701 40.4194 51.2528 39.4622 50.5496 39.0715C50.0808 38.798 49.9636 38.798 49.2798 39.1301C46.9162 40.2827 44.5525 40.2827 41.9544 39.1692C41.0558 38.7785 41.0167 38.7785 40.4697 39.1692Z" fill="#5359C7"/>
<path d="M40.4703 46.2014C40.0405 46.4945 39.9037 47.3149 40.1968 47.7837C40.4312 48.1549 42.4042 48.9949 43.5567 49.2098C45.7251 49.62 48.5185 49.2684 50.0813 48.3698C51.0385 47.8423 51.2729 47.4712 51.0971 46.7875C50.8627 45.8693 50.2376 45.7717 48.7139 46.3968C47.5809 46.8656 47.0925 46.9437 45.6079 46.9437C44.1428 46.9437 43.6349 46.8656 42.5605 46.4163C41.0563 45.7912 41.0368 45.7912 40.4703 46.2014Z" fill="#5359C7"/>
<path d="M33.9651 50.148C33.0275 50.9294 33.6331 52.5312 34.8637 52.5312C35.6451 52.5312 36.1921 51.9452 36.1921 51.1248C36.1921 50.4215 35.567 49.7964 34.8637 49.7964C34.6098 49.7964 34.2191 49.9527 33.9651 50.148Z" fill="#5359C7"/>
<path d="M84.2467 50.5382C83.6997 50.7336 82.9183 51.1438 82.5276 51.4368C81.7072 52.0619 80.75 53.4684 80.5741 54.3084L80.4374 54.8749H73.6589C67.3297 54.8749 66.8413 54.8944 66.5483 55.2265C66.0795 55.7344 66.1381 56.5549 66.646 56.9065C67.0171 57.18 68.0329 57.219 73.7566 57.219H80.4179L80.7695 58.1372C81.1993 59.2506 82.2151 60.4032 83.3676 61.0674C84.0122 61.4581 84.5787 61.5948 85.6531 61.6729C87.6457 61.7901 88.8568 61.3604 90.1461 60.0711C91.3377 58.8795 91.8065 57.7074 91.8065 55.8712C91.8065 51.9838 87.8996 49.2294 84.2467 50.5382ZM86.962 52.7261C89.1498 53.3317 90.1266 55.7735 88.974 57.7269C87.2941 60.5985 82.8206 59.4069 82.8206 56.086C82.8206 54.4842 83.7583 53.1558 85.1648 52.7652C86.0829 52.5112 86.122 52.4917 86.962 52.7261Z" fill="#5359C7"/>
<path d="M61.3539 55.1873C60.8265 55.871 60.846 56.3399 61.432 56.9259C62.3502 57.8636 63.6785 57.2971 63.6785 55.9882C63.6785 54.699 62.1548 54.1715 61.3539 55.1873Z" fill="#5359C7"/>
<path d="M10.9928 63.5871C9.82074 64.0169 8.51192 65.2671 7.86728 66.5368C7.43752 67.455 7.33984 67.9043 7.33984 69.0373C7.37891 73.8428 12.8095 76.4604 16.6579 73.5302C17.3416 73.0028 17.7323 72.4754 18.2011 71.4791L18.8457 70.1117H21.4048C23.6317 70.1117 24.0029 70.0726 24.2764 69.76C24.7256 69.2717 24.6866 68.627 24.2177 68.1582C23.8661 67.8066 23.5731 67.7675 21.3071 67.7675H18.8067L18.455 66.8494C17.9667 65.5796 16.3844 64.0169 15.1537 63.6066C13.9816 63.1964 12.1063 63.1964 10.9928 63.5871ZM14.7435 66.068C16.7165 67.1815 16.9704 70.0726 15.2514 71.5377C14.3918 72.2605 13.2979 72.534 12.3016 72.2605C11.364 72.0065 10.2896 71.1079 9.95748 70.307C9.60586 69.4475 9.8012 67.7675 10.3286 67.0057C11.2858 65.6578 13.2784 65.228 14.7435 66.068Z" fill="#5359C7"/>
<path d="M27.7152 67.9245C27.1682 68.3738 27.1291 69.3505 27.637 69.917C28.1645 70.503 29.1607 70.4444 29.6882 69.7803C30.704 68.491 29.0044 66.8891 27.7152 67.9245Z" fill="#5359C7"/>
</svg>
