<svg width="61" height="48" viewBox="0 0 61 48" fill="none" xmlns="http://www.w3.org/2000/svg">
<path d="M48.8276 5.59764C42.8866 -0.226978 33.3014 -0.299614 27.2687 5.37832C21.2359 -0.299614 11.6506 -0.226978 5.7098 5.59764C-0.306912 11.4965 -0.306912 21.0604 5.7098 26.9593L25.0619 45.9325C26.2807 47.1274 28.2561 47.128 29.4749 45.9331C34.9685 40.5471 48.8209 26.9659 48.825 26.9618C48.8258 26.961 48.8268 26.9602 48.8276 26.9593C54.8442 21.0604 54.8442 11.4965 48.8276 5.59764Z" fill="#C8C8C8"/>
<path d="M59.8029 21.4662H53.6789C54.2428 19.816 54.5366 18.0692 54.5366 16.2781C54.5366 11.93 52.8095 7.84211 49.6736 4.76746C46.5801 1.73458 42.4676 0.0417746 38.0937 0.000704126C34.101 -0.0337951 30.2968 1.30557 27.2684 3.80125C24.281 1.33948 20.5406 0 16.6057 0C16.5516 0 16.4972 0.000234749 16.4431 0.000704126C12.0691 0.0417746 7.95661 1.73458 4.86316 4.76746C1.7271 7.84223 0 11.9302 0 16.2781C0 20.6263 1.7271 24.7142 4.86304 27.7888L9.06181 31.9053C9.52919 32.3634 10.2871 32.3634 10.7546 31.9053C11.2219 31.4471 11.2219 30.704 10.7546 30.2457L6.55578 26.1292C3.8719 23.4979 2.39376 19.9994 2.39376 16.2781C2.39376 12.5569 3.8719 9.05839 6.55578 6.42706C9.20316 3.83152 12.7227 2.38267 16.4659 2.34759C20.2055 2.30851 23.746 3.68942 26.4395 6.22441C26.9027 6.66034 27.634 6.66034 28.0973 6.22441C30.7908 3.6893 34.3329 2.31051 38.0709 2.34759C41.8142 2.38267 45.3337 3.83152 47.9811 6.42706C50.665 9.05839 52.1431 12.5569 52.1431 16.2781C52.1431 18.0847 51.7937 19.8384 51.1283 21.4662H41.0799L39.1346 19.4646C38.6829 18.9999 37.934 18.9773 37.4539 19.4139L35.1983 21.4661H32.2383C31.7727 21.4661 31.3494 21.7309 31.153 22.1448L30.5367 23.4443L28.7038 12.5382C28.6085 11.9717 28.1092 11.5559 27.5234 11.5556C27.5232 11.5556 27.5231 11.5556 27.5228 11.5556C26.9374 11.5556 26.438 11.9708 26.3421 12.5369L24.543 23.1689L22.8076 21.7407C22.592 21.5633 22.3195 21.466 22.038 21.466H20.1328L18.782 20.3624C18.3382 19.9999 17.6935 19.9997 17.2495 20.3624L15.8987 21.466H14.087C13.426 21.466 12.8901 21.9915 12.8901 22.6395C12.8901 23.2874 13.426 23.8129 14.087 23.8129H16.332C16.612 23.8129 16.8831 23.7167 17.0982 23.541L18.0158 22.7913L18.9333 23.541C19.1484 23.7167 19.4195 23.8129 19.6995 23.8129H21.6022L24.6107 26.289C24.9398 26.56 25.3919 26.6371 25.7951 26.4909C26.1982 26.3448 26.4906 25.9981 26.5609 25.5823L27.5186 19.9226L28.8053 27.5786C28.8906 28.0866 29.3038 28.4807 29.8241 28.5503C29.8786 28.5576 29.9329 28.5612 29.9868 28.5612C30.4472 28.5612 30.8734 28.3004 31.0716 27.8826L33.0015 23.813H35.6679C35.9699 23.813 36.2608 23.7011 36.4821 23.4997L38.2162 21.9219L39.7005 23.4491C39.9264 23.6815 40.2395 23.8131 40.567 23.8131H49.89C49.3464 24.6388 48.71 25.4142 47.9847 26.1257C47.9824 26.128 47.9801 26.1301 47.9778 26.1323C47.9474 26.1622 44.4949 29.5472 40.362 33.5992L28.6284 45.103C27.8785 45.8383 26.6582 45.8381 25.908 45.1024L18.3716 37.7135C17.9042 37.2554 17.1464 37.2554 16.6789 37.7135C16.2115 38.1717 16.2115 38.9147 16.6789 39.3731L24.2154 46.762C25.0573 47.5873 26.1629 48 27.2687 48C28.3742 48 29.4795 47.5875 30.321 46.7626L42.0546 35.2588C48.8463 28.6001 49.5825 27.8783 49.6659 27.7964C49.6686 27.7939 49.6712 27.7913 49.6737 27.7889C50.8857 26.6008 51.8861 25.2607 52.6588 23.8132H59.8031C60.4642 23.8132 61 23.2878 61 22.6398C61 21.9918 60.4639 21.4662 59.8029 21.4662Z" fill="#3E4149"/>
<path d="M13.7164 35.9826C14.3774 35.9826 14.9133 35.4573 14.9133 34.8092C14.9133 34.1611 14.3774 33.6357 13.7164 33.6357C13.0554 33.6357 12.5195 34.1611 12.5195 34.8092C12.5195 35.4573 13.0554 35.9826 13.7164 35.9826Z" fill="#3E4149"/>
</svg>
