<svg width="347" height="162" viewBox="0 0 347 162" fill="none" xmlns="http://www.w3.org/2000/svg">
<g filter="url(#filter0_d_1029_316)">
<path d="M46 52C46 48.6863 48.6863 46 52 46H161.945C163.289 46 164.595 46.4513 165.652 47.2817L169.794 50.5353C171.969 52.2442 175.031 52.2442 177.206 50.5353L181.348 47.2817C182.405 46.4513 183.711 46 185.055 46H295C298.314 46 301 48.6863 301 52V110C301 113.314 298.314 116 295 116H52C48.6863 116 46 113.314 46 110V52Z" fill="#2EB955"/>
<path d="M46 52C46 48.6863 48.6863 46 52 46H161.945C163.289 46 164.595 46.4513 165.652 47.2817L169.794 50.5353C171.969 52.2442 175.031 52.2442 177.206 50.5353L181.348 47.2817C182.405 46.4513 183.711 46 185.055 46H295C298.314 46 301 48.6863 301 52V110C301 113.314 298.314 116 295 116H52C48.6863 116 46 113.314 46 110V52Z" fill="url(#paint0_linear_1029_316)"/>
<path d="M46 52C46 48.6863 48.6863 46 52 46H161.945C163.289 46 164.595 46.4513 165.652 47.2817L169.794 50.5353C171.969 52.2442 175.031 52.2442 177.206 50.5353L181.348 47.2817C182.405 46.4513 183.711 46 185.055 46H295C298.314 46 301 48.6863 301 52V110C301 113.314 298.314 116 295 116H52C48.6863 116 46 113.314 46 110V52Z" fill="white"/>
</g>
<path d="M298.5 54V108C298.5 111.038 296.038 113.5 293 113.5H54C50.9624 113.5 48.5 111.038 48.5 108V54C48.5 50.9624 50.9624 48.5 54 48.5H162.337C163.551 48.5 164.73 48.9014 165.692 49.6418L169.535 52.6001C171.872 54.3992 175.128 54.3992 177.465 52.6001L181.308 49.6418C182.27 48.9014 183.449 48.5 184.663 48.5H293C296.038 48.5 298.5 50.9624 298.5 54Z" stroke="#E2E2E2"/>
<path d="M204.464 86.472C204.464 87.2187 204.293 87.88 203.952 88.456C203.632 89.032 203.184 89.48 202.608 89.8C202.053 90.12 201.424 90.28 200.72 90.28C199.995 90.28 199.344 90.12 198.768 89.8C198.213 89.48 197.765 89.032 197.424 88.456C197.104 87.88 196.944 87.2187 196.944 86.472C196.944 85.704 197.104 85.0427 197.424 84.488C197.765 83.912 198.213 83.4747 198.768 83.176C199.344 82.856 199.995 82.696 200.72 82.696C201.424 82.696 202.053 82.856 202.608 83.176C203.184 83.4747 203.632 83.912 203.952 84.488C204.293 85.0427 204.464 85.704 204.464 86.472ZM200.752 100.904L207.216 92.68C207.941 91.784 208.549 90.824 209.04 89.8C209.552 88.776 209.808 87.6667 209.808 86.472C209.808 84.616 209.392 83.0693 208.56 81.832C207.749 80.5947 206.651 79.6667 205.264 79.048C203.899 78.408 202.384 78.088 200.72 78.088C199.035 78.088 197.499 78.408 196.112 79.048C194.747 79.6667 193.648 80.5947 192.816 81.832C192.005 83.0693 191.6 84.616 191.6 86.472C191.6 87.6027 191.803 88.616 192.208 89.512C192.613 90.408 193.147 91.176 193.808 91.816C194.469 92.4347 195.205 92.9147 196.016 93.256C196.848 93.576 197.68 93.736 198.512 93.736C199.323 93.736 199.995 93.6507 200.528 93.48C201.083 93.288 201.659 92.904 202.256 92.328L201.168 92.808L193.904 100.904H200.752ZM225.87 86.472C225.87 87.2187 225.7 87.88 225.358 88.456C225.038 89.032 224.59 89.48 224.014 89.8C223.46 90.12 222.83 90.28 222.126 90.28C221.401 90.28 220.75 90.12 220.174 89.8C219.62 89.48 219.172 89.032 218.83 88.456C218.51 87.88 218.35 87.2187 218.35 86.472C218.35 85.704 218.51 85.0427 218.83 84.488C219.172 83.912 219.62 83.4747 220.174 83.176C220.75 82.856 221.401 82.696 222.126 82.696C222.83 82.696 223.46 82.856 224.014 83.176C224.59 83.4747 225.038 83.912 225.358 84.488C225.7 85.0427 225.87 85.704 225.87 86.472ZM222.158 100.904L228.622 92.68C229.348 91.784 229.956 90.824 230.446 89.8C230.958 88.776 231.214 87.6667 231.214 86.472C231.214 84.616 230.798 83.0693 229.966 81.832C229.156 80.5947 228.057 79.6667 226.67 79.048C225.305 78.408 223.79 78.088 222.126 78.088C220.441 78.088 218.905 78.408 217.518 79.048C216.153 79.6667 215.054 80.5947 214.222 81.832C213.412 83.0693 213.006 84.616 213.006 86.472C213.006 87.6027 213.209 88.616 213.614 89.512C214.02 90.408 214.553 91.176 215.214 91.816C215.876 92.4347 216.612 92.9147 217.422 93.256C218.254 93.576 219.086 93.736 219.918 93.736C220.729 93.736 221.401 93.6507 221.934 93.48C222.489 93.288 223.065 92.904 223.662 92.328L222.574 92.808L215.31 100.904H222.158ZM239.309 89.8C239.309 88.7547 239.405 87.8053 239.597 86.952C239.789 86.0773 240.066 85.3413 240.429 84.744C240.791 84.1253 241.218 83.656 241.709 83.336C242.221 82.9947 242.786 82.824 243.405 82.824C244.023 82.824 244.578 82.9947 245.069 83.336C245.581 83.656 246.018 84.1253 246.381 84.744C246.743 85.3413 247.021 86.0773 247.213 86.952C247.405 87.8053 247.501 88.7547 247.501 89.8C247.501 90.8453 247.405 91.8053 247.213 92.68C247.021 93.5333 246.743 94.2693 246.381 94.888C246.018 95.4853 245.581 95.9547 245.069 96.296C244.578 96.616 244.023 96.776 243.405 96.776C242.786 96.776 242.221 96.616 241.709 96.296C241.218 95.9547 240.791 95.4853 240.429 94.888C240.066 94.2693 239.789 93.5333 239.597 92.68C239.405 91.8053 239.309 90.8453 239.309 89.8ZM234.093 89.8C234.093 92.232 234.477 94.312 235.245 96.04C236.034 97.768 237.133 99.1013 238.541 100.04C239.949 100.957 241.57 101.416 243.405 101.416C245.325 101.416 246.978 100.957 248.365 100.04C249.751 99.1013 250.818 97.768 251.565 96.04C252.333 94.312 252.717 92.232 252.717 89.8C252.717 87.368 252.333 85.288 251.565 83.56C250.818 81.832 249.751 80.5093 248.365 79.592C246.978 78.6533 245.325 78.184 243.405 78.184C241.57 78.184 239.949 78.6533 238.541 79.592C237.133 80.5093 236.034 81.832 235.245 83.56C234.477 85.288 234.093 87.368 234.093 89.8ZM268.394 78.6V101H271.114V78.6H268.394ZM269.738 81.16H274.634C275.764 81.16 276.735 81.3093 277.546 81.608C278.378 81.8853 279.018 82.3227 279.466 82.92C279.935 83.496 280.17 84.2427 280.17 85.16C280.17 86.0773 279.935 86.8347 279.466 87.432C279.018 88.008 278.378 88.4453 277.546 88.744C276.735 89.0213 275.764 89.16 274.634 89.16H269.738V91.72H274.634C276.084 91.72 277.418 91.5067 278.634 91.08C279.871 90.6533 280.863 89.96 281.61 89C282.356 88.0187 282.73 86.7387 282.73 85.16C282.73 83.56 282.356 82.28 281.61 81.32C280.863 80.36 279.871 79.6667 278.634 79.24C277.418 78.8133 276.084 78.6 274.634 78.6H269.738V81.16ZM270.634 97.64H277.034V95.24H270.634V97.64ZM264.554 91.72H270.954V89.32H264.554V91.72ZM264.554 97.64H270.954V95.24H264.554V97.64Z" fill="url(#paint1_linear_1029_316)"/>
<path d="M204.464 86.472C204.464 87.2187 204.293 87.88 203.952 88.456C203.632 89.032 203.184 89.48 202.608 89.8C202.053 90.12 201.424 90.28 200.72 90.28C199.995 90.28 199.344 90.12 198.768 89.8C198.213 89.48 197.765 89.032 197.424 88.456C197.104 87.88 196.944 87.2187 196.944 86.472C196.944 85.704 197.104 85.0427 197.424 84.488C197.765 83.912 198.213 83.4747 198.768 83.176C199.344 82.856 199.995 82.696 200.72 82.696C201.424 82.696 202.053 82.856 202.608 83.176C203.184 83.4747 203.632 83.912 203.952 84.488C204.293 85.0427 204.464 85.704 204.464 86.472ZM200.752 100.904L207.216 92.68C207.941 91.784 208.549 90.824 209.04 89.8C209.552 88.776 209.808 87.6667 209.808 86.472C209.808 84.616 209.392 83.0693 208.56 81.832C207.749 80.5947 206.651 79.6667 205.264 79.048C203.899 78.408 202.384 78.088 200.72 78.088C199.035 78.088 197.499 78.408 196.112 79.048C194.747 79.6667 193.648 80.5947 192.816 81.832C192.005 83.0693 191.6 84.616 191.6 86.472C191.6 87.6027 191.803 88.616 192.208 89.512C192.613 90.408 193.147 91.176 193.808 91.816C194.469 92.4347 195.205 92.9147 196.016 93.256C196.848 93.576 197.68 93.736 198.512 93.736C199.323 93.736 199.995 93.6507 200.528 93.48C201.083 93.288 201.659 92.904 202.256 92.328L201.168 92.808L193.904 100.904H200.752ZM225.87 86.472C225.87 87.2187 225.7 87.88 225.358 88.456C225.038 89.032 224.59 89.48 224.014 89.8C223.46 90.12 222.83 90.28 222.126 90.28C221.401 90.28 220.75 90.12 220.174 89.8C219.62 89.48 219.172 89.032 218.83 88.456C218.51 87.88 218.35 87.2187 218.35 86.472C218.35 85.704 218.51 85.0427 218.83 84.488C219.172 83.912 219.62 83.4747 220.174 83.176C220.75 82.856 221.401 82.696 222.126 82.696C222.83 82.696 223.46 82.856 224.014 83.176C224.59 83.4747 225.038 83.912 225.358 84.488C225.7 85.0427 225.87 85.704 225.87 86.472ZM222.158 100.904L228.622 92.68C229.348 91.784 229.956 90.824 230.446 89.8C230.958 88.776 231.214 87.6667 231.214 86.472C231.214 84.616 230.798 83.0693 229.966 81.832C229.156 80.5947 228.057 79.6667 226.67 79.048C225.305 78.408 223.79 78.088 222.126 78.088C220.441 78.088 218.905 78.408 217.518 79.048C216.153 79.6667 215.054 80.5947 214.222 81.832C213.412 83.0693 213.006 84.616 213.006 86.472C213.006 87.6027 213.209 88.616 213.614 89.512C214.02 90.408 214.553 91.176 215.214 91.816C215.876 92.4347 216.612 92.9147 217.422 93.256C218.254 93.576 219.086 93.736 219.918 93.736C220.729 93.736 221.401 93.6507 221.934 93.48C222.489 93.288 223.065 92.904 223.662 92.328L222.574 92.808L215.31 100.904H222.158ZM239.309 89.8C239.309 88.7547 239.405 87.8053 239.597 86.952C239.789 86.0773 240.066 85.3413 240.429 84.744C240.791 84.1253 241.218 83.656 241.709 83.336C242.221 82.9947 242.786 82.824 243.405 82.824C244.023 82.824 244.578 82.9947 245.069 83.336C245.581 83.656 246.018 84.1253 246.381 84.744C246.743 85.3413 247.021 86.0773 247.213 86.952C247.405 87.8053 247.501 88.7547 247.501 89.8C247.501 90.8453 247.405 91.8053 247.213 92.68C247.021 93.5333 246.743 94.2693 246.381 94.888C246.018 95.4853 245.581 95.9547 245.069 96.296C244.578 96.616 244.023 96.776 243.405 96.776C242.786 96.776 242.221 96.616 241.709 96.296C241.218 95.9547 240.791 95.4853 240.429 94.888C240.066 94.2693 239.789 93.5333 239.597 92.68C239.405 91.8053 239.309 90.8453 239.309 89.8ZM234.093 89.8C234.093 92.232 234.477 94.312 235.245 96.04C236.034 97.768 237.133 99.1013 238.541 100.04C239.949 100.957 241.57 101.416 243.405 101.416C245.325 101.416 246.978 100.957 248.365 100.04C249.751 99.1013 250.818 97.768 251.565 96.04C252.333 94.312 252.717 92.232 252.717 89.8C252.717 87.368 252.333 85.288 251.565 83.56C250.818 81.832 249.751 80.5093 248.365 79.592C246.978 78.6533 245.325 78.184 243.405 78.184C241.57 78.184 239.949 78.6533 238.541 79.592C237.133 80.5093 236.034 81.832 235.245 83.56C234.477 85.288 234.093 87.368 234.093 89.8ZM268.394 78.6V101H271.114V78.6H268.394ZM269.738 81.16H274.634C275.764 81.16 276.735 81.3093 277.546 81.608C278.378 81.8853 279.018 82.3227 279.466 82.92C279.935 83.496 280.17 84.2427 280.17 85.16C280.17 86.0773 279.935 86.8347 279.466 87.432C279.018 88.008 278.378 88.4453 277.546 88.744C276.735 89.0213 275.764 89.16 274.634 89.16H269.738V91.72H274.634C276.084 91.72 277.418 91.5067 278.634 91.08C279.871 90.6533 280.863 89.96 281.61 89C282.356 88.0187 282.73 86.7387 282.73 85.16C282.73 83.56 282.356 82.28 281.61 81.32C280.863 80.36 279.871 79.6667 278.634 79.24C277.418 78.8133 276.084 78.6 274.634 78.6H269.738V81.16ZM270.634 97.64H277.034V95.24H270.634V97.64ZM264.554 91.72H270.954V89.32H264.554V91.72ZM264.554 97.64H270.954V95.24H264.554V97.64Z" fill="white"/>
<path d="M204.464 86.472C204.464 87.2187 204.293 87.88 203.952 88.456C203.632 89.032 203.184 89.48 202.608 89.8C202.053 90.12 201.424 90.28 200.72 90.28C199.995 90.28 199.344 90.12 198.768 89.8C198.213 89.48 197.765 89.032 197.424 88.456C197.104 87.88 196.944 87.2187 196.944 86.472C196.944 85.704 197.104 85.0427 197.424 84.488C197.765 83.912 198.213 83.4747 198.768 83.176C199.344 82.856 199.995 82.696 200.72 82.696C201.424 82.696 202.053 82.856 202.608 83.176C203.184 83.4747 203.632 83.912 203.952 84.488C204.293 85.0427 204.464 85.704 204.464 86.472ZM200.752 100.904L207.216 92.68C207.941 91.784 208.549 90.824 209.04 89.8C209.552 88.776 209.808 87.6667 209.808 86.472C209.808 84.616 209.392 83.0693 208.56 81.832C207.749 80.5947 206.651 79.6667 205.264 79.048C203.899 78.408 202.384 78.088 200.72 78.088C199.035 78.088 197.499 78.408 196.112 79.048C194.747 79.6667 193.648 80.5947 192.816 81.832C192.005 83.0693 191.6 84.616 191.6 86.472C191.6 87.6027 191.803 88.616 192.208 89.512C192.613 90.408 193.147 91.176 193.808 91.816C194.469 92.4347 195.205 92.9147 196.016 93.256C196.848 93.576 197.68 93.736 198.512 93.736C199.323 93.736 199.995 93.6507 200.528 93.48C201.083 93.288 201.659 92.904 202.256 92.328L201.168 92.808L193.904 100.904H200.752ZM225.87 86.472C225.87 87.2187 225.7 87.88 225.358 88.456C225.038 89.032 224.59 89.48 224.014 89.8C223.46 90.12 222.83 90.28 222.126 90.28C221.401 90.28 220.75 90.12 220.174 89.8C219.62 89.48 219.172 89.032 218.83 88.456C218.51 87.88 218.35 87.2187 218.35 86.472C218.35 85.704 218.51 85.0427 218.83 84.488C219.172 83.912 219.62 83.4747 220.174 83.176C220.75 82.856 221.401 82.696 222.126 82.696C222.83 82.696 223.46 82.856 224.014 83.176C224.59 83.4747 225.038 83.912 225.358 84.488C225.7 85.0427 225.87 85.704 225.87 86.472ZM222.158 100.904L228.622 92.68C229.348 91.784 229.956 90.824 230.446 89.8C230.958 88.776 231.214 87.6667 231.214 86.472C231.214 84.616 230.798 83.0693 229.966 81.832C229.156 80.5947 228.057 79.6667 226.67 79.048C225.305 78.408 223.79 78.088 222.126 78.088C220.441 78.088 218.905 78.408 217.518 79.048C216.153 79.6667 215.054 80.5947 214.222 81.832C213.412 83.0693 213.006 84.616 213.006 86.472C213.006 87.6027 213.209 88.616 213.614 89.512C214.02 90.408 214.553 91.176 215.214 91.816C215.876 92.4347 216.612 92.9147 217.422 93.256C218.254 93.576 219.086 93.736 219.918 93.736C220.729 93.736 221.401 93.6507 221.934 93.48C222.489 93.288 223.065 92.904 223.662 92.328L222.574 92.808L215.31 100.904H222.158ZM239.309 89.8C239.309 88.7547 239.405 87.8053 239.597 86.952C239.789 86.0773 240.066 85.3413 240.429 84.744C240.791 84.1253 241.218 83.656 241.709 83.336C242.221 82.9947 242.786 82.824 243.405 82.824C244.023 82.824 244.578 82.9947 245.069 83.336C245.581 83.656 246.018 84.1253 246.381 84.744C246.743 85.3413 247.021 86.0773 247.213 86.952C247.405 87.8053 247.501 88.7547 247.501 89.8C247.501 90.8453 247.405 91.8053 247.213 92.68C247.021 93.5333 246.743 94.2693 246.381 94.888C246.018 95.4853 245.581 95.9547 245.069 96.296C244.578 96.616 244.023 96.776 243.405 96.776C242.786 96.776 242.221 96.616 241.709 96.296C241.218 95.9547 240.791 95.4853 240.429 94.888C240.066 94.2693 239.789 93.5333 239.597 92.68C239.405 91.8053 239.309 90.8453 239.309 89.8ZM234.093 89.8C234.093 92.232 234.477 94.312 235.245 96.04C236.034 97.768 237.133 99.1013 238.541 100.04C239.949 100.957 241.57 101.416 243.405 101.416C245.325 101.416 246.978 100.957 248.365 100.04C249.751 99.1013 250.818 97.768 251.565 96.04C252.333 94.312 252.717 92.232 252.717 89.8C252.717 87.368 252.333 85.288 251.565 83.56C250.818 81.832 249.751 80.5093 248.365 79.592C246.978 78.6533 245.325 78.184 243.405 78.184C241.57 78.184 239.949 78.6533 238.541 79.592C237.133 80.5093 236.034 81.832 235.245 83.56C234.477 85.288 234.093 87.368 234.093 89.8ZM268.394 78.6V101H271.114V78.6H268.394ZM269.738 81.16H274.634C275.764 81.16 276.735 81.3093 277.546 81.608C278.378 81.8853 279.018 82.3227 279.466 82.92C279.935 83.496 280.17 84.2427 280.17 85.16C280.17 86.0773 279.935 86.8347 279.466 87.432C279.018 88.008 278.378 88.4453 277.546 88.744C276.735 89.0213 275.764 89.16 274.634 89.16H269.738V91.72H274.634C276.084 91.72 277.418 91.5067 278.634 91.08C279.871 90.6533 280.863 89.96 281.61 89C282.356 88.0187 282.73 86.7387 282.73 85.16C282.73 83.56 282.356 82.28 281.61 81.32C280.863 80.36 279.871 79.6667 278.634 79.24C277.418 78.8133 276.084 78.6 274.634 78.6H269.738V81.16ZM270.634 97.64H277.034V95.24H270.634V97.64ZM264.554 91.72H270.954V89.32H264.554V91.72ZM264.554 97.64H270.954V95.24H264.554V97.64Z" fill="url(#paint2_linear_1029_316)"/>
<path d="M204.464 86.472C204.464 87.2187 204.293 87.88 203.952 88.456C203.632 89.032 203.184 89.48 202.608 89.8C202.053 90.12 201.424 90.28 200.72 90.28C199.995 90.28 199.344 90.12 198.768 89.8C198.213 89.48 197.765 89.032 197.424 88.456C197.104 87.88 196.944 87.2187 196.944 86.472C196.944 85.704 197.104 85.0427 197.424 84.488C197.765 83.912 198.213 83.4747 198.768 83.176C199.344 82.856 199.995 82.696 200.72 82.696C201.424 82.696 202.053 82.856 202.608 83.176C203.184 83.4747 203.632 83.912 203.952 84.488C204.293 85.0427 204.464 85.704 204.464 86.472ZM200.752 100.904L207.216 92.68C207.941 91.784 208.549 90.824 209.04 89.8C209.552 88.776 209.808 87.6667 209.808 86.472C209.808 84.616 209.392 83.0693 208.56 81.832C207.749 80.5947 206.651 79.6667 205.264 79.048C203.899 78.408 202.384 78.088 200.72 78.088C199.035 78.088 197.499 78.408 196.112 79.048C194.747 79.6667 193.648 80.5947 192.816 81.832C192.005 83.0693 191.6 84.616 191.6 86.472C191.6 87.6027 191.803 88.616 192.208 89.512C192.613 90.408 193.147 91.176 193.808 91.816C194.469 92.4347 195.205 92.9147 196.016 93.256C196.848 93.576 197.68 93.736 198.512 93.736C199.323 93.736 199.995 93.6507 200.528 93.48C201.083 93.288 201.659 92.904 202.256 92.328L201.168 92.808L193.904 100.904H200.752ZM225.87 86.472C225.87 87.2187 225.7 87.88 225.358 88.456C225.038 89.032 224.59 89.48 224.014 89.8C223.46 90.12 222.83 90.28 222.126 90.28C221.401 90.28 220.75 90.12 220.174 89.8C219.62 89.48 219.172 89.032 218.83 88.456C218.51 87.88 218.35 87.2187 218.35 86.472C218.35 85.704 218.51 85.0427 218.83 84.488C219.172 83.912 219.62 83.4747 220.174 83.176C220.75 82.856 221.401 82.696 222.126 82.696C222.83 82.696 223.46 82.856 224.014 83.176C224.59 83.4747 225.038 83.912 225.358 84.488C225.7 85.0427 225.87 85.704 225.87 86.472ZM222.158 100.904L228.622 92.68C229.348 91.784 229.956 90.824 230.446 89.8C230.958 88.776 231.214 87.6667 231.214 86.472C231.214 84.616 230.798 83.0693 229.966 81.832C229.156 80.5947 228.057 79.6667 226.67 79.048C225.305 78.408 223.79 78.088 222.126 78.088C220.441 78.088 218.905 78.408 217.518 79.048C216.153 79.6667 215.054 80.5947 214.222 81.832C213.412 83.0693 213.006 84.616 213.006 86.472C213.006 87.6027 213.209 88.616 213.614 89.512C214.02 90.408 214.553 91.176 215.214 91.816C215.876 92.4347 216.612 92.9147 217.422 93.256C218.254 93.576 219.086 93.736 219.918 93.736C220.729 93.736 221.401 93.6507 221.934 93.48C222.489 93.288 223.065 92.904 223.662 92.328L222.574 92.808L215.31 100.904H222.158ZM239.309 89.8C239.309 88.7547 239.405 87.8053 239.597 86.952C239.789 86.0773 240.066 85.3413 240.429 84.744C240.791 84.1253 241.218 83.656 241.709 83.336C242.221 82.9947 242.786 82.824 243.405 82.824C244.023 82.824 244.578 82.9947 245.069 83.336C245.581 83.656 246.018 84.1253 246.381 84.744C246.743 85.3413 247.021 86.0773 247.213 86.952C247.405 87.8053 247.501 88.7547 247.501 89.8C247.501 90.8453 247.405 91.8053 247.213 92.68C247.021 93.5333 246.743 94.2693 246.381 94.888C246.018 95.4853 245.581 95.9547 245.069 96.296C244.578 96.616 244.023 96.776 243.405 96.776C242.786 96.776 242.221 96.616 241.709 96.296C241.218 95.9547 240.791 95.4853 240.429 94.888C240.066 94.2693 239.789 93.5333 239.597 92.68C239.405 91.8053 239.309 90.8453 239.309 89.8ZM234.093 89.8C234.093 92.232 234.477 94.312 235.245 96.04C236.034 97.768 237.133 99.1013 238.541 100.04C239.949 100.957 241.57 101.416 243.405 101.416C245.325 101.416 246.978 100.957 248.365 100.04C249.751 99.1013 250.818 97.768 251.565 96.04C252.333 94.312 252.717 92.232 252.717 89.8C252.717 87.368 252.333 85.288 251.565 83.56C250.818 81.832 249.751 80.5093 248.365 79.592C246.978 78.6533 245.325 78.184 243.405 78.184C241.57 78.184 239.949 78.6533 238.541 79.592C237.133 80.5093 236.034 81.832 235.245 83.56C234.477 85.288 234.093 87.368 234.093 89.8ZM268.394 78.6V101H271.114V78.6H268.394ZM269.738 81.16H274.634C275.764 81.16 276.735 81.3093 277.546 81.608C278.378 81.8853 279.018 82.3227 279.466 82.92C279.935 83.496 280.17 84.2427 280.17 85.16C280.17 86.0773 279.935 86.8347 279.466 87.432C279.018 88.008 278.378 88.4453 277.546 88.744C276.735 89.0213 275.764 89.16 274.634 89.16H269.738V91.72H274.634C276.084 91.72 277.418 91.5067 278.634 91.08C279.871 90.6533 280.863 89.96 281.61 89C282.356 88.0187 282.73 86.7387 282.73 85.16C282.73 83.56 282.356 82.28 281.61 81.32C280.863 80.36 279.871 79.6667 278.634 79.24C277.418 78.8133 276.084 78.6 274.634 78.6H269.738V81.16ZM270.634 97.64H277.034V95.24H270.634V97.64ZM264.554 91.72H270.954V89.32H264.554V91.72ZM264.554 97.64H270.954V95.24H264.554V97.64Z" fill="#31BD59"/>
<path d="M77.61 96H87.744V93.642H82.47L85.746 90.546C86.274 90.066 86.7 89.532 87.024 88.944C87.348 88.356 87.51 87.726 87.51 87.054C87.51 86.598 87.414 86.142 87.222 85.686C87.042 85.23 86.76 84.816 86.376 84.444C86.004 84.06 85.53 83.754 84.954 83.526C84.39 83.286 83.73 83.166 82.974 83.166C81.954 83.166 81.09 83.382 80.382 83.814C79.686 84.234 79.158 84.804 78.798 85.524C78.438 86.244 78.258 87.054 78.258 87.954H80.778C80.778 87.45 80.862 87.006 81.03 86.622C81.21 86.238 81.456 85.944 81.768 85.74C82.092 85.524 82.476 85.416 82.92 85.416C83.232 85.416 83.508 85.47 83.748 85.578C83.988 85.674 84.192 85.806 84.36 85.974C84.528 86.142 84.654 86.334 84.738 86.55C84.822 86.766 84.864 86.988 84.864 87.216C84.864 87.54 84.804 87.852 84.684 88.152C84.564 88.452 84.39 88.752 84.162 89.052C83.934 89.352 83.658 89.676 83.334 90.024L77.61 96ZM102.067 87.738C102.067 88.206 101.965 88.62 101.761 88.98C101.557 89.34 101.275 89.622 100.915 89.826C100.567 90.03 100.171 90.132 99.7268 90.132C99.2828 90.132 98.8808 90.03 98.5208 89.826C98.1728 89.622 97.8968 89.34 97.6928 88.98C97.4888 88.62 97.3868 88.206 97.3868 87.738C97.3868 87.258 97.4888 86.844 97.6928 86.496C97.8968 86.136 98.1728 85.86 98.5208 85.668C98.8808 85.464 99.2828 85.362 99.7268 85.362C100.171 85.362 100.567 85.464 100.915 85.668C101.275 85.86 101.557 86.136 101.761 86.496C101.965 86.844 102.067 87.258 102.067 87.738ZM99.5108 95.964L103.345 90.96C103.693 90.504 103.987 90.012 104.227 89.484C104.467 88.944 104.587 88.362 104.587 87.738C104.587 86.754 104.365 85.92 103.921 85.236C103.489 84.552 102.907 84.036 102.175 83.688C101.443 83.328 100.627 83.148 99.7268 83.148C98.8268 83.148 98.0108 83.328 97.2788 83.688C96.5468 84.036 95.9588 84.552 95.5148 85.236C95.0828 85.92 94.8668 86.754 94.8668 87.738C94.8668 88.35 94.9748 88.908 95.1908 89.412C95.4068 89.916 95.6948 90.348 96.0548 90.708C96.4268 91.068 96.8408 91.344 97.2968 91.536C97.7528 91.728 98.2208 91.824 98.7008 91.824C99.1448 91.824 99.5228 91.776 99.8348 91.68C100.147 91.572 100.453 91.362 100.753 91.05L100.303 91.212L96.2528 95.964H99.5108ZM106.884 86.442C106.884 86.994 106.992 87.48 107.208 87.9C107.436 88.308 107.736 88.65 108.108 88.926C108.492 89.202 108.924 89.412 109.404 89.556C109.884 89.7 110.382 89.772 110.898 89.772C111.414 89.772 111.912 89.7 112.392 89.556C112.872 89.412 113.298 89.202 113.67 88.926C114.054 88.65 114.354 88.308 114.57 87.9C114.798 87.48 114.912 86.994 114.912 86.442C114.912 85.77 114.726 85.188 114.354 84.696C113.994 84.204 113.508 83.826 112.896 83.562C112.296 83.286 111.63 83.148 110.898 83.148C110.154 83.148 109.476 83.286 108.864 83.562C108.264 83.826 107.784 84.204 107.424 84.696C107.064 85.188 106.884 85.77 106.884 86.442ZM109.296 86.694C109.296 86.382 109.362 86.1 109.494 85.848C109.638 85.596 109.83 85.404 110.07 85.272C110.31 85.14 110.586 85.074 110.898 85.074C111.21 85.074 111.486 85.14 111.726 85.272C111.966 85.404 112.152 85.596 112.284 85.848C112.416 86.1 112.482 86.382 112.482 86.694C112.482 87.018 112.41 87.3 112.266 87.54C112.134 87.78 111.948 87.972 111.708 88.116C111.468 88.248 111.198 88.314 110.898 88.314C110.598 88.314 110.328 88.248 110.088 88.116C109.848 87.972 109.656 87.78 109.512 87.54C109.368 87.3 109.296 87.018 109.296 86.694ZM106.434 92.58C106.434 93.132 106.548 93.636 106.776 94.092C107.016 94.536 107.346 94.92 107.766 95.244C108.186 95.568 108.66 95.82 109.188 96C109.728 96.168 110.298 96.252 110.898 96.252C111.498 96.252 112.062 96.168 112.59 96C113.13 95.82 113.604 95.568 114.012 95.244C114.432 94.92 114.762 94.536 115.002 94.092C115.242 93.636 115.362 93.132 115.362 92.58C115.362 91.944 115.23 91.398 114.966 90.942C114.702 90.474 114.348 90.09 113.904 89.79C113.472 89.49 112.992 89.268 112.464 89.124C111.936 88.98 111.414 88.908 110.898 88.908C110.382 88.908 109.86 88.98 109.332 89.124C108.804 89.268 108.318 89.49 107.874 89.79C107.442 90.09 107.094 90.474 106.83 90.942C106.566 91.398 106.434 91.944 106.434 92.58ZM108.972 92.202C108.972 91.854 109.056 91.536 109.224 91.248C109.404 90.96 109.638 90.732 109.926 90.564C110.226 90.396 110.55 90.312 110.898 90.312C111.234 90.312 111.546 90.396 111.834 90.564C112.134 90.732 112.374 90.96 112.554 91.248C112.734 91.536 112.824 91.854 112.824 92.202C112.824 92.622 112.734 92.976 112.554 93.264C112.374 93.54 112.134 93.756 111.834 93.912C111.546 94.056 111.234 94.128 110.898 94.128C110.55 94.128 110.226 94.056 109.926 93.912C109.638 93.756 109.404 93.54 109.224 93.264C109.056 92.976 108.972 92.622 108.972 92.202ZM119.531 89.7C119.531 89.064 119.591 88.488 119.711 87.972C119.831 87.444 120.005 86.994 120.233 86.622C120.461 86.238 120.731 85.944 121.043 85.74C121.355 85.536 121.703 85.434 122.087 85.434C122.483 85.434 122.837 85.536 123.149 85.74C123.461 85.944 123.731 86.238 123.959 86.622C124.187 86.994 124.361 87.444 124.481 87.972C124.601 88.488 124.661 89.064 124.661 89.7C124.661 90.336 124.601 90.918 124.481 91.446C124.361 91.962 124.187 92.412 123.959 92.796C123.731 93.168 123.461 93.456 123.149 93.66C122.837 93.864 122.483 93.966 122.087 93.966C121.703 93.966 121.355 93.864 121.043 93.66C120.731 93.456 120.461 93.168 120.233 92.796C120.005 92.412 119.831 91.962 119.711 91.446C119.591 90.918 119.531 90.336 119.531 89.7ZM117.029 89.7C117.029 91.032 117.239 92.184 117.659 93.156C118.091 94.128 118.685 94.884 119.441 95.424C120.209 95.952 121.091 96.216 122.087 96.216C123.119 96.216 124.013 95.952 124.769 95.424C125.525 94.884 126.113 94.128 126.533 93.156C126.953 92.184 127.163 91.032 127.163 89.7C127.163 88.368 126.953 87.216 126.533 86.244C126.113 85.272 125.525 84.522 124.769 83.994C124.013 83.454 123.119 83.184 122.087 83.184C121.091 83.184 120.209 83.454 119.441 83.994C118.685 84.522 118.091 85.272 117.659 86.244C117.239 87.216 117.029 88.368 117.029 89.7ZM135.971 83.4V96H137.501V83.4H135.971ZM136.727 84.84H139.481C140.117 84.84 140.663 84.924 141.119 85.092C141.587 85.248 141.947 85.494 142.199 85.83C142.463 86.154 142.595 86.574 142.595 87.09C142.595 87.606 142.463 88.032 142.199 88.368C141.947 88.692 141.587 88.938 141.119 89.106C140.663 89.262 140.117 89.34 139.481 89.34H136.727V90.78H139.481C140.297 90.78 141.047 90.66 141.731 90.42C142.427 90.18 142.985 89.79 143.405 89.25C143.825 88.698 144.035 87.978 144.035 87.09C144.035 86.19 143.825 85.47 143.405 84.93C142.985 84.39 142.427 84 141.731 83.76C141.047 83.52 140.297 83.4 139.481 83.4H136.727V84.84ZM137.231 94.11H140.831V92.76H137.231V94.11ZM133.811 90.78H137.411V89.43H133.811V90.78ZM133.811 94.11H137.411V92.76H133.811V94.11Z" fill="#7D7D7D"/>
<line x1="66.0558" y1="84.5031" x2="155.056" y2="94.5031" stroke="#7D7D7D"/>
<path d="M85.5603 68.78C85.5603 69.424 85.705 70.0027 85.9943 70.516C86.293 71.02 86.6943 71.4167 87.1983 71.706C87.7023 71.9953 88.267 72.14 88.8923 72.14C89.527 72.14 90.0916 71.9953 90.5863 71.706C91.0903 71.4167 91.487 71.02 91.7763 70.516C92.075 70.0027 92.2243 69.424 92.2243 68.78C92.2243 68.1267 92.075 67.548 91.7763 67.044C91.487 66.54 91.0903 66.1433 90.5863 65.854C90.0916 65.5647 89.527 65.42 88.8923 65.42C88.267 65.42 87.7023 65.5647 87.1983 65.854C86.6943 66.1433 86.293 66.54 85.9943 67.044C85.705 67.548 85.5603 68.1267 85.5603 68.78ZM86.6943 68.78C86.6943 68.332 86.7876 67.9353 86.9743 67.59C87.1703 67.2353 87.4316 66.96 87.7583 66.764C88.0943 66.568 88.4723 66.47 88.8923 66.47C89.3123 66.47 89.6856 66.568 90.0123 66.764C90.3483 66.96 90.6096 67.2353 90.7963 67.59C90.9923 67.9353 91.0903 68.332 91.0903 68.78C91.0903 69.228 90.9923 69.6247 90.7963 69.97C90.6096 70.3153 90.3483 70.5907 90.0123 70.796C89.6856 70.992 89.3123 71.09 88.8923 71.09C88.4723 71.09 88.0943 70.992 87.7583 70.796C87.4316 70.5907 87.1703 70.3153 86.9743 69.97C86.7876 69.6247 86.6943 69.228 86.6943 68.78ZM96.5349 66.47C96.9549 66.47 97.3282 66.568 97.6549 66.764C97.9909 66.96 98.2522 67.2353 98.4389 67.59C98.6349 67.9353 98.7329 68.332 98.7329 68.78C98.7329 69.228 98.6349 69.6247 98.4389 69.97C98.2522 70.3153 97.9909 70.5907 97.6549 70.796C97.3282 70.992 96.9549 71.09 96.5349 71.09C96.1149 71.09 95.7369 70.992 95.4009 70.796C95.0742 70.5907 94.8129 70.3153 94.6169 69.97C94.4209 69.6247 94.3229 69.228 94.3229 68.78L93.2029 67.94C93.2029 68.864 93.3476 69.6387 93.6369 70.264C93.9356 70.8893 94.3369 71.3607 94.8409 71.678C95.3449 71.986 95.9096 72.14 96.5349 72.14C97.1696 72.14 97.7342 71.9953 98.2289 71.706C98.7329 71.4167 99.1296 71.02 99.4189 70.516C99.7176 70.0027 99.8669 69.424 99.8669 68.78C99.8669 68.1267 99.7176 67.548 99.4189 67.044C99.1296 66.54 98.7329 66.1433 98.2289 65.854C97.7342 65.5647 97.1696 65.42 96.5349 65.42V66.47ZM93.8189 68.78H94.3229C94.3229 68.4067 94.3882 68.08 94.5189 67.8C94.6589 67.5107 94.8362 67.268 95.0509 67.072C95.2749 66.876 95.5176 66.7267 95.7789 66.624C96.0402 66.5213 96.2922 66.47 96.5349 66.47V65.42C96.1336 65.42 95.7649 65.4993 95.4289 65.658C95.1022 65.8073 94.8176 66.0267 94.5749 66.316C94.3322 66.6053 94.1456 66.96 94.0149 67.38C93.8842 67.7907 93.8189 68.2573 93.8189 68.78ZM93.2029 67.94L94.1829 68.682V67.24C94.1829 66.7733 94.2436 66.3067 94.3649 65.84C94.4862 65.364 94.7056 64.9393 95.0229 64.566C95.3496 64.1927 95.8022 63.9127 96.3809 63.726C96.8942 63.558 97.3516 63.348 97.7529 63.096C98.1636 62.844 98.4949 62.55 98.7469 62.214C98.9989 61.8687 99.1482 61.4907 99.1949 61.08H98.0889C98.0236 61.416 97.8322 61.738 97.5149 62.046C97.2069 62.3447 96.7356 62.6013 96.1009 62.816C95.3542 63.068 94.7662 63.432 94.3369 63.908C93.9169 64.3747 93.6229 64.944 93.4549 65.616C93.2869 66.288 93.2029 67.0627 93.2029 67.94ZM107.215 65.56V72H108.335V65.56H107.215ZM101.405 65.56V72H102.525V65.56H101.405ZM102.063 68.976H104.065C104.476 68.976 104.784 69.0647 104.989 69.242C105.195 69.4193 105.297 69.6713 105.297 69.998C105.297 70.2127 105.251 70.3993 105.157 70.558C105.064 70.7073 104.924 70.824 104.737 70.908C104.56 70.9827 104.336 71.02 104.065 71.02H102.063V72H104.065C104.513 72 104.915 71.93 105.269 71.79C105.624 71.65 105.904 71.4307 106.109 71.132C106.315 70.8333 106.417 70.4553 106.417 69.998C106.417 69.3073 106.189 68.8033 105.731 68.486C105.283 68.1593 104.728 67.996 104.065 67.996H102.063V68.976ZM112.599 70.04H114.797V68.99H112.599V70.04ZM113.999 65.56V72H115.119V65.56H113.999ZM111.199 65.56H110.079V67.408C110.079 68.0333 110.154 68.542 110.303 68.934C110.452 69.3167 110.709 69.5967 111.073 69.774C111.446 69.9513 111.955 70.04 112.599 70.04V68.99C112.244 68.99 111.964 68.9387 111.759 68.836C111.554 68.724 111.409 68.5513 111.325 68.318C111.241 68.0847 111.199 67.7813 111.199 67.408V65.56ZM117.882 69.13H122.642V68.08H117.882V69.13ZM121.914 65.56V72H123.034V65.56H121.914ZM117.224 65.56V72H118.344V65.56H117.224ZM124.58 68.78C124.58 69.424 124.725 70.0027 125.014 70.516C125.313 71.02 125.714 71.4167 126.218 71.706C126.722 71.9953 127.287 72.14 127.912 72.14C128.547 72.14 129.111 71.9953 129.606 71.706C130.11 71.4167 130.507 71.02 130.796 70.516C131.095 70.0027 131.244 69.424 131.244 68.78C131.244 68.1267 131.095 67.548 130.796 67.044C130.507 66.54 130.11 66.1433 129.606 65.854C129.111 65.5647 128.547 65.42 127.912 65.42C127.287 65.42 126.722 65.5647 126.218 65.854C125.714 66.1433 125.313 66.54 125.014 67.044C124.725 67.548 124.58 68.1267 124.58 68.78ZM125.714 68.78C125.714 68.332 125.807 67.9353 125.994 67.59C126.19 67.2353 126.451 66.96 126.778 66.764C127.114 66.568 127.492 66.47 127.912 66.47C128.332 66.47 128.705 66.568 129.032 66.764C129.368 66.96 129.629 67.2353 129.816 67.59C130.012 67.9353 130.11 68.332 130.11 68.78C130.11 69.228 130.012 69.6247 129.816 69.97C129.629 70.3153 129.368 70.5907 129.032 70.796C128.705 70.992 128.332 71.09 127.912 71.09C127.492 71.09 127.114 70.992 126.778 70.796C126.451 70.5907 126.19 70.3153 125.994 69.97C125.807 69.6247 125.714 69.228 125.714 68.78ZM133.062 71.44C133.062 71.6453 133.137 71.8273 133.286 71.986C133.445 72.1353 133.627 72.21 133.832 72.21C134.047 72.21 134.229 72.1353 134.378 71.986C134.528 71.8273 134.602 71.6453 134.602 71.44C134.602 71.2253 134.528 71.0433 134.378 70.894C134.229 70.7447 134.047 70.67 133.832 70.67C133.627 70.67 133.445 70.7447 133.286 70.894C133.137 71.0433 133.062 71.2253 133.062 71.44ZM133.062 66.12C133.062 66.3253 133.137 66.5073 133.286 66.666C133.445 66.8153 133.627 66.89 133.832 66.89C134.047 66.89 134.229 66.8153 134.378 66.666C134.528 66.5073 134.602 66.3253 134.602 66.12C134.602 65.9053 134.528 65.7233 134.378 65.574C134.229 65.4247 134.047 65.35 133.832 65.35C133.627 65.35 133.445 65.4247 133.286 65.574C133.137 65.7233 133.062 65.9053 133.062 66.12Z" fill="#7D7D7D"/>
<path d="M201.749 68.78C201.749 68.332 201.843 67.9353 202.029 67.59C202.225 67.2353 202.487 66.96 202.813 66.764C203.149 66.568 203.527 66.47 203.947 66.47C204.293 66.47 204.615 66.526 204.913 66.638C205.221 66.7407 205.487 66.8807 205.711 67.058C205.935 67.2353 206.094 67.4313 206.187 67.646V66.246C205.963 65.9847 205.641 65.784 205.221 65.644C204.811 65.4947 204.386 65.42 203.947 65.42C203.322 65.42 202.757 65.5647 202.253 65.854C201.749 66.1433 201.348 66.54 201.049 67.044C200.76 67.548 200.615 68.1267 200.615 68.78C200.615 69.424 200.76 70.0027 201.049 70.516C201.348 71.02 201.749 71.4167 202.253 71.706C202.757 71.9953 203.322 72.14 203.947 72.14C204.386 72.14 204.811 72.07 205.221 71.93C205.641 71.7807 205.963 71.5753 206.187 71.314V69.914C206.094 70.1193 205.935 70.3153 205.711 70.502C205.487 70.6793 205.221 70.824 204.913 70.936C204.615 71.0387 204.293 71.09 203.947 71.09C203.527 71.09 203.149 70.992 202.813 70.796C202.487 70.5907 202.225 70.3153 202.029 69.97C201.843 69.6247 201.749 69.228 201.749 68.78ZM207.371 68.78C207.371 69.424 207.516 70.0027 207.805 70.516C208.104 71.02 208.505 71.4167 209.009 71.706C209.513 71.9953 210.078 72.14 210.703 72.14C211.338 72.14 211.902 71.9953 212.397 71.706C212.901 71.4167 213.298 71.02 213.587 70.516C213.886 70.0027 214.035 69.424 214.035 68.78C214.035 68.1267 213.886 67.548 213.587 67.044C213.298 66.54 212.901 66.1433 212.397 65.854C211.902 65.5647 211.338 65.42 210.703 65.42C210.078 65.42 209.513 65.5647 209.009 65.854C208.505 66.1433 208.104 66.54 207.805 67.044C207.516 67.548 207.371 68.1267 207.371 68.78ZM208.505 68.78C208.505 68.332 208.598 67.9353 208.785 67.59C208.981 67.2353 209.242 66.96 209.569 66.764C209.905 66.568 210.283 66.47 210.703 66.47C211.123 66.47 211.496 66.568 211.823 66.764C212.159 66.96 212.42 67.2353 212.607 67.59C212.803 67.9353 212.901 68.332 212.901 68.78C212.901 69.228 212.803 69.6247 212.607 69.97C212.42 70.3153 212.159 70.5907 211.823 70.796C211.496 70.992 211.123 71.09 210.703 71.09C210.283 71.09 209.905 70.992 209.569 70.796C209.242 70.5907 208.981 70.3153 208.785 69.97C208.598 69.6247 208.505 69.228 208.505 68.78ZM220.275 68.78C220.275 68.332 220.368 67.9353 220.555 67.59C220.751 67.2353 221.012 66.96 221.339 66.764C221.675 66.568 222.053 66.47 222.473 66.47C222.818 66.47 223.14 66.526 223.439 66.638C223.747 66.7407 224.013 66.8807 224.237 67.058C224.461 67.2353 224.619 67.4313 224.713 67.646V66.246C224.489 65.9847 224.167 65.784 223.747 65.644C223.336 65.4947 222.911 65.42 222.473 65.42C221.847 65.42 221.283 65.5647 220.779 65.854C220.275 66.1433 219.873 66.54 219.575 67.044C219.285 67.548 219.141 68.1267 219.141 68.78C219.141 69.424 219.285 70.0027 219.575 70.516C219.873 71.02 220.275 71.4167 220.779 71.706C221.283 71.9953 221.847 72.14 222.473 72.14C222.911 72.14 223.336 72.07 223.747 71.93C224.167 71.7807 224.489 71.5753 224.713 71.314V69.914C224.619 70.1193 224.461 70.3153 224.237 70.502C224.013 70.6793 223.747 70.824 223.439 70.936C223.14 71.0387 222.818 71.09 222.473 71.09C222.053 71.09 221.675 70.992 221.339 70.796C221.012 70.5907 220.751 70.3153 220.555 69.97C220.368 69.6247 220.275 69.228 220.275 68.78ZM226.386 65.56V72H227.506V65.56H226.386ZM229.886 65.56L227.086 68.22L230.166 72H231.566L228.486 68.22L231.286 65.56H229.886ZM238.012 66.68L238.082 65.07L232.762 70.88L232.692 72.49L238.012 66.68ZM233.812 65.56H232.692V72.49L233.812 70.95V65.56ZM238.082 65.07L236.962 66.61V72H238.082V65.07ZM243.751 67.492L245.641 71.58H246.901L243.751 65.07L240.601 71.58H241.861L243.751 67.492ZM246.621 72V73.26H247.741V70.95H239.761V73.26H240.951V72H246.621ZM249.355 65.56V72H250.475V65.56H249.355ZM252.855 65.56L250.055 68.22L253.135 72H254.535L251.455 68.22L254.255 65.56H252.855ZM254.826 68.78C254.826 69.424 254.971 70.0027 255.26 70.516C255.559 71.02 255.96 71.4167 256.464 71.706C256.968 71.9953 257.533 72.14 258.158 72.14C258.793 72.14 259.357 71.9953 259.852 71.706C260.356 71.4167 260.753 71.02 261.042 70.516C261.341 70.0027 261.49 69.424 261.49 68.78C261.49 68.1267 261.341 67.548 261.042 67.044C260.753 66.54 260.356 66.1433 259.852 65.854C259.357 65.5647 258.793 65.42 258.158 65.42C257.533 65.42 256.968 65.5647 256.464 65.854C255.96 66.1433 255.559 66.54 255.26 67.044C254.971 67.548 254.826 68.1267 254.826 68.78ZM255.96 68.78C255.96 68.332 256.053 67.9353 256.24 67.59C256.436 67.2353 256.697 66.96 257.024 66.764C257.36 66.568 257.738 66.47 258.158 66.47C258.578 66.47 258.951 66.568 259.278 66.764C259.614 66.96 259.875 67.2353 260.062 67.59C260.258 67.9353 260.356 68.332 260.356 68.78C260.356 69.228 260.258 69.6247 260.062 69.97C259.875 70.3153 259.614 70.5907 259.278 70.796C258.951 70.992 258.578 71.09 258.158 71.09C257.738 71.09 257.36 70.992 257.024 70.796C256.697 70.5907 256.436 70.3153 256.24 69.97C256.053 69.6247 255.96 69.228 255.96 68.78ZM268.419 66.68L268.489 65.07L263.169 70.88L263.099 72.49L268.419 66.68ZM264.219 65.56H263.099V72.49L264.219 70.95V65.56ZM268.489 65.07L267.369 66.61V72H268.489V65.07ZM263.617 62.27C263.617 62.5873 263.696 62.9 263.855 63.208C264.023 63.5067 264.27 63.754 264.597 63.95C264.933 64.1367 265.343 64.23 265.829 64.23C266.323 64.23 266.734 64.1367 267.061 63.95C267.387 63.754 267.63 63.5067 267.789 63.208C267.957 62.9 268.041 62.5873 268.041 62.27H267.047C267.047 62.3913 267.014 62.536 266.949 62.704C266.883 62.8627 266.762 63.0073 266.585 63.138C266.407 63.2593 266.155 63.32 265.829 63.32C265.502 63.32 265.25 63.2593 265.073 63.138C264.895 63.0073 264.774 62.8627 264.709 62.704C264.643 62.536 264.611 62.3913 264.611 62.27H263.617ZM270.937 71.44C270.937 71.6453 271.012 71.8273 271.161 71.986C271.32 72.1353 271.502 72.21 271.707 72.21C271.922 72.21 272.104 72.1353 272.253 71.986C272.403 71.8273 272.477 71.6453 272.477 71.44C272.477 71.2253 272.403 71.0433 272.253 70.894C272.104 70.7447 271.922 70.67 271.707 70.67C271.502 70.67 271.32 70.7447 271.161 70.894C271.012 71.0433 270.937 71.2253 270.937 71.44ZM270.937 66.12C270.937 66.3253 271.012 66.5073 271.161 66.666C271.32 66.8153 271.502 66.89 271.707 66.89C271.922 66.89 272.104 66.8153 272.253 66.666C272.403 66.5073 272.477 66.3253 272.477 66.12C272.477 65.9053 272.403 65.7233 272.253 65.574C272.104 65.4247 271.922 65.35 271.707 65.35C271.502 65.35 271.32 65.4247 271.161 65.574C271.012 65.7233 270.937 65.9053 270.937 66.12Z" fill="#31BD59"/>
<defs>
<filter id="filter0_d_1029_316" x="0" y="0" width="347" height="162" filterUnits="userSpaceOnUse" color-interpolation-filters="sRGB">
<feFlood flood-opacity="0" result="BackgroundImageFix"/>
<feColorMatrix in="SourceAlpha" type="matrix" values="0 0 0 0 0 0 0 0 0 0 0 0 0 0 0 0 0 0 127 0" result="hardAlpha"/>
<feOffset/>
<feGaussianBlur stdDeviation="23"/>
<feComposite in2="hardAlpha" operator="out"/>
<feColorMatrix type="matrix" values="0 0 0 0 0.886275 0 0 0 0 0.886275 0 0 0 0 0.886275 0 0 0 0.4 0"/>
<feBlend mode="normal" in2="BackgroundImageFix" result="effect1_dropShadow_1029_316"/>
<feBlend mode="normal" in="SourceGraphic" in2="effect1_dropShadow_1029_316" result="shape"/>
</filter>
<linearGradient id="paint0_linear_1029_316" x1="60.6094" y1="44.3945" x2="85.3184" y2="149.977" gradientUnits="userSpaceOnUse">
<stop offset="0.119792" stop-color="#2EB955"/>
<stop offset="0.510417" stop-color="#4BDA73"/>
<stop offset="1" stop-color="#2EB955"/>
</linearGradient>
<linearGradient id="paint1_linear_1029_316" x1="284" y1="90" x2="190" y2="90" gradientUnits="userSpaceOnUse">
<stop stop-color="#FF9E57"/>
<stop offset="1" stop-color="#FFD057"/>
</linearGradient>
<linearGradient id="paint2_linear_1029_316" x1="223.571" y1="72.8571" x2="217.451" y2="107.957" gradientUnits="userSpaceOnUse">
<stop offset="0.380208" stop-color="white"/>
<stop offset="0.516131" stop-color="#E7E7E7"/>
<stop offset="0.651042" stop-color="white"/>
</linearGradient>
</defs>
</svg>
