<svg width="16" height="16" viewBox="0 0 16 16" fill="none" xmlns="http://www.w3.org/2000/svg">
<g clip-path="url(#clip0_1_14)">
<path d="M10.1596 8.19557C10.1596 10.7755 8.06963 12.8659 5.49066 12.8659C2.91169 12.8659 0.821747 10.775 0.821747 8.19557C0.821747 5.61614 2.9122 3.52527 5.49066 3.52527C8.06912 3.52527 10.1596 5.61614 10.1596 8.19557Z" fill="#797979"/>
<path d="M11.0979 3.52527C10.0508 3.52527 9.08681 3.87415 8.30781 4.45655L8.31155 4.45701C8.46476 4.60505 8.6338 4.70923 8.76411 4.87965L7.79266 4.89507C7.64043 5.04874 7.50172 5.21593 7.37095 5.38968H9.08399C9.2143 5.54611 9.33478 5.68206 9.44409 5.85483H7.06038C6.97305 6.00522 6.89227 6.15981 6.82174 6.32045H9.71547C9.79113 6.48062 9.85884 6.60161 9.91631 6.77116H6.65034C6.59851 6.93231 6.55415 7.09714 6.52049 7.26526H10.0531C10.0877 7.42686 10.1143 7.57628 10.1325 7.72857H6.45042C6.435 7.88223 6.42706 8.03821 6.42706 8.19562H10.1591C10.1591 8.36096 10.1474 8.51412 10.1306 8.66267H6.45042C6.4663 8.821 6.48966 8.97651 6.52049 9.12972H10.0475C10.0111 9.28103 9.96902 9.43326 9.91626 9.59113H6.63959C6.68907 9.75085 6.74936 9.9059 6.81518 10.0572H9.71547C9.63515 10.2272 9.54408 10.3631 9.44368 10.5224H7.05203C7.14639 10.6858 7.25052 10.8418 7.36352 10.9913L9.08404 11.0169C8.93739 11.193 8.7492 11.299 8.57776 11.4531C8.58708 11.4606 8.30361 11.4522 7.74549 11.4434C8.59456 12.3195 9.78129 12.8659 11.0978 12.8659C13.6773 12.8659 15.7681 10.775 15.7681 8.19562C15.7681 5.61624 13.6777 3.52527 11.0979 3.52527Z" fill="#A6A6A6"/>
</g>
<defs>
<clipPath id="clip0_1_14">
<rect width="14.9464" height="14.9464" fill="white" transform="translate(0.821777 0.722382)"/>
</clipPath>
</defs>
</svg>
