<svg width="16" height="11" viewBox="0 0 16 11" fill="none" xmlns="http://www.w3.org/2000/svg">
<path d="M9.99609 5.2521C9.99609 8.01386 7.75881 10.2516 4.99804 10.2516C2.23727 10.2516 0 8.01337 0 5.2521C0 2.49084 2.23782 0.252579 4.99804 0.252579C7.75827 0.252579 9.99609 2.49084 9.99609 5.2521Z" fill="#797979"/>
<path d="M11.0005 0.252579C9.87962 0.252579 8.8477 0.626052 8.01379 1.24951L8.01779 1.25C8.1818 1.40847 8.36275 1.52001 8.50225 1.70244L7.46233 1.71894C7.29936 1.88344 7.15087 2.06242 7.01088 2.24842H8.84469C8.98418 2.41588 9.11315 2.56141 9.23017 2.74636H6.67842C6.58493 2.90736 6.49846 3.07284 6.42295 3.2448H9.52068C9.60167 3.41627 9.67416 3.54578 9.73568 3.72728H6.23948C6.18399 3.89979 6.1365 4.07625 6.10047 4.25621H9.88214C9.91915 4.42921 9.94761 4.58916 9.96713 4.75218H6.02546C6.00896 4.91668 6.00046 5.08365 6.00046 5.25216H9.99559C9.99559 5.42916 9.98309 5.59311 9.9651 5.75213H6.02546C6.04246 5.92162 6.06746 6.0881 6.10047 6.25211H9.87611C9.83712 6.41408 9.7921 6.57705 9.73562 6.74605H6.22796C6.28093 6.91702 6.34547 7.083 6.41593 7.24498H9.52068C9.4347 7.42697 9.3372 7.57245 9.22973 7.74293H6.66948C6.77049 7.9179 6.88197 8.08487 7.00293 8.24487L8.84474 8.27235C8.68775 8.46081 8.48629 8.57432 8.30276 8.73931C8.31274 8.74732 8.00929 8.73832 7.41182 8.72884C8.32075 9.66677 9.59114 10.2517 11.0005 10.2517C13.7617 10.2517 16 8.01337 16 5.25216C16 2.49095 13.7622 0.252579 11.0005 0.252579Z" fill="#A6A6A6"/>
</svg>
