<svg width="60" height="62" viewBox="0 0 60 62" fill="none" xmlns="http://www.w3.org/2000/svg">
<path d="M7.20117 10.8994H28.8007V21.7978H7.20117V10.8994Z" fill="#C3DAFD"/>
<path d="M17.998 10.8994H28.7978V21.7978H17.998V10.8994Z" fill="#A1B8D8"/>
<path d="M0 18.1641H35.9992V61.9999H0V18.1641Z" fill="#E4F3FF"/>
<path d="M17.998 18.1641H35.9976V61.9999H17.998V18.1641Z" fill="#E4F3FF"/>
<path d="M3.59766 0H32.397V14.5312H3.59766V0Z" fill="#457899"/>
<path d="M17.998 0H32.3977V14.5312H17.998V0Z" fill="#365C75"/>
<path d="M0 26.1562H35.9992V54.0077H0V26.1562Z" fill="#FF5C5C"/>
<path d="M17.998 26.1562H35.9976V54.0077H17.998V26.1562Z" fill="#FF3838"/>
<path d="M21.6016 0H25.2015V7.21644H21.6016V0Z" fill="#274254"/>
<path d="M10.7988 0H14.3987V7.21644H10.7988V0Z" fill="#365C75"/>
<path d="M24.602 38.2656H19.8022V33.4219H16.2022V38.2656H11.4023V41.8984H16.2022V46.7421H19.8022V41.8984H24.602V38.2656Z" fill="#E4F3FF"/>
<path d="M19.798 38.2656V33.4219H17.998V46.7421H19.798V41.8984H24.5979V38.2656H19.798Z" fill="#C3DAFD"/>
<path d="M53.3999 59.3359H39.0002C35.3611 59.3359 32.4004 56.3482 32.4004 52.6758C32.4004 49.0034 35.3611 46.0156 39.0002 46.0156H53.3999C57.0391 46.0156 59.9998 49.0034 59.9998 52.6758C59.9998 56.3482 57.0391 59.3359 53.3999 59.3359Z" fill="#E4F3FF"/>
<path d="M39.0002 59.3349H53.3999C57.0391 59.3349 59.9998 56.3472 59.9998 52.6748H32.4004C32.4004 56.3472 35.3611 59.3349 39.0002 59.3349Z" fill="#C3DAFD"/>
<path d="M53.3991 46.0156H46.1992V59.3359H53.3991C57.0382 59.3359 59.9989 56.3482 59.9989 52.6758C59.9989 49.0034 57.0382 46.0156 53.3991 46.0156Z" fill="#FF5C5C"/>
<path d="M46.1992 59.3349H53.3991C57.0382 59.3349 59.9989 56.3472 59.9989 52.6748H46.1992V59.3349Z" fill="#FF3838"/>
<path d="M53.8479 31.1074L43.6659 41.3827C41.0926 43.9794 36.9056 43.9794 34.3323 41.3827C31.759 38.7859 31.759 34.5605 34.3323 31.9639L44.5144 21.6888C47.0877 19.092 51.2747 19.092 53.848 21.6888C56.4211 24.2855 56.4211 28.5107 53.8479 31.1074Z" fill="#E4F3FF"/>
<path d="M43.6677 41.3825L53.8498 31.1072C56.423 28.5106 56.423 24.2853 53.8498 21.6885L34.334 41.3825C36.9073 43.9793 41.0944 43.9793 43.6677 41.3825Z" fill="#C3DAFD"/>
<path d="M44.5148 21.6888L39.4238 26.8264L48.7573 36.2451L53.8485 31.1075C56.4217 28.5109 56.4217 24.2856 53.8485 21.6888C51.2752 19.092 47.0882 19.092 44.5148 21.6888Z" fill="#5CA2FA"/>
<path d="M48.7585 36.2449L53.8496 31.1072C56.4228 28.5106 56.4228 24.2853 53.8496 21.6885L44.0918 31.5354L48.7585 36.2449Z" fill="#3D6DEF"/>
</svg>
