<svg width="35" height="11" viewBox="0 0 35 11" fill="none" xmlns="http://www.w3.org/2000/svg">
<g clip-path="url(#clip0_1_3)">
<path fill-rule="evenodd" clip-rule="evenodd" d="M10.0271 0.809143V0.813329C10.0229 0.813329 8.69185 0.809143 8.3369 2.06916C8.01154 3.22452 7.0946 6.41431 7.06924 6.50222H6.81571C6.81571 6.50222 5.87764 3.24126 5.54805 2.06497C5.19311 0.804957 3.85784 0.809143 3.85784 0.809143H0.81546V10.3953H3.85784V4.7022H3.98461H4.11137L5.8861 10.3953H7.99886L9.77358 4.70639H10.0271V10.3953H13.0695V0.809143H10.0271Z" fill="#A6A6A6"/>
<path fill-rule="evenodd" clip-rule="evenodd" d="M21.1402 0.809143C21.1402 0.809143 20.2487 0.888679 19.8303 1.8138L17.6753 6.50222H17.4218V0.809143H14.3794V10.3953H17.2528C17.2528 10.3953 18.1866 10.3116 18.6049 9.39062L20.7177 4.7022H20.9712V10.3953H24.0136V0.809143H21.1402Z" fill="#A6A6A6"/>
<path fill-rule="evenodd" clip-rule="evenodd" d="M25.3658 5.16266V10.3953H28.4082V7.33942H31.7041C33.1408 7.33942 34.3577 6.43104 34.8098 5.16266H25.3658Z" fill="#A6A6A6"/>
<path fill-rule="evenodd" clip-rule="evenodd" d="M31.7041 0.809143H24.9391C25.2771 2.63428 26.6588 4.09941 28.4462 4.57662C28.8519 4.68546 29.2787 4.74406 29.7181 4.74406H34.9324C34.9789 4.52639 35 4.30453 35 4.07429C35 2.27009 33.5253 0.809143 31.7041 0.809143Z" fill="#797979"/>
</g>
<defs>
<clipPath id="clip0_1_3">
<rect width="34.1845" height="9.58614" fill="white" transform="translate(0.81546 0.809143)"/>
</clipPath>
</defs>
</svg>
