<svg width="100" height="99" viewBox="0 0 100 99" fill="none" xmlns="http://www.w3.org/2000/svg">
<path d="M79.5555 0.269508C76.7821 0.777321 73.8328 2.08591 72.0946 3.58982C71.0594 4.46873 70.9422 5.36716 71.7625 6.0117C72.4852 6.5781 72.7782 6.53904 74.1649 5.6406C77.2508 3.64841 79.2235 3.02341 82.4852 3.00388C85.3367 3.00388 86.3719 3.23826 89.0086 4.50779C90.786 5.36716 91.2742 5.71873 92.7586 7.18357C94.2235 8.64841 94.5946 9.15623 95.4344 10.9336C96.7039 13.5508 97.1336 15.5429 96.9774 18.1406C96.5867 24.4297 92.2117 29.7617 86.0985 31.3633C84.3602 31.8125 80.7664 31.8125 79.0672 31.3437C70.4539 29 65.9813 20.0547 69.2821 11.7929C69.8094 10.4844 69.868 10.1719 69.6922 9.72263C69.4774 9.23435 68.7938 8.7656 68.2469 8.7656C67.0164 8.7656 65.5321 12.5351 65.2782 16.3437L65.1414 18.1015L63.8524 18.6484C60.9032 19.8789 58.325 21.5781 55.4344 24.2148L53.5789 25.8945L52.0164 24.4492C48.0711 20.7773 44.2625 18.5898 39.8875 17.457C33.2274 15.7187 26.9578 16.8515 21.8992 20.6601C19.8094 22.2422 19.1063 23.0429 19.1063 23.9023C19.1063 24.6054 19.8094 25.3672 20.4735 25.3672C20.6688 25.3672 21.5086 24.7812 22.368 24.0586C24.2625 22.4375 25.6688 21.539 27.3094 20.8554C32.1141 18.9023 37.7977 19.2148 43.0711 21.7539C45.6297 22.9648 47.4657 24.2734 50.0047 26.6562C52.4852 29 53.1883 29.4101 54.1649 29.0781C54.5164 28.9609 55.8055 27.9258 57.0946 26.7148C59.4383 24.5273 61.6063 22.9453 63.7352 21.8906C65.5711 20.9726 65.5516 20.9726 66.0594 22.5351C66.9774 25.4453 68.286 27.5351 70.5711 29.7617C75.4344 34.5273 82.3289 35.9531 88.8328 33.5117L90.5516 32.8476L90.9617 34.2344C91.5672 36.3437 91.743 37.2617 91.9383 39.5664C92.4266 44.9961 91.0008 50.6601 88.0125 55.1719C86.8016 56.9883 85.5321 58.3945 78.5008 65.582C74.0282 70.1523 69.0672 75.2304 67.4852 76.8515L64.5946 79.8203L62.3094 80.2695C61.0203 80.5234 59.3797 80.6992 58.5594 80.6797C57.7 80.6601 54.3211 80.1328 50.2782 79.3906C44.5946 78.3359 43.4032 78.0625 43.0125 77.7109C42.4071 77.125 42.2703 76.3437 42.6219 75.4844C43.1102 74.3125 43.3641 74.2734 48.1492 74.8789C54.1453 75.6211 55.6492 75.6797 57.1922 75.289C63.4032 73.6875 63.6961 66.2461 57.661 63.2578C55.8055 62.3594 48.2078 60.914 44.4969 60.7773C41.5672 60.6797 40.493 60.7969 31.5086 62.3789L26.4305 63.2773L23.5789 60.3672C20.4539 57.1836 19.1258 55.4648 17.7977 52.8281C15.825 48.9219 15.1024 45.3867 15.2586 40.5234C15.3758 36.9101 15.8055 34.8398 17.1336 31.7148C18.0321 29.625 18.1102 29.0586 17.5438 28.4922C17.0555 28.0039 15.9617 27.9648 15.5516 28.4336C14.7899 29.2929 13.4813 32.7109 12.8367 35.5234C12.2703 37.8867 12.1141 43.3554 12.5438 45.875C13.5399 51.9883 15.9422 56.6953 20.493 61.3828L22.8367 63.8242L22.1922 63.9219C18.8719 64.4883 16.7821 64.8203 16.5867 64.8203C16.4696 64.8203 16.3719 64.6054 16.3719 64.3515C16.3719 63.8242 15.5321 62.9062 14.9266 62.75C14.6922 62.7109 11.5086 62.6719 7.83675 62.7109L1.13753 62.7695L0.610184 63.3164L0.0633093 63.8437L0.00471555 77.3008C-0.0148157 85.875 0.0242468 90.9336 0.160966 91.2656C0.258622 91.539 0.629716 91.9492 0.981278 92.164C1.60628 92.5547 1.89925 92.5547 8.40315 92.5156L15.1805 92.457L15.7664 91.8906C16.0985 91.5586 16.3719 91.1094 16.3719 90.8554C16.3719 90.6015 16.4696 90.4062 16.6063 90.4062C16.743 90.4062 23.1297 92.1054 30.825 94.1953C38.5008 96.2851 45.5321 98.1015 46.4305 98.2383C49.9266 98.7265 52.4852 98.2773 60.2 95.7969C62.6805 94.9961 69.0282 92.9648 74.2821 91.2851C79.5555 89.5859 84.2821 87.9844 84.8094 87.7304C86.1571 87.0469 87.5633 85.6601 88.1883 84.3906C88.618 83.4922 88.7352 83.0234 88.7352 81.8125C88.7352 80.5625 88.6571 80.2109 88.1688 79.3125C87.2703 77.7109 85.9813 76.8906 83.7938 76.5C82.2508 76.2461 82.4266 76.207 74.7703 77.789C72.3485 78.2773 70.2586 78.6875 70.1219 78.6875C69.8289 78.6875 71.9578 76.4609 82.3875 65.7578C87.2117 60.8164 89.2625 58.5703 90.161 57.2422C94.9852 50.1719 96.2547 41.1875 93.5985 32.8476L93.0907 31.2461L94.3211 30.1133C100.434 24.4492 101.704 15.582 97.4071 8.31638C96.3328 6.46091 93.4813 3.60935 91.6258 2.53513C87.8953 0.328102 83.5789 -0.472679 79.5555 0.269508ZM50.4344 64.5078C53.0711 64.9961 55.6492 65.5625 56.1571 65.7969C57.2899 66.2851 58.2664 67.1836 58.7938 68.2187C59.9266 70.4258 58.0516 72.6133 55.0438 72.6328C54.5555 72.6328 51.8211 72.3594 48.9696 72.0078C44.3797 71.4609 43.6766 71.4219 42.8758 71.6367C39.4188 72.6133 38.3446 77.2812 41.0203 79.7812C41.3719 80.1328 41.9383 80.5429 42.2703 80.7187C43.3055 81.2265 56.8211 83.6289 58.7547 83.6289C60.0828 83.6289 62.2703 83.2578 69.4969 81.8515C74.4969 80.8554 79.0672 79.9179 79.6532 79.7617C82.2703 79.0781 84.1258 79.2148 85.161 80.2109C86.6258 81.5781 85.5711 84.2734 83.1883 85.2695C81.3719 86.0312 53.7352 94.7617 52.075 95.0937C49.8875 95.5429 48.1102 95.582 46.0594 95.2109C45.2586 95.0547 38.286 93.2187 30.5711 91.1094C22.8563 89 16.4891 87.2812 16.45 87.2812C16.411 87.2812 16.3914 82.9062 16.411 77.5742L16.4696 67.8672L27.2117 66.0508C41.2352 63.6679 41.1375 63.6875 43.5399 63.6679C45.2196 63.6484 46.5672 63.8242 50.4344 64.5078ZM13.4422 77.6133V89.625H8.16878H2.89534V77.6133V65.6015H8.16878H13.4422V77.6133Z" fill="#0BDCB2"/>
<path d="M81.6066 10.5233C81.255 10.8749 81.2159 11.1678 81.2159 13.3553V15.7967H79.087C76.8214 15.7967 75.8449 16.0116 75.5519 16.578C75.2394 17.1835 75.337 17.8475 75.8058 18.2967C76.1964 18.6678 76.5089 18.7264 78.6769 18.7655L81.1183 18.8241L81.1769 21.2655C81.2159 23.4335 81.2745 23.746 81.6456 24.1366C82.0949 24.6053 82.7589 24.703 83.3644 24.3905C83.9308 24.0975 84.1456 23.121 84.1456 20.8553V18.7264H86.587C88.7745 18.7264 89.0675 18.6874 89.4191 18.3358C89.9074 17.8475 89.9269 16.9491 89.4386 16.3632C89.087 15.9139 88.9113 15.8944 86.6261 15.8358L84.1847 15.7577L84.1066 13.3163C84.048 11.0311 84.0284 10.8553 83.5792 10.5038C82.9933 10.0155 82.0949 10.035 81.6066 10.5233Z" fill="#0BDCB2"/>
<path d="M53.0518 37.0855C52.876 37.2027 51.4307 39.5659 49.8292 42.3589C48.2471 45.1519 46.8995 47.437 46.8409 47.437C46.7823 47.437 45.962 46.2066 45.0245 44.7027C43.2667 41.9292 42.7784 41.3823 42.0557 41.3823C41.3917 41.4019 41.0792 41.7925 39.2237 44.8589L37.4463 47.8277H32.9932C28.5987 47.8277 28.5401 47.8277 28.1299 48.2769C27.5245 48.9214 27.5635 49.8394 28.2081 50.3472C28.6963 50.7378 28.9698 50.7573 33.5792 50.7573C36.626 50.7573 38.5987 50.6792 38.8917 50.5425C39.1651 50.4253 39.8877 49.4488 40.6885 48.1011C41.4112 46.8706 42.0948 45.8941 42.1924 45.9136C42.2901 45.9527 43.1299 47.2027 44.087 48.7066C45.9815 51.7144 46.4502 52.1441 47.3682 51.7534C47.8565 51.5581 48.462 50.6597 50.8643 46.4605C52.4463 43.6675 53.794 41.4409 53.8721 41.4995C53.9307 41.5581 55.6885 44.7417 57.7979 48.5698C62.876 57.8277 62.4073 57.6714 66.1182 51.4409L68.6182 47.2613L74.4971 47.2417C80.1417 47.2417 80.3956 47.2222 80.9034 46.8316C81.5674 46.3042 81.6065 45.3277 80.962 44.7417C80.5127 44.312 80.4151 44.312 73.9698 44.312C68.5206 44.312 67.3682 44.3511 67.0167 44.605C66.8018 44.7613 65.7471 46.3433 64.6924 48.1206C63.6377 49.898 62.7198 51.2847 62.6417 51.2066C62.5635 51.1089 60.8057 47.9644 58.7549 44.2144C56.6846 40.4448 54.8682 37.2613 54.6924 37.1245C54.3213 36.8511 53.5206 36.8316 53.0518 37.0855Z" fill="#0BDCB2"/>
</svg>
