<svg width="64" height="57" viewBox="0 0 64 57" fill="none" xmlns="http://www.w3.org/2000/svg">
<path opacity="0.4" fill-rule="evenodd" clip-rule="evenodd" d="M32.0511 16.5021C36.1446 13.4584 39.3088 13.4256 44.013 14.5091C48.6516 15.5775 51.6894 17.048 53.5339 21.4504C55.0327 25.0277 55.302 28.8358 54.6645 32.8159C53.949 37.2826 52.9628 41.7835 49.7485 45.0833C45.69 49.2498 40.5357 53.7799 35.106 52.8947C29.6503 52.0053 27.1335 46.0111 24.8058 41.0168C22.798 36.709 21.6786 31.9029 23.0926 27.1187C24.4418 22.5535 28.2074 19.3601 32.0511 16.5021Z" fill="url(#paint0_linear_951_301)"/>
<path d="M38.0252 0.134773C36.6996 0.389336 35.2899 1.04532 34.4591 1.79921C33.9643 2.23979 33.9083 2.69017 34.3004 3.01327C34.6458 3.2972 34.7858 3.27762 35.4486 2.82724C36.9236 1.82858 37.8665 1.51527 39.4255 1.50549C40.7884 1.50549 41.2832 1.62297 42.5435 2.25938C43.393 2.69017 43.6264 2.86641 44.3359 3.60071C45.036 4.33502 45.2134 4.58958 45.6148 5.48055C46.2216 6.79251 46.427 7.79117 46.3523 9.09335C46.1656 12.246 44.0745 14.9189 41.1525 15.7217C40.3217 15.9469 38.604 15.9469 37.7918 15.7119C33.6749 14.537 31.5371 10.0528 33.1148 5.91134C33.3668 5.25536 33.3948 5.09871 33.3108 4.87352C33.2081 4.62875 32.8814 4.39377 32.62 4.39377C32.0319 4.39377 31.3224 6.28339 31.201 8.19259L31.1357 9.07376L30.5195 9.3479C29.1099 9.96473 27.8776 10.8165 26.496 12.1383L25.6091 12.9803L24.8623 12.2558C22.9766 10.4151 21.1562 9.31853 19.0651 8.75067C15.8817 7.87929 12.8851 8.44715 10.4672 10.3564C9.46831 11.1494 9.13224 11.5508 9.13224 11.9816C9.13224 12.3341 9.46831 12.7159 9.78571 12.7159C9.87907 12.7159 10.2805 12.4222 10.6912 12.06C11.5968 11.2473 12.2689 10.7969 13.0531 10.4543C15.3496 9.47519 18.0662 9.63184 20.5867 10.9046C21.8097 11.5117 22.6872 12.1677 23.9008 13.3621C25.0864 14.537 25.4224 14.7426 25.8892 14.5762C26.0572 14.5174 26.6734 13.9985 27.2895 13.3915C28.4098 12.2949 29.446 11.5019 30.4635 10.9732C31.3411 10.513 31.3317 10.513 31.5744 11.2963C32.0132 12.7551 32.6387 13.8027 33.7309 14.9189C36.0554 17.3078 39.3508 18.0225 42.4595 16.7987L43.281 16.4658L43.477 17.161C43.7664 18.2184 43.8504 18.6785 43.9438 19.8338C44.1772 22.5557 43.4957 25.395 42.0674 27.6567C41.4886 28.5672 40.8818 29.2722 37.5211 32.8752C35.3833 35.1662 33.0121 37.7118 32.2559 38.5245L30.8743 40.0127L29.7821 40.2378C29.1659 40.3651 28.3818 40.4532 27.9897 40.4435C27.5789 40.4337 25.9639 40.1693 24.0315 39.7973C21.3149 39.2686 20.7454 39.1315 20.5587 38.9553C20.2693 38.6615 20.204 38.2699 20.372 37.8391C20.6054 37.2517 20.7268 37.2321 23.0139 37.5356C25.8799 37.9076 26.5987 37.937 27.3362 37.7412C30.3048 36.9383 30.4449 33.2081 27.5602 31.7101C26.6734 31.2597 23.0419 30.5352 21.2682 30.4666C19.8679 30.4177 19.3545 30.4764 15.0602 31.2695L12.633 31.7199L11.27 30.261C9.77638 28.6651 9.14157 27.8035 8.50677 26.4818C7.5639 24.5236 7.21849 22.7515 7.29317 20.3136C7.34918 18.5023 7.55456 17.4645 8.18937 15.8979C8.61879 14.8503 8.65613 14.5664 8.38541 14.2825C8.15202 14.0377 7.62924 14.0181 7.4332 14.2531C7.06912 14.6839 6.44365 16.3973 6.13559 17.8071C5.86486 18.9918 5.79018 21.7333 5.99556 22.9963C6.47166 26.0608 7.61991 28.4204 9.79505 30.7702L10.9153 31.994L10.6072 32.043C9.02021 32.3269 8.02133 32.4933 7.92798 32.4933C7.87196 32.4933 7.82529 32.3856 7.82529 32.2584C7.82529 31.994 7.42387 31.5338 7.13447 31.4555C7.02245 31.4359 5.50078 31.4163 3.74573 31.4359L0.543705 31.4653L0.29165 31.7394L0.03026 32.0038L0.0022539 38.7496C-0.00708147 43.0478 0.0115893 45.5836 0.0769368 45.7501C0.123614 45.8871 0.300985 46.0927 0.469022 46.2004C0.767753 46.3963 0.907784 46.3963 4.01646 46.3767L7.25583 46.3473L7.53589 46.0634C7.69459 45.8969 7.82529 45.6717 7.82529 45.5445C7.82529 45.4172 7.87196 45.3193 7.93731 45.3193C8.00266 45.3193 11.0553 46.1711 14.7335 47.2187C18.4023 48.2663 21.763 49.1768 22.1924 49.2454C23.8634 49.4901 25.0864 49.265 28.7738 48.0215C29.9594 47.6201 32.9934 46.6019 35.5046 45.7598C38.0252 44.9081 40.2843 44.1052 40.5364 43.9779C41.1805 43.6352 41.8527 42.9401 42.1514 42.3037C42.3568 41.8533 42.4128 41.6183 42.4128 41.0113C42.4128 40.3847 42.3755 40.2085 42.1421 39.7581C41.7126 38.9553 41.0965 38.544 40.0509 38.3482C39.3135 38.2209 39.3975 38.2014 35.738 38.9944C34.5804 39.2392 33.5815 39.4448 33.5162 39.4448C33.3762 39.4448 34.3937 38.3286 39.3788 32.9633C41.6846 30.4862 42.6648 29.3603 43.0943 28.6945C45.4001 25.1502 46.0069 20.6465 44.7373 16.4658L44.4946 15.663L45.0827 15.0951C48.0047 12.2558 48.6115 7.81075 46.5577 4.16858C46.0443 3.23845 44.6813 1.809 43.7944 1.2705C42.0114 0.164146 39.9483 -0.237274 38.0252 0.134773ZM24.1062 32.3367C25.3664 32.5814 26.5987 32.8654 26.8414 32.9829C27.3829 33.2276 27.8496 33.678 28.1017 34.1969C28.6431 35.3033 27.7469 36.3999 26.3093 36.4096C26.0759 36.4096 24.769 36.2726 23.406 36.0963C21.2122 35.8222 20.8761 35.8026 20.4934 35.9103C18.841 36.3999 18.3276 38.7399 19.6065 39.9931C19.7745 40.1693 20.0453 40.3749 20.204 40.463C20.6987 40.7176 27.1588 41.9219 28.083 41.9219C28.7178 41.9219 29.7634 41.7358 33.2175 41.0309C35.6073 40.5316 37.7918 40.0616 38.0719 39.9833C39.3228 39.6406 40.2096 39.7091 40.7044 40.2085C41.4046 40.8938 40.9005 42.245 39.7616 42.7443C38.8934 43.1261 25.6838 47.5026 24.8903 47.6691C23.8448 47.8942 22.9952 47.9138 22.015 47.7278C21.6323 47.6495 18.2996 46.7291 14.6121 45.6717C10.9246 44.6143 7.8813 43.7527 7.86263 43.7527C7.84396 43.7527 7.83462 41.5596 7.84396 38.8867L7.87196 34.0207L13.0064 33.1102C19.7092 31.9157 19.6625 31.9255 20.8108 31.9157C21.6136 31.9059 22.2578 31.994 24.1062 32.3367ZM6.42498 38.9063V44.9276H3.90443H1.38389V38.9063V32.885H3.90443H6.42498V38.9063Z" fill="#0BDCB2"/>
<path d="M39.0058 5.27627C38.8377 5.45251 38.8191 5.59937 38.8191 6.69594V7.91978H37.8015C36.7186 7.91978 36.2518 8.02748 36.1118 8.31142C35.9624 8.61493 36.0091 8.94782 36.2332 9.173C36.4199 9.35903 36.5692 9.3884 37.6055 9.40798L38.7724 9.43736L38.8004 10.6612C38.8191 11.748 38.8471 11.9046 39.0244 12.1005C39.2391 12.3354 39.5566 12.3844 39.8459 12.2277C40.1167 12.0809 40.2194 11.5913 40.2194 10.4556V9.3884H41.3863C42.4318 9.3884 42.5719 9.36882 42.7399 9.19259C42.9733 8.94782 42.9826 8.49744 42.7492 8.20372C42.5812 7.97853 42.4972 7.96874 41.405 7.93937L40.238 7.9002L40.2007 6.67635C40.1727 5.53083 40.1634 5.44272 39.9486 5.26648C39.6686 5.02171 39.2391 5.0315 39.0058 5.27627Z" fill="#0BDCB2"/>
<path d="M25.358 18.5894C25.274 18.6481 24.5832 19.8328 23.8177 21.2329C23.0615 22.6329 22.4174 23.7785 22.3894 23.7785C22.3614 23.7785 21.9693 23.1616 21.5212 22.4078C20.681 21.0175 20.4476 20.7433 20.1022 20.7433C19.7848 20.7531 19.6354 20.9489 18.7486 22.4861L17.8991 23.9743H15.7706C13.6702 23.9743 13.6421 23.9743 13.4461 24.1995C13.1567 24.5226 13.1754 24.9827 13.4834 25.2373C13.7168 25.4331 13.8475 25.4429 16.0507 25.4429C17.507 25.4429 18.4499 25.4037 18.5899 25.3352C18.7206 25.2765 19.066 24.7869 19.4487 24.1114C19.7941 23.4945 20.1209 23.005 20.1676 23.0148C20.2142 23.0344 20.6157 23.661 21.0731 24.4149C21.9786 25.9227 22.2027 26.138 22.6414 25.9422C22.8748 25.8443 23.1642 25.3939 24.3125 23.2889C25.0686 21.8888 25.7128 20.7727 25.7501 20.8021C25.7781 20.8314 26.6183 22.4273 27.6265 24.3463C30.0537 28.9872 29.8297 28.9088 31.6034 25.7856L32.7983 23.6904L35.6082 23.6806C38.3062 23.6806 38.4275 23.6708 38.6702 23.475C38.9877 23.2106 39.0063 22.7211 38.6983 22.4273C38.4835 22.2119 38.4369 22.2119 35.3562 22.2119C32.7516 22.2119 32.2008 22.2315 32.0328 22.3588C31.9301 22.4371 31.426 23.2302 30.9219 24.1211C30.4178 25.0121 29.979 25.7073 29.9417 25.6681C29.9043 25.6191 29.0642 24.0428 28.084 22.163C27.0944 20.2734 26.2262 18.6775 26.1422 18.6089C25.9648 18.4719 25.5821 18.4621 25.358 18.5894Z" fill="#0BDCB2"/>
<defs>
<linearGradient id="paint0_linear_951_301" x1="30.6668" y1="17.1877" x2="50.2436" y2="45.931" gradientUnits="userSpaceOnUse">
<stop stop-color="#9BFFEB"/>
<stop offset="1" stop-color="#0BDCB2" stop-opacity="0.02"/>
</linearGradient>
</defs>
</svg>
