<svg width="30" height="13" viewBox="0 0 30 13" fill="none" xmlns="http://www.w3.org/2000/svg">
<g clip-path="url(#clip0_1_57)">
<path d="M14.7965 7.28086H15.2358V8.26493H15.5532L16.1228 7.28086H16.603L15.9194 8.43581V8.4439L16.6438 9.70425H16.1473L15.5613 8.64688H15.2442V9.70425H14.8046V7.28061H14.7965V7.28086ZM17.6283 7.92343C18.1569 7.92343 18.5883 8.30563 18.5883 8.83419C18.5883 9.37109 18.1652 9.7452 17.6364 9.7452C17.1073 9.7452 16.6842 9.37109 16.6842 8.83419C16.6761 8.29754 17.0992 7.92343 17.6283 7.92343V7.92343ZM18.93 7.96387H19.345V9.33039H19.8903V7.96412H20.305V9.33039H20.8503V7.96412H21.2653V9.70425H18.9462V7.96387H18.93ZM22.4942 7.92343C22.9904 7.92343 23.2671 8.28945 23.2671 8.74496C23.2657 8.80214 23.2603 8.85916 23.2509 8.91558H22.0546C22.0792 9.21639 22.3151 9.37918 22.5756 9.37918C22.7544 9.37918 22.9335 9.29779 23.0718 9.19212L23.2428 9.50127C23.0637 9.65547 22.7951 9.75329 22.543 9.75329C21.9651 9.75329 21.6073 9.33848 21.6073 8.84228C21.6073 8.29754 21.9732 7.92343 22.4942 7.92343V7.92343ZM23.4704 9.33848C23.6821 9.30587 23.8366 9.12716 23.8366 8.50886V7.96412H25.1062V9.70425H24.6747V8.31346H24.2516V8.50861C24.2516 9.26492 24.0483 9.70425 23.4704 9.72043V9.33823V9.33848ZM26.3429 7.92343C26.8391 7.92343 27.1158 8.28945 27.1158 8.74496C27.1144 8.80214 27.109 8.85916 27.0996 8.91558H25.9033C25.9279 9.21639 26.1638 9.37918 26.4243 9.37918C26.6031 9.37918 26.7822 9.29779 26.9205 9.19212L27.0915 9.50127C26.9124 9.65547 26.6438 9.75329 26.3917 9.75329C25.8141 9.75329 25.456 9.33848 25.456 8.84228C25.456 8.29754 25.8222 7.92343 26.3429 7.92343V7.92343ZM27.4739 7.96387H27.9051V8.63095H28.1168L28.5399 7.96412H29.0199L28.4665 8.79349V8.80183L29.0849 9.70425H28.5806L28.1249 8.99698H27.8972V9.70425H27.4655V7.96387H27.4736H27.4739ZM17.6283 9.37109C17.9131 9.37109 18.149 9.15143 18.149 8.8261C18.149 8.50886 17.9131 8.28111 17.6281 8.28111C17.3435 8.28111 17.1157 8.50103 17.1157 8.8261C17.1157 9.15143 17.3433 9.37109 17.6283 9.37109ZM22.8278 8.61478C22.8278 8.38702 22.673 8.24875 22.4778 8.24875C22.2582 8.24875 22.0954 8.39511 22.0546 8.61478H22.8278ZM26.6765 8.61478C26.6765 8.38702 26.5219 8.24875 26.3267 8.24875C26.1067 8.24875 25.9441 8.39511 25.9033 8.61478H26.6765Z" fill="#797979"/>
<path d="M20.8749 2.0026V6.10976C20.8752 6.12479 20.8725 6.13973 20.8669 6.15369C20.8613 6.16765 20.8529 6.18033 20.8423 6.19096C20.8317 6.20159 20.819 6.20996 20.805 6.21555C20.7911 6.22115 20.7761 6.22385 20.7611 6.22351H19.9229C19.9079 6.22385 19.8929 6.22115 19.879 6.21555C19.865 6.20996 19.8523 6.20159 19.8417 6.19096C19.8311 6.18033 19.8227 6.16765 19.8171 6.15369C19.8115 6.13973 19.8088 6.12479 19.8091 6.10976V2.0026C19.8088 1.98757 19.8115 1.97262 19.8171 1.95867C19.8227 1.94471 19.8311 1.93203 19.8417 1.9214C19.8523 1.91077 19.865 1.9024 19.879 1.89681C19.8929 1.89121 19.9079 1.88851 19.9229 1.88885H20.7611C20.7761 1.88851 20.7911 1.89121 20.805 1.89681C20.819 1.9024 20.8317 1.91077 20.8423 1.9214C20.8529 1.93203 20.8613 1.94471 20.8669 1.95867C20.8725 1.97262 20.8752 1.98757 20.8749 2.0026ZM27.417 1.88885C27.4496 1.88885 27.4903 1.90503 27.5308 1.93764C27.5553 1.9619 27.5553 2.0026 27.5472 2.03521L26.1639 6.15045C26.1555 6.17175 26.1409 6.19008 26.1221 6.20313C26.1033 6.21617 26.081 6.22335 26.0581 6.22376H25.3095C25.2607 6.22376 25.22 6.19924 25.2038 6.15045L24.3978 3.75133L23.5923 6.1502C23.5839 6.1715 23.5694 6.18983 23.5506 6.20287C23.5318 6.21592 23.5095 6.2231 23.4866 6.22351H22.738C22.6892 6.22351 22.6485 6.19924 22.6323 6.1502L21.2489 2.03496C21.2408 2.0026 21.2408 1.96999 21.2651 1.93764C21.2815 1.90503 21.3223 1.88885 21.3546 1.88885H22.2904C22.3392 1.88885 22.3799 1.92121 22.3963 1.96999L23.1366 4.40173L23.9504 1.96999C23.9588 1.9487 23.9734 1.93037 23.9922 1.91732C24.011 1.90427 24.0333 1.89709 24.0562 1.89669H24.7152C24.764 1.89669 24.8047 1.92121 24.8209 1.96999L25.6348 4.40173L26.3753 1.96999C26.3819 1.94696 26.3958 1.92665 26.4148 1.91205C26.4338 1.89745 26.457 1.88932 26.481 1.88885H27.4167H27.417ZM28.8328 1.88885C28.8897 1.88885 28.9385 1.93764 28.9466 2.0026V6.10976C28.9469 6.12479 28.9442 6.13973 28.9386 6.15369C28.933 6.16765 28.9246 6.18033 28.914 6.19096C28.9034 6.20159 28.8907 6.20996 28.8767 6.21555C28.8628 6.22115 28.8478 6.22385 28.8328 6.22351H27.9946C27.9796 6.22385 27.9646 6.22115 27.9507 6.21555C27.9367 6.20996 27.924 6.20159 27.9134 6.19096C27.9028 6.18033 27.8944 6.16765 27.8888 6.15369C27.8832 6.13973 27.8805 6.12479 27.8808 6.10976V2.0026C27.8805 1.98757 27.8832 1.97262 27.8888 1.95867C27.8944 1.94471 27.9028 1.93203 27.9134 1.9214C27.924 1.91077 27.9367 1.9024 27.9507 1.89681C27.9646 1.89121 27.9796 1.88851 27.9946 1.88885H28.8328ZM19.3208 6.0774C19.3696 6.13427 19.3289 6.21542 19.2555 6.21542H18.2302C18.2101 6.21596 18.19 6.21184 18.1717 6.20338C18.1533 6.19492 18.1372 6.18234 18.1245 6.16663L17.9538 5.95531C17.5957 6.18281 17.1723 6.32133 16.725 6.32133C15.4721 6.32133 14.4549 5.30465 14.4549 4.05213C14.4549 2.79961 15.4721 1.78294 16.725 1.78294C17.9781 1.78294 18.9953 2.79961 18.9953 4.05213C18.9953 4.49955 18.865 4.92245 18.6372 5.28013L19.3208 6.07715V6.0774ZM10.7524 8.0698C10.964 8.1512 11.0455 8.46818 11.0617 8.60645C11.0943 8.85873 11.0212 8.9563 10.9398 8.9563C10.8583 8.9563 10.7443 8.85873 10.6224 8.66358C10.5002 8.46818 10.4514 8.24877 10.5167 8.13477C10.5571 8.06146 10.6467 8.02911 10.7526 8.0698H10.7524ZM9.51567 8.98891C9.64591 8.98891 9.79234 9.04578 9.92259 9.15953C10.1747 9.37111 10.2481 9.61504 10.1178 9.79401C10.0445 9.88349 9.92259 9.94037 9.78425 9.94037C9.64591 9.94037 9.49948 9.89158 9.40186 9.8021C9.17399 9.60695 9.109 9.28137 9.25517 9.10266C9.31233 9.02935 9.40186 8.98891 9.51567 8.98891V8.98891ZM6.66796 11.3392C3.5757 11.3392 1.06967 8.83421 1.06967 5.74373C1.06967 2.65326 3.57595 0.148468 6.66771 0.148468C9.75972 0.148468 12.266 2.65351 12.266 5.74373C12.266 6.79276 11.9731 7.77709 11.4769 8.6148C11.4605 8.63906 11.4198 8.63097 11.4117 8.59837C11.2164 7.22401 10.3783 6.46744 9.15781 6.23994C9.05184 6.22351 9.03565 6.15854 9.17399 6.14236C9.54829 6.10976 10.0771 6.11784 10.3538 6.16663C10.37 6.02836 10.3783 5.882 10.3783 5.73564C10.3783 3.6942 8.71826 2.03496 6.6758 2.03496C4.6336 2.03496 2.97354 3.6942 2.97354 5.73564C2.97354 7.77709 4.6336 9.43633 6.67606 9.43633H6.84677C6.78877 9.10613 6.7642 8.77094 6.77342 8.43583C6.78177 8.20807 6.83058 8.17547 6.9282 8.35443C7.44084 9.24093 8.17325 10.0379 9.60519 10.3552C10.7769 10.6155 11.9486 10.9163 13.2098 12.5185C13.3236 12.6567 13.1529 12.8031 13.0227 12.6893C11.7372 11.5506 10.5655 11.1765 9.49948 11.1765C8.30324 11.1848 7.48965 11.3392 6.66771 11.3392H6.66796ZM17.2864 5.16638L16.8388 4.62139C16.7902 4.56452 16.8309 4.47503 16.904 4.47503H17.8479C17.8967 4.34485 17.9212 4.19849 17.9212 4.05213C17.9212 3.37721 17.4167 2.79153 16.725 2.79153C16.0335 2.79153 15.5287 3.37721 15.5287 4.05213C15.5287 4.72705 16.0335 5.30465 16.725 5.30465C16.9202 5.31274 17.1157 5.25587 17.2864 5.16638V5.16638Z" fill="#A6A6A6"/>
</g>
<defs>
<clipPath id="clip0_1_57">
<rect width="28.2681" height="12.8344" fill="white" transform="translate(0.943237 0.0220947)"/>
</clipPath>
</defs>
</svg>
