<svg width="62" height="8" viewBox="0 0 62 8" fill="none" xmlns="http://www.w3.org/2000/svg">
<g clip-path="url(#clip0_1_53)">
<path d="M1.31171 0.574805C1.07359 0.684255 0.861209 0.909593 0.77111 1.14781C0.72606 1.27013 0.700317 2.41614 0.700317 4.51501V7.6955H2.18052V5.69964H4.14983L4.66469 6.69757L5.1731 7.6955H6.02905C6.49241 7.6955 6.87855 7.67618 6.87855 7.65687C6.87855 7.63111 6.61469 7.10318 6.28647 6.48511L5.70083 5.35198L5.85528 5.2554C6.7241 4.6824 7.11024 3.55571 6.87855 2.26806C6.73053 1.4826 6.35083 0.928908 5.76518 0.671378C5.43696 0.523299 5.37904 0.516861 3.46765 0.503984C1.92309 0.491108 1.46616 0.503984 1.31171 0.574805ZM5.04439 2.02985C5.14736 2.06848 5.25033 2.18436 5.30825 2.33244C5.43053 2.62216 5.4434 3.36256 5.33399 3.58146C5.05726 4.11584 4.71617 4.21885 3.26171 4.21885H2.18052V1.96546H3.52557C4.26567 1.96546 4.94785 1.99122 5.04439 2.02985ZM9.06668 0.542614C8.42955 0.735761 7.97262 1.19288 7.77955 1.81738C7.62509 2.31957 7.45776 3.5042 7.45776 4.07721C7.45776 4.63089 7.61222 5.75759 7.74737 6.2147C7.98549 7.0066 8.39093 7.41221 9.13747 7.60536C9.45925 7.68906 9.80034 7.70193 10.8944 7.68262C12.1494 7.6633 12.2781 7.64399 12.5934 7.50879C13.5009 7.10318 13.8934 6.07306 13.8934 4.09008C13.887 2.00409 13.4815 0.973976 12.5226 0.619872C12.1815 0.497546 12.0335 0.484669 10.6885 0.491108C9.88401 0.491108 9.15678 0.516861 9.06668 0.542614ZM12.0593 2.11354C12.4905 2.70586 12.484 5.62238 12.0464 6.05375C11.9177 6.18895 9.43995 6.19539 9.33054 6.06662C9.02806 5.69964 8.91866 3.58146 9.15034 2.58997C9.24688 2.19724 9.29836 2.07491 9.40777 2.02985C9.485 1.99766 10.0964 1.97834 10.7593 1.98478C11.8469 1.99766 11.982 2.01053 12.0593 2.11354ZM15.2835 0.626311C15.1419 0.710008 14.9682 0.877402 14.8974 0.999728C14.7687 1.21863 14.7622 1.33452 14.7429 3.90981C14.7301 5.70608 14.7494 6.67825 14.7944 6.85852C14.9038 7.2577 15.187 7.54742 15.5731 7.62467C15.9721 7.71481 18.8103 7.71481 19.3187 7.63111C20.3098 7.47016 20.8182 6.89072 20.889 5.82841C20.934 5.22965 20.8375 4.78541 20.5865 4.38624L20.3999 4.09652L20.638 3.63297C20.8697 3.18873 20.8761 3.14366 20.8761 2.51915C20.8761 1.98478 20.8439 1.81095 20.7281 1.54698C20.5415 1.14137 20.3162 0.903155 19.9108 0.690693L19.589 0.516861L17.5618 0.497546C15.5538 0.484669 15.5345 0.484669 15.2835 0.626311ZM19.2672 2.04272C19.3573 2.13286 19.4152 2.56422 19.3573 2.76381C19.3251 2.87969 19.2222 3.04065 19.1321 3.13079C18.9712 3.2853 18.9454 3.2853 17.6197 3.30462L16.2746 3.32393V1.95903L17.7484 1.97834C18.5593 1.99122 19.2415 2.01697 19.2672 2.04272ZM18.984 4.91418C19.2415 5.01719 19.383 5.29403 19.3766 5.66101C19.3702 5.89279 19.338 6.00868 19.2608 6.06662C19.1771 6.131 18.7717 6.15032 17.7098 6.15032H16.2746V4.78541L17.5489 4.81117C18.2439 4.83048 18.8939 4.87555 18.984 4.91418ZM23.0449 0.619872C22.4207 0.864525 22.1053 1.30233 21.8608 2.26806C21.7385 2.75737 21.7192 3.0149 21.7192 4.09008C21.7192 5.26184 21.7321 5.39061 21.893 5.98936C22.0925 6.71688 22.2791 7.03236 22.6524 7.3092C23.1157 7.63755 23.2573 7.6633 24.8984 7.6633C26.5395 7.6633 26.6811 7.63755 27.1445 7.3092C27.5177 7.03236 27.7044 6.71688 27.9039 5.98936C28.0648 5.39061 28.0776 5.26184 28.0776 4.09008C28.0776 3.0149 28.0583 2.75737 27.936 2.26806C27.6915 1.28945 27.3761 0.858087 26.7326 0.619872C26.4044 0.497546 26.2435 0.484669 24.8791 0.491108C23.534 0.491108 23.3538 0.503984 23.0449 0.619872ZM26.1469 2.02985C26.3207 2.09423 26.3979 2.29381 26.5202 3.02134C26.6747 3.91625 26.5395 5.60307 26.2821 5.9958C26.1855 6.15032 26.1791 6.15032 24.8984 6.15032C23.3925 6.15032 23.4826 6.19539 23.3152 5.3391C23.0771 4.15446 23.2702 2.17793 23.6306 2.02985C23.8237 1.95259 25.941 1.95259 26.1469 2.02985Z" fill="#797979"/>
<path d="M29.2811 0.684278L29.0816 0.883863V7.25772L29.2682 7.44443C29.4355 7.60539 29.5063 7.63114 29.8345 7.63114C30.1499 7.63114 30.24 7.60539 30.3558 7.48306C30.5811 7.24484 30.6261 6.968 30.6261 5.84775V4.79831H31.5722L32.0484 5.21036C33.0009 6.02802 33.3291 6.46582 33.3291 6.90362C33.3291 7.14827 33.3613 7.22553 33.5479 7.41224C33.741 7.60539 33.8054 7.63114 34.095 7.63114C34.3653 7.63114 34.4554 7.59895 34.6291 7.44443C34.8351 7.26416 34.8415 7.23841 34.8351 6.76841C34.8286 6.36281 34.7964 6.21473 34.6291 5.8735C34.4039 5.42282 33.7474 4.61804 33.3355 4.28969L33.0652 4.07723L33.4836 3.69737C33.9855 3.23382 34.4489 2.63506 34.6677 2.16507C34.79 1.89467 34.8286 1.70152 34.8351 1.34098C34.8415 0.877426 34.8351 0.851672 34.6291 0.671402C34.4425 0.504007 34.3717 0.484693 34.0113 0.484693C33.638 0.484693 33.5801 0.504007 33.4643 0.652087C33.3742 0.767975 33.3291 0.916055 33.3291 1.1092C33.3291 1.26372 33.2905 1.48262 33.239 1.59851C33.1296 1.86891 32.6405 2.40329 32.0484 2.91191L31.5722 3.31752H30.6261V2.26809C30.6261 1.69508 30.594 1.11564 30.5618 0.986875C30.4652 0.63921 30.2336 0.484693 29.8152 0.484693C29.5256 0.484693 29.4484 0.510446 29.2811 0.684278ZM37.4737 0.574828C36.6049 0.851672 36.1286 1.46974 35.794 2.73164C35.6395 3.2982 35.6266 3.49135 35.6009 5.12666C35.5623 7.05814 35.588 7.2706 35.8841 7.50237C36.0964 7.66977 36.6435 7.67621 36.843 7.51525C37.0747 7.32854 37.1262 7.14827 37.1262 6.47869V5.82843H40.4727V6.54308C40.4727 7.24484 40.4727 7.25772 40.6593 7.44443C40.8267 7.60539 40.8975 7.63114 41.2128 7.63114C41.541 7.63114 41.5989 7.61182 41.7727 7.42511L41.9593 7.21909L41.94 5.15885C41.9143 3.25314 41.9014 3.05355 41.7727 2.62219C41.4638 1.60495 41.0133 0.967561 40.4083 0.684278C40.0737 0.52976 39.9836 0.516884 38.896 0.504007C38.0722 0.491131 37.6603 0.510446 37.4737 0.574828ZM39.694 2.03631C40.0479 2.15864 40.3504 2.93766 40.4341 3.90984L40.4663 4.34764H37.1068L37.1519 3.83258C37.2291 2.92479 37.5831 2.07494 37.9113 2.01056C38.2267 1.95261 39.5009 1.97193 39.694 2.03631ZM43.9801 0.574828C43.3494 0.774413 42.9955 1.08345 42.7767 1.64358C42.6673 1.92686 42.6351 2.13288 42.6351 2.6415C42.6351 3.67162 42.944 4.2575 43.6712 4.6116C43.9608 4.75325 44.0767 4.76612 45.3445 4.79831C46.6574 4.8305 46.7153 4.83694 46.8569 4.97858C47.0435 5.16529 47.0628 5.71254 46.8891 5.97651L46.7796 6.15034H45.0485C43.4138 6.15034 43.3108 6.15678 43.1564 6.27911C42.796 6.56239 42.7831 7.18046 43.1242 7.47018L43.3173 7.63114H45.19C46.2326 7.63114 47.1722 7.59895 47.3009 7.56676C47.6549 7.47018 48.0346 7.09676 48.2727 6.6139C48.4722 6.20829 48.4851 6.15034 48.4851 5.47433C48.4851 4.84338 48.4658 4.72749 48.3178 4.41202C48.1054 3.96134 47.8158 3.62655 47.5004 3.47204C47.2945 3.36902 47.0564 3.34327 45.795 3.31752C44.0895 3.27889 44.141 3.30464 44.141 2.6415C44.141 1.97193 44.0445 2.00412 46.0975 1.96549L47.8737 1.9333L48.0475 1.75946C48.2019 1.60495 48.2212 1.52769 48.247 1.03838L48.2792 0.484693L46.2584 0.491131C44.8168 0.491131 44.1668 0.516884 43.9801 0.574828ZM50.3514 0.574828C50.2099 0.619896 50.0103 0.703593 49.9009 0.755099C49.0707 1.1929 48.7232 2.66082 49.1995 3.70381C49.399 4.14161 49.6178 4.37339 50.0297 4.59229C50.3386 4.75968 50.3901 4.76612 51.6386 4.78544C52.3465 4.79187 53.0029 4.83694 53.0995 4.86913C53.3247 4.95927 53.4341 5.28762 53.3762 5.67391C53.3054 6.16322 53.3569 6.15034 51.4069 6.15034H49.6628L49.4762 6.33705C49.3153 6.50445 49.2896 6.57527 49.2896 6.89074C49.2896 7.20621 49.3153 7.27704 49.4762 7.44443L49.6628 7.63114H51.6064C53.7688 7.63114 53.8203 7.6247 54.2708 7.19334C54.6633 6.81348 54.8435 6.36281 54.8757 5.62241C54.9143 4.76612 54.7534 4.26394 54.2772 3.79395C54.0648 3.58149 53.8524 3.43341 53.6915 3.38834C53.55 3.34971 52.9064 3.31752 52.2435 3.31752C51.5807 3.31752 50.9564 3.2982 50.847 3.27889C50.6153 3.23382 50.5123 3.03424 50.5123 2.6415C50.5123 2.24877 50.6153 2.04919 50.847 2.00412C50.9564 1.9848 51.7351 1.96549 52.5846 1.96549C54.5861 1.96549 54.6312 1.93973 54.6312 0.967561V0.484693L52.6232 0.491131C51.1881 0.491131 50.5316 0.516884 50.3514 0.574828ZM57.4049 0.613457C57.2183 0.67784 56.9609 0.813043 56.8386 0.909616C56.3237 1.30235 55.8604 2.33247 55.7317 3.3819C55.6351 4.11586 55.6416 6.97444 55.7317 7.23841C55.8218 7.4895 56.0792 7.63114 56.4589 7.63114C56.6906 7.63114 56.7935 7.59251 56.9609 7.44443L57.1732 7.25772L57.1925 6.54308L57.2183 5.82843H60.4747L60.5005 6.54308L60.5198 7.25772L60.7322 7.44443C60.8995 7.59895 60.996 7.63114 61.2599 7.63114C61.5238 7.63114 61.6203 7.59895 61.7876 7.44443L62 7.25772L61.9936 5.23611C61.9871 3.38834 61.9807 3.18232 61.852 2.71876C61.5624 1.65645 61.1312 1.01263 60.5069 0.703593C60.1401 0.523322 60.1079 0.516884 58.943 0.504007C57.894 0.484693 57.7138 0.497569 57.4049 0.613457ZM59.9792 2.22302C60.2366 2.52561 60.4297 3.16944 60.4683 3.81326L60.5069 4.34764H57.2054V3.9549C57.2054 3.13725 57.5658 2.18439 57.9262 2.02987C58.0099 1.99768 58.4604 1.97836 58.9366 1.9848L59.7926 1.99768L59.9792 2.22302Z" fill="#A6A6A6"/>
</g>
<defs>
<clipPath id="clip0_1_53">
<rect width="61.2997" height="7.21173" fill="white" transform="translate(0.700317 0.484222)"/>
</clipPath>
</defs>
</svg>
