<svg width="90" height="60" viewBox="0 0 90 60" fill="none" xmlns="http://www.w3.org/2000/svg">
<path d="M60 0C43.4317 0 30 13.4317 30 30C30 46.5683 43.4317 60 60 60C76.5683 60 90 46.5683 90 30C90 13.4317 76.5683 0 60 0ZM35.1724 30C35.1724 16.3107 46.3107 5.17241 60 5.17241C66.0476 5.17241 71.5945 7.34793 75.9052 10.9541L40.9541 45.9052C37.3479 41.5945 35.1724 36.0466 35.1724 30ZM60 54.8276C54.2172 54.8276 48.8938 52.8341 44.669 49.5062L79.5062 14.6679C82.8341 18.8938 84.8276 24.2172 84.8276 30C84.8276 43.6893 73.6893 54.8276 60 54.8276Z" fill="#D34756"/>
<path d="M56.5807 25.7597L33.0858 17.0319C32.0795 16.6594 31.0072 16.6455 30.0009 16.8884C28.8369 17.1694 27.7632 17.8046 27.0139 18.7991L18.0476 30.7004C17.464 31.4729 17.6219 32.57 18.3996 33.1494L30.0008 32.7581L60.002 31.7497V30.6748C60.002 28.4975 58.627 26.5219 56.5807 25.7597Z" fill="#5F55AF"/>
<path d="M60.0031 30.6748C60.0031 28.4976 58.6281 26.5219 56.5818 25.7597L33.0868 17.0319C32.0806 16.6594 31.0083 16.6455 30.002 16.8884V32.758L60.0032 31.7496V30.6748H60.0031Z" fill="#453D83"/>
<path d="M58.2445 29.999H30.0012H1.75781V42.249H30.0012H60.0024V31.749C60.0024 30.7689 59.229 29.999 58.2445 29.999Z" fill="#EDF5FF"/>
<path d="M60.0032 31.749C60.0032 30.7689 59.2298 29.999 58.2453 29.999H30.002V42.249H60.0032V31.749Z" fill="#D5E8FE"/>
<path d="M58.2446 40.5H30.0012H3.51577V14.25C3.51577 13.2699 2.74242 12.5 1.75788 12.5C0.773352 12.5 0 13.2699 0 14.25V49.2499C0 50.2301 0.773352 50.9999 1.75788 50.9999C2.74242 50.9999 3.51577 50.2301 3.51577 49.2499V43.9999H30.0012H56.4867V49.2499C56.4867 50.2301 57.26 50.9999 58.2446 50.9999C59.2291 50.9999 60.0025 50.2301 60.0025 49.2499V42.25C60.0025 41.2698 59.2291 40.5 58.2446 40.5Z" fill="#5F55AF"/>
<path d="M56.4874 49.25C56.4874 50.2301 57.2608 51 58.2453 51C59.2298 51 60.0032 50.2301 60.0032 49.25V42.25C60.0032 41.2699 59.2298 40.5 58.2453 40.5H30.002V44H56.4874V49.25Z" fill="#453D83"/>
<path d="M24.0256 19.5C21.113 19.5 18.752 17.1495 18.752 14.25C18.752 11.3505 21.113 9 24.0256 9C26.9382 9 29.2993 11.3505 29.2993 14.25C29.2993 17.1495 26.9382 19.5 24.0256 19.5Z" fill="#FFCCCC"/>
<path d="M12.4221 30.001C9.50952 30.001 7.03125 27.6505 7.03125 24.751C7.03125 21.8515 9.50952 19.501 12.4221 19.501C15.3347 19.501 17.6958 21.8515 17.6958 24.751C17.6958 27.6505 15.3347 30.001 12.4221 30.001Z" fill="#FFCCCC"/>
</svg>
