<svg width="21" height="18" viewBox="0 0 21 18" fill="none" xmlns="http://www.w3.org/2000/svg">
<path d="M20.6652 14.4614L12.6385 1.17952C12.1922 0.440978 11.3927 0 10.5 0C9.60728 0 8.8078 0.440978 8.36147 1.17952L0.334779 14.4614C-0.111593 15.2 -0.111593 16.0819 0.334779 16.8205C0.781151 17.5591 1.58054 18 2.47329 18H18.5267C19.4194 18 20.2188 17.559 20.6652 16.8205C21.1116 16.0819 21.1116 15.2 20.6652 14.4614ZM19.5997 16.2328C19.3757 16.6034 18.9746 16.8247 18.5267 16.8247H2.47329C2.02532 16.8247 1.62418 16.6034 1.40024 16.2328C1.17629 15.8622 1.17629 15.4198 1.40024 15.0492L9.42701 1.76724C9.65096 1.39664 10.0521 1.17541 10.5 1.17541C10.9479 1.17541 11.3491 1.39664 11.573 1.76724L19.5998 15.0492C19.8237 15.4198 19.8237 15.8622 19.5997 16.2328Z" fill="#D34756"/>
<path d="M11.1151 5.86621H9.88477V11.7431H11.1151V5.86621Z" fill="#D34756"/>
<path d="M10.5038 12.918C10.0515 12.918 9.68359 13.2695 9.68359 13.7016C9.68359 14.1337 10.0515 14.4852 10.5038 14.4852C10.9561 14.4852 11.3241 14.1337 11.3241 13.7016C11.3241 13.2695 10.9561 12.918 10.5038 12.918Z" fill="#D34756"/>
</svg>
