<svg width="90" height="60" viewBox="0 0 90 60" fill="none" xmlns="http://www.w3.org/2000/svg">
<path d="M60 0C43.4317 0 30 13.4317 30 30C30 46.5683 43.4317 60 60 60C76.5683 60 90 46.5683 90 30C90 13.4317 76.5683 0 60 0ZM35.1724 30C35.1724 16.3107 46.3107 5.17241 60 5.17241C66.0476 5.17241 71.5945 7.34793 75.9052 10.9541L40.9541 45.9052C37.3479 41.5945 35.1724 36.0466 35.1724 30ZM60 54.8276C54.2172 54.8276 48.8938 52.8341 44.669 49.5062L79.5062 14.6679C82.8341 18.8938 84.8276 24.2172 84.8276 30C84.8276 43.6893 73.6893 54.8276 60 54.8276Z" fill="#D34756"/>
<path d="M39.443 2H21.557C17.3834 2 14 5.38799 14 9.5673V32.4768V32.4776C14 41.6027 21.3873 49 30.5 49C39.6127 49 47 41.6027 47 32.4776V9.5673C46.9999 5.38799 43.6165 2 39.443 2ZM21.5569 8.65094H39.443C39.9476 8.65094 40.3581 9.06197 40.3581 9.5673V19.2273C37.6076 17.172 34.1957 15.9552 30.5 15.9552C26.8041 15.9552 23.3924 17.172 20.6419 19.2273V9.5673C20.6418 9.06197 21.0524 8.65094 21.5569 8.65094Z" fill="#313D4B"/>
<path d="M34 48.7358C33.0151 48.91 32.0014 49 30.9649 49C21.5954 49 14 41.6127 14 32.5C14 23.3873 21.5954 16 30.9649 16C32.0014 16 33.0151 16.09 34 16.2642C26.0783 17.6546 20.0703 24.3954 20.0703 32.5C20.0703 40.6046 26.0783 47.3454 34 48.7358Z" fill="#3E4A56"/>
<path d="M18.1817 21.8672C8.1396 21.8672 0 29.9563 0 39.9334C0 49.9116 8.1396 57.9995 18.1817 57.9995C28.2226 57.9995 36.3634 49.9116 36.3634 39.9334C36.3634 29.9563 28.2226 21.8672 18.1817 21.8672ZM18.1817 43.0976C16.4226 43.0976 14.9972 41.6813 14.9972 39.9332C14.9972 38.1865 16.4225 36.7689 18.1817 36.7689C19.9396 36.7689 21.3663 38.1865 21.3663 39.9332C21.3663 41.6813 19.9396 43.0976 18.1817 43.0976Z" fill="#5359C7"/>
<path d="M18.1816 53.5861C10.6053 53.5861 4.44141 47.4614 4.44141 39.9332C4.44141 32.405 10.6053 26.2803 18.1816 26.2803C25.7579 26.2803 31.9218 32.405 31.9218 39.9332C31.9218 47.4614 25.7579 53.5861 18.1816 53.5861ZM18.1816 28.1053C11.6179 28.1053 6.27815 33.4113 6.27815 39.9332C6.27815 46.455 11.6179 51.761 18.1816 51.761C24.7453 51.761 30.0851 46.455 30.0851 39.9332C30.0851 33.4113 24.7453 28.1053 18.1816 28.1053Z" fill="#4B4F9B"/>
<path d="M52.3854 42.8662C49.1235 42.8662 46.3418 44.9047 45.2569 47.7691C43.8625 46.9534 41.8387 46.4398 39.5854 46.4398C37.332 46.4398 35.3081 46.9534 33.9138 47.7691C32.8291 44.9047 30.0473 42.8662 26.7853 42.8662C22.5795 42.8662 19.1699 46.254 19.1699 50.4332C19.1699 54.6124 22.5794 58.0002 26.7853 58.0002C30.0473 58.0002 32.8291 55.9617 33.9138 53.0973C35.3082 53.913 37.332 54.4266 39.5854 54.4266C41.8387 54.4266 43.8626 53.913 45.2569 53.0973C46.3416 55.9617 49.1235 58.0002 52.3854 58.0002C56.5913 58.0002 60.0008 54.6124 60.0008 50.4332C60.0008 46.254 56.5913 42.8662 52.3854 42.8662Z" fill="#DCD761"/>
<path d="M48.5772 50.4332C48.5772 46.9073 51.0042 43.9447 54.2888 43.1047C53.6803 42.9491 53.0424 42.8662 52.3849 42.8662C48.179 42.8662 44.7695 46.254 44.7695 50.4332C44.7695 54.6124 48.179 58.0002 52.3849 58.0002C53.0424 58.0002 53.6803 57.9175 54.2888 57.7617C51.0042 56.9217 48.5772 53.9591 48.5772 50.4332Z" fill="#C6BE00"/>
<path d="M22.9776 50.4332C22.9776 46.9073 25.4046 43.9447 28.6892 43.1047C28.0807 42.9491 27.4427 42.8662 26.7853 42.8662C22.5795 42.8662 19.1699 46.254 19.1699 50.4332C19.1699 54.6124 22.5794 58.0002 26.7853 58.0002C27.4427 58.0002 28.0807 57.9175 28.6892 57.7617C25.4046 56.9217 22.9776 53.9591 22.9776 50.4332Z" fill="#C6BE00"/>
<path d="M18.181 44.0111C15.9187 44.0111 14.0781 42.1823 14.0781 39.9343C14.0781 37.6863 15.9187 35.8574 18.181 35.8574C20.4436 35.8574 22.2841 37.6863 22.2841 39.9343C22.2841 42.1823 20.4436 44.0111 18.181 44.0111ZM18.181 37.6824C16.9314 37.6824 15.9149 38.6925 15.9149 39.9342C15.9149 41.1758 16.9314 42.1859 18.181 42.1859C19.4306 42.1859 20.4473 41.1758 20.4473 39.9342C20.4473 38.6925 19.4306 37.6824 18.181 37.6824Z" fill="#4B4F9B"/>
</svg>
