<svg width="20" height="33" viewBox="0 0 20 33" fill="none" xmlns="http://www.w3.org/2000/svg">
<path d="M0.671567 2.25451C0.211676 2.56032 0.0867661 3.18104 0.392574 3.64093C0.698382 4.10082 1.3191 4.22573 1.77899 3.91993L0.671567 2.25451ZM14.8079 6.79094L13.9997 7.37981L14.8079 6.79094ZM8.57345 32.0456C8.67052 32.5893 9.18995 32.9514 9.73364 32.8543L18.5935 31.2725C19.1372 31.1754 19.4993 30.656 19.4022 30.1123C19.3052 29.5686 18.7857 29.2066 18.242 29.3036L10.3666 30.7097L8.96053 22.8342C8.86346 22.2905 8.34403 21.9284 7.80034 22.0255C7.25665 22.1226 6.89459 22.642 6.99166 23.1857L8.57345 32.0456ZM1.22528 3.08722C1.77899 3.91993 1.77853 3.92023 1.7781 3.92052C1.77799 3.92059 1.77758 3.92087 1.77736 3.92101C1.77693 3.9213 1.7766 3.92151 1.77638 3.92166C1.77594 3.92195 1.77593 3.92195 1.77635 3.92168C1.77719 3.92113 1.77973 3.91948 1.78395 3.91679C1.7924 3.91141 1.80752 3.90189 1.82907 3.88877C1.8722 3.86252 1.94089 3.82197 2.03311 3.77144C2.21784 3.6702 2.4952 3.52987 2.84909 3.38425C3.55984 3.0918 4.56047 2.78576 5.72855 2.72032C7.99848 2.59315 11.071 3.36007 13.9997 7.37981L15.6162 6.20208C12.2942 1.64263 8.5754 0.557694 5.61667 0.723455C4.17042 0.80448 2.94738 1.18111 2.08805 1.53471C1.6569 1.71211 1.31262 1.88565 1.07196 2.01753C0.951489 2.08355 0.856551 2.13937 0.789226 2.18035C0.75555 2.20084 0.72874 2.21765 0.709055 2.2302C0.699211 2.23647 0.691144 2.24168 0.684887 2.24576C0.681758 2.2478 0.679081 2.24955 0.67686 2.25101C0.675749 2.25174 0.674753 2.2524 0.67387 2.25298C0.67343 2.25328 0.672853 2.25366 0.672633 2.2538C0.672086 2.25417 0.671567 2.25451 1.22528 3.08722ZM13.9997 7.37981C15.3776 9.27106 15.8159 11.6485 15.6272 14.2567C15.4383 16.8674 14.6255 19.6267 13.5994 22.1739C12.5759 24.7142 11.3582 27 10.3934 28.6538C9.9118 29.4795 9.49505 30.1445 9.19986 30.6015C9.05231 30.8299 8.93525 31.0062 8.8558 31.1243C8.81607 31.1833 8.78576 31.2278 8.76575 31.257C8.75574 31.2716 8.74831 31.2824 8.74356 31.2893C8.74119 31.2927 8.73949 31.2952 8.73848 31.2966C8.73797 31.2974 8.73764 31.2978 8.73747 31.2981C8.73739 31.2982 8.7374 31.2982 8.73736 31.2982C8.73741 31.2982 8.73751 31.298 9.55788 31.8699C10.3783 32.4417 10.3784 32.4414 10.3787 32.4411C10.3788 32.4409 10.3791 32.4405 10.3793 32.4401C10.3799 32.4393 10.3806 32.4383 10.3815 32.4371C10.3832 32.4345 10.3857 32.431 10.3888 32.4264C10.3951 32.4174 10.4041 32.4044 10.4156 32.3875C10.4387 32.3537 10.4723 32.3045 10.5152 32.2406C10.6012 32.1129 10.7251 31.9262 10.8798 31.6867C11.1892 31.2079 11.6221 30.5168 12.121 29.6616C13.1173 27.9537 14.384 25.5783 15.4545 22.9213C16.5221 20.2711 17.4125 17.297 17.622 14.401C17.8317 11.5027 17.3636 8.60041 15.6162 6.20208L13.9997 7.37981Z" fill="#838383"/>
</svg>
