<svg width="33" height="34" viewBox="0 0 33 34" fill="none" xmlns="http://www.w3.org/2000/svg">
<g clip-path="url(#clip0_1_9)">
<path d="M14.8674 21.3991H12.6276L14.0274 12.7963H16.2674L14.8674 21.3991ZM10.7434 12.7963L8.60815 18.7133L8.35548 17.4392L8.35571 17.4396L7.60207 13.5709C7.60207 13.5709 7.51094 12.7963 6.53961 12.7963H3.00959L2.96817 12.942C2.96817 12.942 4.04766 13.1666 5.31101 13.9253L7.25689 21.3993H9.59053L13.1539 12.7963H10.7434V12.7963ZM28.3602 21.3991H30.4167L28.6236 12.7961H26.8232C25.9918 12.7961 25.7893 13.4372 25.7893 13.4372L22.4489 21.3991H24.7837L25.2506 20.1212H28.0978L28.3602 21.3991ZM25.8956 18.356L27.0724 15.1366L27.7345 18.356H25.8956ZM22.624 14.8651L22.9436 13.0177C22.9436 13.0177 21.9573 12.6426 20.9292 12.6426C19.8177 12.6426 17.1782 13.1284 17.1782 15.4905C17.1782 17.713 20.2761 17.7406 20.2761 18.908C20.2761 20.0754 17.4974 19.8662 16.5804 19.1301L16.2474 21.0617C16.2474 21.0617 17.2475 21.5475 18.7755 21.5475C20.3039 21.5475 22.6097 20.7561 22.6097 18.6022C22.6097 16.3654 19.484 16.1572 19.484 15.1847C19.4842 14.212 21.6655 14.3369 22.624 14.8651V14.8651Z" fill="#A6A6A6"/>
<path d="M8.35571 17.4394L7.60207 13.5706C7.60207 13.5706 7.51094 12.796 6.53961 12.796H3.00959L2.96817 12.9417C2.96817 12.9417 4.66484 13.2933 6.29223 14.6107C7.8483 15.8699 8.35571 17.4394 8.35571 17.4394Z" fill="#797979"/>
</g>
<defs>
<clipPath id="clip0_1_9">
<rect width="32.6152" height="32.6152" fill="white" transform="translate(0.384827 0.787048)"/>
</clipPath>
</defs>
</svg>
