<svg width="33" height="33" viewBox="0 0 33 33" fill="none" xmlns="http://www.w3.org/2000/svg">
<g clip-path="url(#clip0_1_33)">
<path d="M5.51165 15.8825C4.77958 15.8825 4.40378 16.4185 4.40378 17.161C4.40378 17.9328 4.74116 18.4402 5.56049 18.4402C5.91155 18.4402 6.20463 18.3425 6.42412 18.2142V17.8449C6.15578 18.0044 5.91155 18.0982 5.64842 18.0982C5.14627 18.0982 4.90659 17.8403 4.90659 17.2535H6.49707V17.0744C6.49772 16.2772 6.12192 15.8825 5.51165 15.8825ZM4.91636 16.9259C4.96976 16.4387 5.19967 16.2088 5.49732 16.2088C5.76109 16.2088 6.00989 16.4127 6.03399 16.9259H4.91636ZM8.10838 15.8825C7.84461 15.8825 7.59581 15.9848 7.44862 16.0629V14.6717L6.94125 14.7935V18.2005C7.23434 18.3562 7.63424 18.4395 7.89346 18.4395C8.60142 18.4395 9.0404 17.9947 9.0404 17.0816C9.0404 16.3019 8.71344 15.8825 8.10838 15.8825ZM7.89346 18.0976C7.77101 18.0976 7.60102 18.0885 7.44471 18.0201V16.4237C7.6401 16.3163 7.78208 16.2629 7.97617 16.2629C8.30312 16.2629 8.52847 16.4635 8.52847 17.0822C8.52847 17.8735 8.25493 18.0976 7.89346 18.0976ZM18.212 16.6146V18.3809H17.7047V16.7259C17.7047 16.3404 17.5151 16.272 17.2644 16.272C17.0696 16.272 16.8202 16.3599 16.6691 16.4478V18.3802H16.1624V16.2427C16.3819 16.1111 16.8456 15.8819 17.407 15.8819C17.9919 15.8825 18.212 16.1118 18.212 16.6146ZM12.3308 14.9205H12.9358V18.3809H12.4089V15.8714H12.3653L11.3695 18.3809H11.0575L10.0616 15.9307H10.018V18.3809H9.57902V14.9205H10.1691L11.2626 17.6482H11.2874L12.3308 14.9205ZM14.5856 15.8825C13.9414 15.8825 13.4725 16.3072 13.4725 17.161C13.4725 17.9953 13.9173 18.4402 14.5856 18.4402C15.2545 18.4402 15.6986 17.9953 15.6986 17.161C15.6986 16.3065 15.2297 15.8825 14.5856 15.8825ZM14.5856 18.0976C14.2391 18.0976 13.9851 17.8306 13.9851 17.161C13.9851 16.5019 14.2638 16.2238 14.5856 16.2238C14.9177 16.2238 15.1861 16.5019 15.1861 17.161C15.1861 17.8306 14.9321 18.0976 14.5856 18.0976ZM30.2748 19.0452L31.1351 20.0287C30.9645 20.1609 30.7776 20.2866 30.5724 20.4025C29.9504 20.7575 29.2294 20.9601 28.4642 20.9601C26.1084 20.9601 24.1864 19.0387 24.1864 16.683C24.1864 14.3266 26.1084 12.4052 28.4642 12.4052C29.135 12.4052 29.772 12.5615 30.3392 12.839C30.4285 12.8813 30.5164 12.9282 30.6043 12.979L30.2109 13.3314L29.6209 12.7198L28.6224 13.6108L28.031 12.9634L26.169 14.6398L27.3622 15.9548L26.8926 16.3664L28.0682 17.6827L27.6012 18.0937L29.2802 19.9623L30.2748 19.0452ZM32.3173 16.3905L32.7745 16.8992L32.2665 17.3571L31.8086 16.8484L32.3173 16.3905ZM22.6578 15.9646H23.1808L22.2983 18.4057C22.054 19.0797 21.7564 19.4308 21.1956 19.4308V19.0315C21.5278 19.0315 21.7323 18.7684 21.8495 18.407L20.913 15.9652H21.4496L22.0742 17.7622H22.1035L22.6578 15.9646ZM19.7738 15.8825C19.0411 15.8825 18.666 16.4185 18.666 17.161C18.666 17.9328 19.0027 18.4402 19.822 18.4402C20.1731 18.4402 20.4649 18.3425 20.685 18.2142V17.8449C20.4173 18.0044 20.1731 18.0982 19.91 18.0982C19.4078 18.0982 19.1675 17.8403 19.1675 17.2535H20.7586V17.0744C20.7599 16.2772 20.3835 15.8825 19.7738 15.8825ZM19.1772 16.9259C19.232 16.4387 19.4619 16.2088 19.7595 16.2088C20.022 16.2088 20.2721 16.4127 20.2962 16.9259H19.1772ZM31.6132 18.1829L32.3003 18.9462L31.537 19.6334L30.8492 18.87L31.6132 18.1829ZM29.587 13.4955L30.2741 14.2588L29.5108 14.9459L28.8237 14.1826L29.587 13.4955ZM27.9737 13.7593L28.8895 14.7766L27.8721 15.6923L26.9564 14.675L27.9737 13.7593ZM30.2142 16.4798L29.5271 15.7171L30.2891 15.03L30.9775 15.7926L30.2142 16.4798ZM31.1579 15.338L31.6653 14.8802L32.1225 15.3888L31.6158 15.8467L31.1579 15.338ZM3.69061 14.9205H4.2618L3.47047 18.3809H2.94291L2.27924 15.945H2.24472L1.60058 18.3809H1.07303L0.282349 14.9205H0.829442L1.37588 17.5023H1.4104L2.04477 14.9205H2.47919L3.15784 17.5023H3.19236L3.69061 14.9205ZM30.8668 18.0911L30.1784 17.329L30.9417 16.6413L31.6301 17.4033L30.8668 18.0911ZM30.5079 13.8264L31.0166 13.3685L31.4738 13.8772L30.9658 14.335L30.5079 13.8264ZM28.6009 17.4293L27.6852 16.412L28.7025 15.495L29.6183 16.5123L28.6009 17.4293ZM29.3245 19.1879L28.4094 18.1705L29.4261 17.2548L30.3419 18.2721L29.3245 19.1879Z" fill="#797979"/>
</g>
<defs>
<clipPath id="clip0_1_33">
<rect width="32.4921" height="32.4921" fill="white" transform="translate(0.282379 0.43692)"/>
</clipPath>
</defs>
</svg>
